<svg width="112" height="41" viewBox="0 0 112 41" fill="none" xmlns="http://www.w3.org/2000/svg">
<path d="M91.8578 40.9944C92.1344 40.9944 92.4256 41 92.7022 41L92.7022 40.9748C102.049 40.6216 112 37.4212 112 30.7493C112 24.0774 104.21 22.0984 97.7021 20.5C104.21 18.9072 112 16.9226 112 10.2507C112 3.5788 102.049 0.378409 92.7022 0.025226L92.7022 -1.35946e-06C92.4256 -1.37155e-06 92.1344 0.00560469 91.8578 0.00560467L91.8578 -1.39637e-06C91.6103 -1.40719e-06 91.3919 0.00280162 91.1444 0.00560464C90.9261 0.00560463 90.7222 -1.44601e-06 90.5039 -1.45555e-06L90.5039 0.00840765C54.8165 0.00840575 31.4712 15.6206 1.24962e-06 20.5014C31.4712 25.3794 54.8165 40.9916 90.5039 40.9916L90.5039 41C90.7222 41 90.9406 40.9972 91.1444 40.9944C91.3774 40.9944 91.6103 41 91.8578 41L91.8578 40.9944Z" fill="#FF0000"/>
</svg>
