<svg width="253" height="76" viewBox="0 0 253 76" fill="none" xmlns="http://www.w3.org/2000/svg">
<path d="M68.1338 13.4492L85.626 17.9502L103.792 13.4492L100.549 0H149.696L146.134 13.4492L163.626 17.9502L181.792 13.4492L178.549 0H227.696L224.134 13.4492L243.842 18.5205L253 27.2559V46.1338L240.011 65.1055L217.489 76H192.912L173.849 65.1055L167.312 57.3604L162.011 65.1055L139.489 76H114.912L95.8486 65.1055L89.3125 57.3604L84.0107 65.1055L61.4893 76H36.9121L17.8486 65.1055L5.32617 50.2656L0 32.3271L5.32617 18.5205L25.792 13.4492L22.5488 0H71.6963L68.1338 13.4492Z" fill="#D9D9D9"/>
</svg>
