<svg width="232" height="251" viewBox="0 0 232 251" fill="none" xmlns="http://www.w3.org/2000/svg">
<path d="M198.006 0L85.0286 25.1937L71.6444 40.1524V56.6857L79.5175 69.6762L92.9016 78.3365V85.4222L81.4857 96.0508H72.8254L68.8889 89.7524L59.4413 79.9111H44.0889L30.7048 88.5714L26.3746 106.286L35.0349 120.457L53.5365 122.425L67.3143 115.733V120.457L59.4413 127.937V137.778L50.781 139.746L35.0349 134.629L0 157.46L39.3651 183.835L72.8254 155.886V168.089L69.6762 174.781V181.079H56.2921L44.0889 190.921L40.8203 210.603L50.781 235L72.8254 250.5L97.3203 233.5L107.073 210.603L105.498 190.921L118.095 174.781L115.34 157.46L130.298 144.47L127.937 131.479L120.851 122.425V109.435L115.34 106.286H109.435L105.498 98.8064L127.937 83.454L206.273 86.9968L227.137 64.1651L231.435 31.8857L223.594 8.66032L198.006 0Z" fill="#D9D9D9"/>
</svg>
