<svg width="277" height="257" viewBox="0 0 277 257" fill="none" xmlns="http://www.w3.org/2000/svg">
<path d="M228.206 10.0977L241.573 25.1338L246.567 51.4922L234.686 69.8301L220.752 77.3389L249.438 215.415L240.299 217.146L212.02 78.9932L207.112 77.8164L208.567 85.4922L196.686 103.83L182.752 111.339L211.438 249.415L202.299 251.146L174.02 112.993L153.305 108.028L140.943 93.8604L137.621 76.3311L135.752 77.3389L164.438 215.415L155.299 217.146L127.02 78.9932L122.112 77.8164L123.567 85.4922L111.686 103.83L97.752 111.339L126.438 249.415L117.299 251.146L89.0195 112.993L68.3047 108.028L55.9434 93.8604L52.6211 76.3311L50.752 77.3389L79.4375 215.415L70.2988 217.146L42.0195 78.9932L21.3047 74.0283L8.94336 59.8604L4.33594 35.5449L10.8896 19.0625L32.6953 6.46484L58.2061 10.0977L71.5732 25.1338L74.9922 43.1807L79.6953 40.4648L90.5605 42.0117L89.3359 35.5449L95.8896 19.0625L117.695 6.46484L143.206 10.0977L156.573 25.1338L159.992 43.1807L164.695 40.4648L175.561 42.0117L174.336 35.5449L180.89 19.0625L202.695 6.46484L228.206 10.0977Z" fill="#D9D9D9"/>
</svg>
