<svg width="359" height="314" viewBox="0 0 359 314" fill="none" xmlns="http://www.w3.org/2000/svg">
<path d="M308.856 4.07422L304.41 9.76465L298.782 0L302.949 11.6348L291.829 25.8701L291.085 28.585L285.27 22.1396H279.709L279.378 22.7959L275.276 15.6787L276.313 4.07422L271.867 9.76465L266.24 0L270.406 11.6338L259.286 25.8701L258.542 28.583L252.729 22.1396H247.168L246.836 22.7979L242.734 15.6816L243.772 4.07422L239.325 9.76562L233.697 0L237.864 11.6357L226.745 25.8701L226.001 28.584L220.187 22.1396H214.626L214.295 22.7969L210.192 15.6797L211.23 4.07422L206.784 9.76465L201.156 0L205.323 11.6348L194.203 25.8701L193.459 28.583L187.646 22.1396H182.085L181.753 22.7979L177.651 15.6816L178.689 4.07422L174.242 9.76562L168.614 0L172.781 11.6357L161.662 25.8701L160.918 28.584L155.104 22.1396H149.543L149.212 22.7969L145.109 15.6797L146.147 4.07422L141.701 9.76465L136.073 0L140.24 11.6348L129.12 25.8701L128.376 28.585L122.561 22.1396H117L116.669 22.7959L112.567 15.6787L113.604 4.07422L109.158 9.76465L103.531 0L107.697 11.6338L96.5771 25.8701L95.833 28.583L90.0195 22.1396H84.459L84.127 22.7979L80.0254 15.6816L81.0635 4.07422L76.6162 9.76562L70.9883 0L75.1553 11.6357L64.0361 25.8701L63.292 28.584L57.4775 22.1396H51.917L51.5859 22.7969L47.4834 15.6797L48.5215 4.07422L44.0752 9.76465L38.4473 0L42.6143 11.6348L31.4941 25.8701L29.625 32.6934L24.4082 32.1045L5.90527 0L16.4365 29.4043L11.0723 31.6133L9.09082 34.0723L5.90527 28.5449L8.25586 35.1084L0 45.3584L9.66797 39.0518L16.4365 57.9492L11.0723 60.1582L9.08984 62.6182L5.90527 57.0918L8.25488 63.6543L0 73.9033L9.66797 67.5977L16.4365 86.4961L11.0723 88.7051L9.09082 91.1641L5.90527 85.6367L8.25586 92.2002L0 102.45L9.66797 96.1436L16.4365 115.041L11.0723 117.25L9.09082 119.709L5.90527 114.182L8.25586 120.745L0 130.995L9.66797 124.688L16.4365 143.586L11.0723 145.795L9.09082 148.254L5.90527 142.727L8.25586 149.29L0 159.54L9.66797 153.233L16.4365 172.131L11.0723 174.34L9.08984 176.8L5.90527 171.273L8.25488 177.836L0 188.085L9.66797 181.779L16.4365 200.678L11.0723 202.887L9.09082 205.346L5.90527 199.818L8.25586 206.382L0 216.632L9.66797 210.325L16.4365 229.223L11.0723 231.432L9.09082 233.891L5.90527 228.363L8.25586 234.927L0 245.177L9.66797 238.87L16.4365 257.768L11.0723 259.977L9.09082 262.436L5.90527 256.908L8.25586 263.472L0 273.722L9.66797 267.415L16.4365 286.312L11.0723 288.521L0 302.267L12.7949 293.922L18.4541 291.811L22.9316 303.69L30.0674 306.096L43.2061 313.999L46.2578 305.408L52.1738 305.981L53.5996 298.719L55.4736 303.69L62.6094 306.096L75.748 313.999L78.7998 305.408L84.7158 305.981L86.1406 298.721L88.0146 303.69L95.1504 306.096L108.289 313.999L111.341 305.408L117.257 305.981L118.683 298.717L120.558 303.69L127.693 306.096L140.832 313.999L143.884 305.408L149.8 305.981L151.226 298.719L153.1 303.69L160.235 306.096L173.374 313.999L176.426 305.408L182.342 305.981L183.767 298.721L185.641 303.69L192.776 306.096L205.915 313.999L208.967 305.408L214.883 305.981L216.309 298.719L218.183 303.69L225.318 306.096L238.457 313.999L241.509 305.408L247.425 305.981L248.85 298.721L250.724 303.69L257.859 306.096L270.998 313.999L274.05 305.408L279.966 305.981L281.392 298.717L283.267 303.69L290.402 306.096L303.541 313.999L306.593 305.408L312.509 305.981L313.935 298.719L315.809 303.69L322.944 306.096L336.083 313.999L339.135 305.408L345.051 305.981L349.665 282.483L358.77 288.374L350.354 279.048H344.794L339.479 289.602L339.135 286.312L339.972 276.944L345.051 277.437L349.665 253.938L358.77 259.829L350.354 250.503H344.794L339.479 261.057L339.135 257.768L339.972 248.399L345.051 248.892L349.665 225.394L358.77 231.284L350.354 221.958H344.794L339.479 232.512L339.135 229.223L339.972 219.854L345.051 220.347L349.665 196.849L358.77 202.739L350.354 193.413H344.794L339.479 203.967L339.135 200.678L339.972 191.308L345.051 191.8L349.665 168.302L358.77 174.192L350.354 164.866H344.794L339.479 175.42L339.135 172.131L339.972 162.763L345.051 163.255L349.665 139.757L358.77 145.647L350.354 136.321H344.794L339.479 146.875L339.135 143.586L339.972 134.218L345.051 134.71L349.665 111.212L358.77 117.103L350.354 107.776H344.794L339.479 118.33L339.135 115.041L339.972 105.673L345.051 106.165L349.665 82.667L358.77 88.5576L350.354 79.2314H344.794L339.479 89.7852L339.135 86.4961L339.972 77.126L345.051 77.6182L349.665 54.1201L358.77 60.0107L350.354 50.6846H344.794L339.479 61.2383L339.135 57.9492L339.972 48.5811L345.051 49.0732L349.665 25.5752L358.77 31.4658L350.354 22.1396H344.794L339.479 32.6934L339.135 29.4043L341.398 4.07422L324.371 25.8701L323.627 28.584L317.812 22.1396H312.252L311.921 22.7969L307.818 15.6797L308.856 4.07422Z" fill="#D9D9D9"/>
</svg>
