<svg width="183" height="77" viewBox="0 0 183 77" fill="none" xmlns="http://www.w3.org/2000/svg">
<path d="M182.975 21.6297C182.975 21.4395 183 21.2393 183 21.0491H182.887C181.311 9.29846 161.481 0 137.247 0C113.013 0 93.0889 11.2493 91.5 19C89.9361 11.2493 69.9871 0 45.7531 0C21.5191 0 1.689 9.29846 0.1126 21.0491H0C0 21.2393 0.0250222 21.4395 0.0250222 21.6297H0C0 21.7998 0.0125111 21.95 0.0250222 22.1201C0.0250222 22.2702 0 22.4104 0 22.5605H0.0375333C0.0375333 53.6488 75.2668 46.7625 91.5062 77C107.733 46.7625 182.962 53.6488 182.962 22.5605H183C183 22.4104 182.987 22.2602 182.975 22.1201C182.975 21.96 183 21.7998 183 21.6297H182.975Z" fill="#FF0000"/>
</svg>
