<svg width="112" height="41" viewBox="0 0 112 41" fill="none" xmlns="http://www.w3.org/2000/svg">
<path d="M20.1422 0.00560406C19.8656 0.00560408 19.5744 2.0343e-06 19.2978 2.04639e-06L19.2978 0.0252303C9.95056 0.378413 -1.68781e-06 3.5788 -1.34409e-06 10.2507C-1.00037e-06 16.9226 7.79011 18.9016 14.2979 20.5C7.79011 22.0928 -7.91792e-07 24.0774 -4.48072e-07 30.7493C-1.04352e-07 37.4212 9.95056 40.6216 19.2978 40.9748L19.2978 41C19.5744 41 19.8656 40.9944 20.1422 40.9944L20.1422 41C20.3897 41 20.6081 40.9972 20.8556 40.9944C21.0739 40.9944 21.2778 41 21.4961 41L21.4961 40.9916C57.1835 40.9916 80.5288 25.3794 112 20.4986C80.5288 15.6206 57.1835 0.00840855 21.4961 0.00840977L21.4961 1.9503e-06C21.2778 1.95984e-06 21.0594 0.00280099 20.8556 0.00560403C20.6226 0.00560404 20.3897 1.99866e-06 20.1422 2.00948e-06L20.1422 0.00560406Z" fill="#FF0000"/>
</svg>
