<svg width="129" height="80" viewBox="0 0 129 80" fill="none" xmlns="http://www.w3.org/2000/svg">
<path d="M128.3 0.930176V79.0102H0.919922V0.930176H128.3ZM1.17992 78.7602L127.92 78.7102L127.86 1.31017L2.81992 1.19018C2.72992 1.84018 3.44992 1.87018 3.91992 1.94018C4.66992 2.04018 5.41992 1.93017 6.06992 1.95017C12.2799 2.19017 18.5299 1.99018 24.7599 2.07018C51.7199 2.42018 78.4299 2.21017 105.22 2.20017C111.25 2.20017 117.5 2.65017 123.54 2.34017C124.35 2.30017 125.33 2.25018 126.01 1.83018C125.99 2.31018 126.06 2.80017 126 3.28017C125.82 4.76017 124.18 7.45017 123.44 8.85017C123.29 9.13017 123.23 9.59018 123.08 9.86018C122.47 10.9502 120.52 11.8802 119.47 12.6302C111.21 18.4602 102.82 24.1102 94.4999 29.8402C90.3399 32.7102 85.9699 36.1702 81.7099 38.7802C81.3099 39.0302 80.7499 39.3702 80.3099 39.0402C80.1499 38.8102 80.3199 38.1702 80.2499 37.8502C80.2299 37.7602 80.0399 37.7602 80.0099 37.6602C79.5999 36.1502 79.5899 35.9702 78.6199 34.7602C75.6799 31.0802 70.8699 30.8702 66.9199 33.1402C66.0899 33.6202 65.4799 34.5602 64.4199 34.4702C63.7299 34.4102 62.5399 33.2702 61.8099 32.8902C58.8199 31.3502 55.3099 31.3102 52.4299 33.1402C50.9799 34.0602 49.5299 36.3802 49.4799 38.0802C49.4599 38.7202 49.7299 39.3802 49.6099 40.0502L49.1899 40.0202C36.5699 31.1402 23.8699 22.4102 11.2799 13.5102C10.0399 12.6402 8.69992 11.8602 7.46992 10.9602C6.81992 10.4902 6.30992 10.1502 6.00992 9.37018C5.63992 9.25018 5.05992 9.26018 5.10992 9.76018C5.13992 10.0102 5.33992 9.93018 5.40992 10.1102C5.52992 10.4102 5.64992 11.1702 5.78992 11.3202C5.95992 11.5002 6.47992 11.5202 6.61992 11.6402C6.72992 11.7402 6.70992 12.0202 6.90992 12.1702C7.25992 12.4402 7.65992 12.6002 8.12992 12.9802C10.8699 15.1602 14.0099 17.1002 16.7599 19.2202C18.3799 20.4702 20.2599 21.5102 21.9299 22.7702C22.2999 23.0502 23.0399 23.9402 23.2999 24.1002C24.4199 24.7802 25.1399 25.2002 26.2499 25.9802C26.7299 26.3102 27.7099 26.6902 28.0399 26.9602C28.1499 27.0502 28.3899 27.7202 28.5799 27.8502C28.7999 28.0102 29.2799 28.0002 29.5599 28.1402C30.9299 28.8102 32.2299 30.1202 33.4199 31.0202C34.0199 31.4702 35.5899 32.0902 36.2599 32.6302C36.5499 32.8602 36.5399 33.1502 36.7399 33.3302C37.0899 33.6402 37.7499 33.6002 38.0799 33.8302C38.2099 33.9202 38.2699 34.1502 38.4199 34.2802C38.8999 34.7402 39.2299 34.6402 39.0599 35.6102C39.8799 35.5702 40.7699 35.3902 41.0999 36.3002L43.5099 37.9002L43.4199 38.1502C42.9099 38.0202 42.6799 39.2702 42.8799 39.4102C43.6099 39.6602 43.7999 38.9002 44.2299 38.8102C44.4199 38.7702 45.3199 38.7302 45.3999 38.8002C45.4499 38.8402 45.4099 39.0902 45.5399 39.2302C45.7999 39.5102 46.8899 40.2902 47.2799 40.5402C48.2899 41.1902 49.8699 41.6202 50.7499 42.2802C51.2699 42.6602 52.1699 43.9302 52.7099 44.5102C55.1599 47.1102 57.6499 48.6802 60.5999 50.7202C62.0299 51.7102 62.9699 52.7802 64.7399 53.3202C65.9199 53.6802 66.7799 53.9002 67.8899 53.3102C69.7499 52.3202 71.8099 50.5402 73.5099 49.2802C75.8699 47.5202 78.1399 45.9402 80.1999 43.8302C80.3599 43.6602 80.4499 43.2402 80.6599 43.0202C81.4699 42.2002 82.4499 41.8302 83.3799 41.2302C84.0099 40.8302 84.6299 39.9402 85.3899 39.9202C86.1499 39.9002 87.3499 41.4402 88.1799 41.7002C98.0099 49.6502 108.19 57.1702 117.99 65.0102C119.9 66.5402 121.89 68.0602 123.68 69.6802C124.38 71.7002 125.47 73.5702 126.25 75.4602C126.53 76.1302 127.35 77.8802 126.21 78.0302C90.1299 78.2502 54.1499 78.1102 18.1499 78.1602C14.2999 78.1602 10.4199 78.0602 6.56992 78.1502C6.25992 78.1502 3.95992 78.5302 3.96992 78.0902C4.93992 77.2902 3.71992 76.8202 3.25992 77.7702C2.27992 77.0902 1.09992 77.6202 1.17992 78.7802V78.7602ZM2.29992 1.33018C2.16992 1.25018 1.58992 1.28018 1.47992 1.43018C1.70992 2.07018 1.43992 2.70017 1.41992 3.27017C1.39992 4.33017 1.54992 5.64018 1.54992 6.69018C1.60992 21.3702 1.54992 36.0202 1.53992 50.6202C1.53992 59.2302 1.54992 67.8502 1.53992 76.4602H2.03992C1.97992 75.7402 2.41992 74.9002 2.42992 74.2302C2.45992 72.2402 2.29992 70.1602 2.29992 68.1402C2.31992 61.1702 2.46992 54.1202 2.42992 47.2002C2.42992 45.6502 2.46992 44.1002 2.29992 42.5602H2.80992C2.90992 42.1102 2.46992 42.3902 2.29992 42.3102C2.26992 41.8302 2.41992 41.3302 2.42992 40.8602C2.44992 40.1202 2.30992 35.7102 2.45992 35.4802C2.49992 35.4202 2.69992 35.5102 2.67992 35.3902C2.26992 35.3102 2.26992 34.5802 2.67992 34.5002C1.97992 34.2302 2.67992 33.7802 2.67992 33.6102C2.71992 33.2002 2.43992 33.3702 2.39992 33.1102C2.33992 32.6702 2.33992 31.2502 2.39992 30.8102C2.42992 30.5602 2.63992 30.7402 2.66992 30.3202C2.71992 29.6302 2.42992 29.7602 2.40992 29.6502C2.26992 29.0602 2.44992 28.5802 2.66992 28.1502C2.66992 27.9102 2.42992 28.0302 2.39992 27.7802C2.30992 27.0302 2.30992 24.7002 2.39992 23.9502C2.42992 23.7002 2.64992 23.7602 2.66992 23.7002C2.75992 23.3302 2.43992 23.4202 2.41992 23.3002C2.27992 22.7102 2.41992 21.8702 2.67992 21.4102C2.67992 21.1702 2.43992 21.2902 2.40992 21.0402C2.28992 20.0602 2.28992 16.9302 2.40992 15.9402C2.43992 15.6902 2.65992 15.7502 2.67992 15.6902C2.76992 15.3202 2.45992 15.4102 2.42992 15.2902C2.35992 15.0302 2.35992 14.6702 2.67992 14.7402L2.41992 14.5302V14.0602L2.67992 13.9202C2.31992 13.8602 2.36992 13.3502 2.40992 13.0202C2.44992 12.7102 2.78992 12.4702 2.67992 11.6202C2.64992 11.3802 2.43992 11.5002 2.40992 11.2602C2.35992 10.8902 2.34992 7.93018 2.44992 7.79018C2.48992 7.74018 2.64992 7.78018 2.65992 7.76018C2.85992 7.51018 2.43992 7.53017 2.40992 7.42017C2.11992 6.33017 2.43992 4.70018 2.40992 3.50018C2.39992 3.08018 2.19992 2.66018 2.20992 2.36018C2.20992 2.14018 2.56992 1.50018 2.25992 1.30018L2.29992 1.33018ZM98.4299 3.84017C99.7399 4.40017 99.8399 2.97017 98.4999 3.46017L98.4299 3.84017ZM4.40992 5.96017C3.77992 4.99017 2.99992 5.29017 3.44992 6.34017C3.60992 6.72017 3.87992 6.71018 3.93992 6.80018C4.01992 6.93018 3.93992 7.21018 4.02992 7.41018C4.28992 8.07018 4.55992 8.51017 5.36992 8.42017C5.55992 7.91017 5.17992 7.81018 5.12992 7.69018C4.88992 7.12018 4.70992 6.41017 4.41992 5.95017L4.40992 5.96017ZM49.4799 14.1402C48.2599 13.9202 48.7499 15.1502 49.3599 14.7202L49.4799 14.1402ZM28.5799 15.4202C28.0899 15.5702 28.5199 16.3302 29.0199 15.9802C29.3499 15.7502 29.0599 15.2702 28.5799 15.4202ZM70.4399 15.5402C69.1899 15.1802 68.9999 16.5202 70.3799 16.0502L70.4399 15.5402ZM81.4099 24.6602C81.5799 24.9202 82.4099 24.8402 82.5999 24.4202C83.1199 23.2602 80.9799 23.9902 81.4099 24.6602ZM20.5999 25.3302C19.7699 24.8102 19.2299 26.3702 20.2999 26.2002C20.7799 26.1302 20.8599 25.4902 20.5999 25.3302ZM16.2599 31.1702C15.8099 31.3002 15.7399 32.1102 16.3599 32.0502C16.8699 31.9902 17.0499 30.9502 16.2599 31.1702ZM29.4099 33.5502L30.1999 33.6802C30.9299 32.8402 30.1599 32.8302 29.4099 33.0702V33.5502ZM82.2799 34.5802L81.4599 34.7002C81.1199 35.2302 81.9199 35.2902 82.2599 35.0702L82.2799 34.5802ZM48.0699 36.1102L47.2599 36.0902C46.8899 36.5502 47.6999 36.7102 47.9999 36.4902L48.0699 36.1102ZM14.5099 40.6802C14.5099 40.6802 14.0399 40.5402 13.9399 40.5402C13.3499 40.5402 13.2499 41.3002 13.9399 41.2502C14.1899 41.2302 14.6999 41.0102 14.4999 40.6802H14.5099ZM26.3199 41.2002C25.1399 40.7102 24.8599 42.2102 26.2599 41.7002L26.3199 41.2002ZM31.7899 41.2002C30.5199 40.9602 30.6799 42.7102 31.8199 41.7602L31.7899 41.2002ZM23.0299 41.4502H22.1599V41.9502H23.0399V41.4502H23.0299ZM37.3499 43.1002C36.8599 43.2502 37.2899 44.0102 37.7899 43.6602C38.1199 43.4302 37.8299 42.9502 37.3499 43.1002ZM86.3299 43.3502H85.7199V43.9602H86.3299V43.3502ZM19.4399 45.1402C18.9999 45.2702 18.9099 45.8902 19.5399 45.8902C20.2999 45.8902 20.3299 44.8802 19.4399 45.1402ZM31.3799 47.6702C30.8299 47.8502 31.3399 48.7802 31.9399 48.3602C32.2999 48.1102 32.0099 47.4602 31.3799 47.6702ZM26.3399 49.8202C27.3799 49.9602 27.3899 49.0502 26.3399 49.1802V49.8202ZM58.2499 50.7002C57.5599 50.6102 57.2699 50.8902 57.3599 51.5902C58.0499 51.6802 58.3399 51.4002 58.2499 50.7002ZM91.3999 51.4302C91.5199 51.2602 91.6599 50.9102 91.4399 50.7602C90.1499 50.4002 90.1199 51.9602 91.3999 51.4302ZM37.2799 51.9702C37.6099 52.0402 37.7299 52.3502 38.0899 52.0902L38.2999 51.6602C38.1599 51.2002 37.0699 51.7102 37.2799 51.9702ZM10.7799 51.6002C10.2899 51.7502 10.7199 52.5102 11.2199 52.1602C11.5499 51.9302 11.2599 51.4502 10.7799 51.6002ZM77.4599 52.3402C79.1299 53.0102 78.8499 51.1002 77.4599 51.8702V52.3402ZM50.7199 52.6302C50.6099 52.4502 49.8999 52.2702 49.7499 52.5002C49.2699 53.2502 51.1099 53.3002 50.7199 52.6302ZM27.6999 52.6302C26.2799 52.7002 27.8499 54.2602 27.9799 52.8102C27.9099 52.6802 27.8499 52.6202 27.6999 52.6302ZM18.2899 53.2602C17.5799 53.4902 18.5899 54.5502 19.1699 54.0102L19.1099 53.3002C18.9699 53.2002 18.4699 53.2102 18.2999 53.2602H18.2899ZM97.6099 53.8902C97.1199 54.0402 97.5499 54.8002 98.0499 54.4502C98.3799 54.2202 98.0899 53.7402 97.6099 53.8902ZM22.1699 55.1302C22.8099 55.4102 23.5399 55.4102 23.2399 54.5002C23.0699 54.2602 22.4799 54.4002 22.2299 54.5002L22.1699 55.1302ZM65.0999 57.5802C63.8799 57.0702 63.8799 58.5602 65.0999 58.0502V57.5802ZM46.2999 58.0702L45.5599 58.2102L45.5399 58.8302C46.0799 58.9002 46.3799 58.6202 46.2999 58.0702ZM75.8799 59.1002C75.0799 59.9702 77.1699 59.9202 76.3499 59.1002H75.8799ZM93.0399 59.3502C92.4899 59.5302 92.9999 60.4602 93.5999 60.0402C93.9599 59.7902 93.6699 59.1402 93.0399 59.3502ZM54.4399 60.3402C55.7499 60.9002 55.8499 59.4702 54.5099 59.9602L54.4399 60.3402ZM83.9299 59.9702C83.5199 59.9302 83.0699 59.9302 83.1699 60.4802L83.8099 60.5502L83.9299 59.9702ZM60.5299 60.3602C59.2199 59.8002 59.1199 61.2302 60.4599 60.7402L60.5299 60.3602ZM43.2099 60.6202C42.9899 60.6702 42.7499 61.0202 42.9199 61.2402L43.7599 61.3002C44.1599 61.0302 43.5999 60.5202 43.2099 60.6202ZM65.1199 60.7402C64.7999 60.6602 63.9199 60.4402 64.1099 61.0502C64.2399 61.4702 65.3199 61.3402 65.1199 60.7402ZM77.4499 60.9902H76.6899V61.6202L77.3299 61.5602L77.4499 60.9802V60.9902ZM83.1199 62.1402C82.6299 62.2902 83.0599 63.0502 83.5599 62.7002C83.8899 62.4702 83.5999 61.9902 83.1199 62.1402ZM68.1199 62.2802C67.1699 62.6002 68.5499 63.7502 68.7999 62.4602C68.7299 62.2402 68.3099 62.2202 68.1199 62.2802ZM11.2099 63.9102C10.5799 63.8802 9.54992 63.8602 9.56992 64.7202C10.0699 65.3102 10.6499 64.5502 11.1899 64.4002L11.2099 63.9102ZM83.7999 64.9202C82.7599 64.7802 82.7499 65.6902 83.7999 65.5602V64.9202ZM65.4999 65.0502L64.7499 65.0702L64.6099 65.6902H65.3699L65.4999 65.0602V65.0502ZM61.4299 65.9402L61.3099 65.3602C60.6599 64.9002 60.3099 66.2102 61.4299 65.9402ZM95.1999 65.4502C94.5799 65.6502 94.8699 67.0702 95.6899 66.2002C95.8899 65.7702 95.7199 65.2802 95.1999 65.4502ZM92.9599 65.6902C92.4299 65.6502 91.8699 65.6302 92.1299 66.3302C92.2899 66.5702 92.7199 66.3302 92.9499 66.3102L92.9699 65.6902H92.9599ZM85.8199 65.9602C85.6599 65.8602 84.9699 65.9802 84.7799 66.0902C83.9099 66.6102 85.7699 67.2602 85.9399 66.4802L85.8099 65.9502L85.8199 65.9602ZM114.43 66.0802L113.62 66.0602C113.25 66.5202 114.06 66.6802 114.36 66.4602L114.43 66.0802ZM90.4899 66.4602C89.9399 66.6402 90.4499 67.5702 91.0499 67.1502C91.4099 66.9002 91.1199 66.2502 90.4899 66.4602ZM7.38992 66.9702C7.12992 66.6702 5.80992 67.0402 6.26992 67.6402C6.76992 68.2902 7.77992 67.4102 7.38992 66.9702ZM18.2099 66.9602L17.4599 67.1002L17.4399 67.5902H18.1999V66.9602H18.2099ZM49.4699 67.3502H48.7299V67.8302H49.4699V67.3502ZM111.42 68.3202C112.09 68.9502 112.77 67.5602 111.83 67.5802C111.4 67.5802 111.14 68.0602 111.42 68.3202ZM62.3999 67.7302C61.9099 67.8802 62.3399 68.6402 62.8399 68.2902C63.1699 68.0602 62.8799 67.5802 62.3999 67.7302ZM109.2 69.2102C109.28 69.1602 109.62 68.5802 109.62 68.4102C109.64 67.4102 107.7 68.4102 108.35 69.2202C108.44 69.2802 109.09 69.2702 109.19 69.2102H109.2ZM115.84 68.1002C115.31 67.9902 114.86 68.1902 114.7 68.7302L115.83 68.5902L115.85 68.1002H115.84ZM35.7399 69.1002C36.0999 68.7002 35.2899 67.9002 34.9199 68.6102C34.6199 69.1802 35.5299 69.3402 35.7399 69.1002ZM66.6399 68.6102C66.1799 68.5102 65.0499 68.3902 65.2699 69.1502C65.4699 69.8202 67.0099 69.4702 66.6399 68.6102ZM83.2599 68.6502C82.4699 68.3402 82.0099 69.4002 82.8499 69.3802C83.2899 69.3802 83.1799 69.0202 83.5499 68.9802C83.5799 68.9502 83.2799 68.6502 83.2599 68.6402V68.6502ZM5.15992 69.0702C5.06992 68.9802 5.01992 68.7802 4.90992 68.7602C4.04992 68.5502 3.83992 70.2802 5.35992 69.3702C5.44992 69.0502 5.23992 69.1602 5.15992 69.0702ZM7.26992 68.8602C7.02992 68.6202 6.21992 69.3702 6.37992 69.4902L7.24992 69.3402L7.26992 68.8502V68.8602ZM37.5199 69.2502C37.2199 69.1202 36.9499 69.0902 36.6599 69.2602L36.6399 69.7502L37.4599 69.6302L37.5299 69.2502H37.5199ZM84.1799 69.8802C83.5299 69.8102 83.1799 70.0002 83.0399 70.6402C83.2899 70.8202 84.3599 70.3402 84.1799 69.8802ZM76.0599 70.6302C77.3699 71.1902 77.4699 69.7602 76.1299 70.2502L76.0599 70.6302ZM67.5299 70.6402C66.7799 70.4902 66.3699 71.1102 66.6599 71.7702C67.4299 72.0002 67.5899 71.2802 67.5299 70.6402ZM32.9399 71.6402C33.3199 70.9402 32.5899 70.8402 32.0799 71.0302V71.5102L32.9399 71.6402ZM96.8999 71.0202C95.6799 70.8002 96.1699 72.0302 96.7799 71.6002L96.8999 71.0202ZM121.91 71.0502C120.99 71.2902 121.11 72.3502 122.24 72.0102C122.53 71.9202 122.89 71.2802 122.59 71.0802C122.37 70.9802 122.14 70.9902 121.92 71.0502H121.91ZM114.2 71.7602C115.64 72.3602 115.43 70.8002 114.2 71.2902V71.7602ZM51.5099 71.5302C51.3799 71.3802 50.6899 71.5302 50.5199 71.6702V72.1402C50.9599 72.5602 51.8399 71.9002 51.5099 71.5302ZM60.5299 71.5402C60.2799 71.4702 59.8699 71.3002 59.6399 71.4602L59.5199 72.0402L60.4599 71.9302L60.5299 71.5502V71.5402ZM78.3199 71.6702C78.1899 71.4702 77.2399 71.4002 77.1999 71.9702C77.1399 72.8802 78.6899 72.2602 78.3199 71.6702ZM27.1899 72.1802C26.7599 72.3202 26.9399 73.1902 27.6199 72.8602C28.1299 72.6102 27.8499 71.9602 27.1899 72.1802ZM82.3999 73.3002C82.5399 72.2202 80.9199 72.3602 81.3999 73.4202L82.3999 73.3002ZM47.4399 72.8102C47.1399 72.6802 46.8699 72.6502 46.5799 72.8202L46.5599 73.3102L47.3799 73.1902L47.4499 72.8102H47.4399ZM100.33 72.6702L99.6199 72.7902L99.6899 73.3802H100.22L100.34 72.6702H100.33ZM71.4999 74.1602C72.2799 74.9002 73.4199 72.8402 72.1899 72.8302C71.5499 72.8302 71.1699 73.8502 71.4999 74.1602ZM83.5499 72.9202C82.3499 72.3302 82.1599 73.7602 83.1399 73.4702C83.1799 73.4602 83.6699 73.0502 83.5499 72.9202ZM109.85 72.9402C108.67 72.4502 108.39 73.9502 109.79 73.4402L109.85 72.9402ZM53.4199 72.9202L52.7799 72.9802L52.6599 73.5602L53.2999 73.5002L53.4199 72.9202ZM98.9299 72.9202L98.2899 72.9802L98.1699 73.5602L98.8099 73.5002L98.9299 72.9202ZM4.09992 73.3002L4.21992 73.8802C4.82992 74.3102 5.31992 73.0902 4.09992 73.3002ZM66.2299 73.3402C64.6599 72.8302 65.1199 74.9002 66.4899 73.9202C66.6599 73.7902 66.2899 73.3602 66.2299 73.3402ZM86.8499 73.3002C86.2599 73.3402 85.4899 73.6102 85.7099 74.3202C86.2799 74.4602 86.3899 73.9502 86.8299 73.9302L86.8499 73.3102V73.3002ZM122.07 73.3002L121.24 73.4202L121.05 74.6902L121.29 74.4002L121.68 74.3102L121.43 74.0602C121.9 74.0002 122.15 73.8002 122.06 73.3002H122.07ZM13.6399 74.4402C13.9199 74.7802 15.0999 74.2802 14.6499 73.5602C14.3399 73.6302 13.2499 73.9702 13.6399 74.4402ZM37.5199 73.8202C37.2199 73.6902 36.9499 73.6602 36.6599 73.8302L36.6399 74.3202L37.4599 74.2002L37.5299 73.8202H37.5199ZM108.34 73.6902C107.12 73.4702 107.61 74.7002 108.22 74.2702L108.34 73.6902ZM34.3199 73.8502C34.1599 73.7902 34.0099 73.8002 33.8499 73.8102L33.8999 74.3302L34.6099 74.4502C34.7199 74.2902 34.3999 73.8902 34.3199 73.8602V73.8502ZM100.82 74.2102C100.28 73.8602 99.3899 74.9502 99.1499 75.3402C98.8799 75.7702 99.2699 75.8702 99.6599 75.7502C100.08 75.6202 100.1 75.3702 100.35 75.1602C100.55 74.9902 100.94 75.0602 100.96 74.6402C100.96 74.5702 100.86 74.2302 100.82 74.2102ZM48.6799 74.6602C48.3299 74.9502 47.3199 74.3002 47.6299 75.3402C48.0099 75.7002 48.3399 75.1902 48.6999 75.1402C48.9399 75.1102 49.1799 75.2902 49.4799 75.1402C50.0099 74.8802 49.7599 74.0502 48.9199 74.3302C48.7599 74.3802 48.7499 74.5902 48.6699 74.6502L48.6799 74.6602ZM123.47 75.0702C123.86 75.3902 124.7 74.9702 124.61 74.5102C124.51 73.9802 123.21 74.6702 123.47 75.0702ZM39.5399 74.7202C39.0099 74.4502 38.3099 74.1402 38.4299 75.0702C38.8499 75.1302 39.1199 75.3702 39.5499 75.1902V74.7102L39.5399 74.7202ZM116.13 74.7902C116.04 74.7202 116.02 74.4902 115.89 74.4502C115.6 74.3602 114.4 75.1202 114.75 75.5902C115.17 76.1702 115.97 75.0902 116.48 75.2002V74.8202C116.37 74.8202 116.22 74.8502 116.14 74.7902H116.13ZM108.37 76.0102C108.59 75.7502 110.15 75.0202 109.35 74.6302C108.49 74.3702 108.25 75.5102 107.64 75.8402L107.57 76.3502H108.26C108.39 76.3202 108.3 76.1002 108.37 76.0102ZM66.7699 74.9602C66.4599 74.5202 65.0399 75.4102 65.1199 75.7802C65.2299 76.2902 67.0899 75.4202 66.7699 74.9602ZM3.08992 75.8302C3.62992 75.9202 4.29992 75.7102 4.03992 75.0702C3.41992 74.7302 2.72992 75.1202 3.08992 75.8302ZM28.4999 75.0802L27.3799 75.3502L27.3599 75.8402C27.9999 76.0202 27.9499 75.5602 28.4099 75.4602L28.4999 75.0802ZM52.0099 75.2202L51.1999 75.2002C50.8299 75.6602 51.6399 75.8202 51.9399 75.6002L52.0099 75.2202ZM85.5599 75.3502C84.8599 74.9802 84.1799 75.7102 83.5699 76.0602C83.1799 76.2802 82.4199 76.4002 82.2999 76.8202C82.0399 77.7002 82.9499 77.6102 83.4699 77.2202C83.8299 76.9502 84.3699 76.3902 84.7299 76.1302C84.8799 76.0202 85.4999 75.9202 85.5599 75.8202V75.3502ZM11.4499 75.3502L10.6999 75.3902L10.6299 75.9802C11.1399 76.3202 11.8199 75.9502 11.4499 75.3502ZM72.4899 76.2202C72.4299 76.1402 72.8599 75.2702 72.0499 75.3402C71.6199 75.3702 71.1699 75.9202 71.3899 76.3702C71.9199 76.5402 72.7699 76.9902 72.4799 77.6302H73.2399C73.2399 77.6302 73.0799 76.5402 73.0499 76.4902C72.8999 76.2802 72.5099 76.2602 72.4799 76.2202H72.4899ZM122.41 75.3602C122.26 75.3902 122.11 75.4702 122 75.5802C121.47 76.4602 123.73 76.5602 123.16 75.4502C123.03 75.2602 122.62 75.3102 122.42 75.3602H122.41ZM29.7799 76.4802C29.7799 76.4802 30.7199 76.8002 30.5299 76.0602C30.4399 75.7002 29.7599 75.5602 29.4499 75.7002C29.1699 75.8302 29.1699 76.0002 28.9999 76.1502C28.7799 76.3402 28.2999 76.2402 28.5199 76.9102C28.6299 77.2302 29.2399 77.1402 29.4899 77.0302C29.7799 76.9002 29.7399 76.5002 29.7699 76.4802H29.7799ZM43.4999 76.2202C44.5399 76.3602 44.5499 75.4502 43.4999 75.5802V76.2202ZM47.6799 76.3302C47.9899 75.8402 47.5799 75.4402 47.0499 75.6402L46.9299 76.4802C46.1799 76.2902 46.0699 76.8602 46.0399 77.4902L46.7799 77.6002C47.1299 77.1202 47.1499 76.9402 47.0499 76.3402L47.6699 76.3202L47.6799 76.3302ZM64.4399 76.1402C64.1799 75.8402 63.8199 75.8702 63.4699 75.9902C63.3499 76.3402 63.5499 76.7202 63.8399 76.9102C64.2099 77.1402 64.7399 76.5002 64.4299 76.1502L64.4399 76.1402ZM111.53 75.8502C111.25 76.0202 111.63 76.9202 112.16 76.5402C112.61 76.2202 112 75.5602 111.53 75.8502ZM22.3799 76.7102C22.4599 76.5302 22.6399 76.1802 22.4099 76.0202L21.5299 76.1102L21.5099 76.7302L22.3799 76.7102ZM95.3599 75.9802C94.8199 75.9202 94.1399 75.8602 94.4099 76.6102C94.9299 76.9202 95.6899 76.6402 95.3599 75.9802ZM124.34 77.0102C124.42 77.0602 124.6 77.6802 125.13 77.3102C125.87 76.7902 124.08 75.5902 123.49 76.1102C123.45 76.1602 123.45 76.5402 123.47 76.6502C123.51 76.8002 123.78 76.6502 123.73 76.8602C122.94 76.5802 123.11 77.6902 123.71 77.4602C123.82 77.4202 123.99 76.7802 124.35 77.0102H124.34ZM74.3699 76.1202C74.2399 76.0502 74.0399 76.1102 73.8899 76.0902V76.6002H74.4499C74.5799 77.5102 75.7599 77.1002 75.1599 76.6802C75.0299 76.5902 74.7599 76.6302 74.5799 76.4902C74.4699 76.4002 74.4399 76.1602 74.3799 76.1302L74.3699 76.1202ZM88.2399 76.1102L87.6799 76.2302C87.0199 77.3802 88.7199 77.1902 88.2399 76.1102ZM78.3199 77.1002C78.9399 75.9102 77.2399 75.9102 77.3199 76.9902L78.3199 77.1002ZM105.92 77.6202C106.54 77.6902 107.94 77.2002 107.33 76.4002C106.83 75.7402 105.78 77.0602 105.92 77.6202ZM113.79 76.2402C113.68 76.1702 113.04 76.1902 112.91 76.2802C112.37 77.2102 113.1 77.4002 113.92 77.1002C114 77.0102 113.87 76.3002 113.79 76.2402ZM14.9599 77.1902C14.6799 76.7002 14.3399 76.1002 13.6399 76.4202C12.5299 76.9202 14.0299 78.0302 14.8099 77.8702C14.8299 77.8702 15.1099 77.6102 15.1199 77.5902C15.2899 77.2202 15.0099 77.2702 14.9599 77.1902ZM41.4499 76.5002H40.4699C40.2599 77.2002 40.9499 77.1002 41.4599 76.9802V76.5002H41.4499ZM49.6099 76.3502L49.7299 77.0602L50.3199 76.9902V76.4702L49.6099 76.3502ZM54.6899 76.3502C54.1199 76.3502 53.6299 76.5102 53.5499 77.1102C54.0899 77.1102 54.8799 77.0302 54.6899 76.3502ZM115.58 76.4802H114.56V77.1102L115.43 77.0902L115.58 76.4702V76.4802ZM23.7999 77.1102L23.6799 76.5302L23.2399 76.4902L23.0899 76.6002L23.0299 77.1102H23.7899H23.7999ZM33.5599 76.6402C33.4299 76.4902 32.8599 76.4102 32.6899 76.5402C32.1799 76.9002 32.9599 77.7902 33.4999 77.5102C33.7399 77.3702 33.6999 76.8002 33.5599 76.6402ZM35.0699 76.4902C34.9299 76.5402 34.8599 76.6402 34.8499 76.7902L34.9799 77.1802C35.9799 77.3302 35.9699 76.2002 35.0599 76.4902H35.0699ZM52.2599 76.6202C52.1399 76.4202 51.4999 76.5102 51.3999 76.8102C51.0899 77.7302 52.7599 77.4202 52.2599 76.6202ZM62.2899 76.5002C61.3599 76.6102 61.0899 77.4402 62.0099 77.4902C62.8699 77.5402 62.9599 76.4202 62.2899 76.5002ZM80.4699 77.2102C80.8599 76.8402 80.5699 76.3402 79.9499 76.4802C79.8499 76.5002 79.8599 76.6902 79.7699 76.7302C79.5699 76.8302 79.2299 76.8602 79.0799 77.0402C78.7599 77.4502 79.0199 77.8402 79.5399 77.7602C79.8299 77.7102 79.7899 77.4702 79.9599 77.3702C80.0799 77.2902 80.3399 77.3402 80.4699 77.2102ZM110.24 76.4802L109.6 76.5402L109.48 77.1202L110.12 77.0602L110.24 76.4802ZM84.3199 77.6102C84.4799 77.8702 86.1099 77.3702 85.6499 76.7202C85.0099 76.3902 84.0899 76.8102 84.3199 77.6102ZM117.1 76.7402L115.84 76.6102C115.84 77.3902 116.39 77.7202 117.09 77.3502V76.7402H117.1ZM40.1699 77.0102C39.9199 76.5902 38.6899 76.6802 38.9299 77.4202C39.0799 77.8702 40.4499 77.5002 40.1699 77.0102ZM57.0099 77.5902C57.4199 78.3102 59.0199 77.5002 57.9099 76.7402C57.5199 76.7602 56.7399 77.1102 57.0099 77.5902ZM18.8099 76.8902C18.2999 76.9202 17.5399 77.4602 18.0699 77.8202C18.2399 77.9402 19.6799 77.9302 19.7999 77.7602C20.1099 77.1802 19.2899 76.8702 18.8099 76.8902ZM24.5799 77.4802C25.8699 78.0202 26.5399 76.6002 24.7799 76.8802L24.5899 77.0702V77.4902L24.5799 77.4802ZM71.8499 77.6202C71.9499 77.0702 71.5899 76.8402 71.0899 76.8602L71.2099 77.5702L71.8499 77.6202ZM77.1699 76.8802H76.4499C76.0799 77.5402 76.5299 77.8402 77.1399 77.5102C77.3799 77.3302 77.2799 77.1102 77.1699 76.8802ZM48.8099 77.0102C48.3299 77.1102 48.1099 77.5602 48.5399 77.8602C48.8499 77.9602 49.2599 77.6402 49.4699 77.4102L49.3599 77.0402C49.2099 76.9302 48.9899 76.9702 48.8099 77.0102ZM89.7299 77.0002C89.2399 77.1502 89.6699 77.9102 90.1699 77.5602C90.4999 77.3302 90.2099 76.8502 89.7299 77.0002ZM16.5499 77.3702C15.4999 77.2902 15.4899 78.1202 16.5499 78.0102V77.3702Z" fill="white"/>
<path d="M1.18013 78.7604C1.10013 77.6004 2.28013 77.0704 3.26013 77.7504C3.72013 76.8004 4.94013 77.2704 3.97013 78.0704C3.96013 78.5104 6.26013 78.1404 6.57013 78.1304C10.4201 78.0504 14.2901 78.1504 18.1501 78.1404C54.1501 78.0904 90.1301 78.2304 126.21 78.0104C127.36 77.8604 126.53 76.1204 126.25 75.4404C125.47 73.5604 124.38 71.6804 123.68 69.6604C121.89 68.0404 119.9 66.5204 117.99 64.9904C108.19 57.1604 98.0101 49.6304 88.1801 41.6804C87.3501 41.4204 86.1801 39.8804 85.3901 39.9004C84.6001 39.9204 84.0001 40.8004 83.3801 41.2104C82.4501 41.8104 81.4701 42.1804 80.6601 43.0004C80.4501 43.2104 80.3601 43.6404 80.2001 43.8104C78.1401 45.9204 75.8701 47.5004 73.5101 49.2604C71.8001 50.5304 69.7501 52.3004 67.8901 53.2904C66.7801 53.8904 65.9101 53.6604 64.7401 53.3004C62.9701 52.7604 62.0301 51.7004 60.6001 50.7004C57.6401 48.6504 55.1601 47.0904 52.7101 44.4904C52.1701 43.9204 51.2601 42.6504 50.7501 42.2604C49.8701 41.6104 48.2901 41.1704 47.2801 40.5204C46.8901 40.2704 45.8001 39.4804 45.5401 39.2104C45.4101 39.0704 45.4401 38.8304 45.4001 38.7804C45.3301 38.7104 44.4301 38.7504 44.2301 38.7904C43.8001 38.8804 43.6101 39.6404 42.8801 39.3904C42.6801 39.2504 42.9101 38.0004 43.4201 38.1304L43.5101 37.8804L41.1001 36.2804C40.7701 35.3704 39.8801 35.5604 39.0601 35.5904C39.2301 34.6204 38.8901 34.7204 38.4201 34.2604C38.2801 34.1204 38.2201 33.8904 38.0801 33.8104C37.7501 33.5904 37.0801 33.6304 36.7401 33.3104C36.5401 33.1304 36.5501 32.8404 36.2601 32.6104C35.5901 32.0704 34.0301 31.4504 33.4201 31.0004C32.2301 30.1004 30.9301 28.7904 29.5601 28.1204C29.2801 27.9804 28.8001 27.9904 28.5801 27.8304C28.4001 27.7004 28.1601 27.0404 28.0401 26.9404C27.7101 26.6704 26.7301 26.3004 26.2501 25.9604C25.1301 25.1804 24.4101 24.7704 23.3001 24.0804C23.0401 23.9204 22.3001 23.0304 21.9301 22.7504C20.2501 21.4904 18.3801 20.4404 16.7601 19.2004C14.0001 17.0704 10.8601 15.1404 8.13013 12.9604C7.66013 12.5804 7.26013 12.4204 6.91013 12.1504C6.71013 12.0004 6.73013 11.7104 6.62013 11.6204C6.49013 11.5104 5.96013 11.4804 5.79013 11.3004C5.65013 11.1504 5.53013 10.3904 5.41013 10.0904C5.34013 9.92041 5.14013 9.99041 5.11013 9.74041C5.06013 9.25041 5.64013 9.23041 6.01013 9.35041C6.31013 10.1204 6.83013 10.4604 7.47013 10.9404C8.69013 11.8404 10.0401 12.6104 11.2801 13.4904C23.8701 22.3804 36.5701 31.1204 49.1901 40.0004L49.6101 40.0304C49.7201 39.3604 49.4601 38.7004 49.4801 38.0604C49.5301 36.3604 50.9701 34.0504 52.4301 33.1204C55.3101 31.2904 58.8201 31.3204 61.8101 32.8704C62.5401 33.2504 63.7401 34.3904 64.4201 34.4504C65.4901 34.5404 66.0901 33.6004 66.9201 33.1204C70.8701 30.8504 75.6801 31.0604 78.6201 34.7404C79.5801 35.9504 79.6001 36.1304 80.0101 37.6404C80.0401 37.7404 80.2301 37.7404 80.2501 37.8304C80.3201 38.1504 80.1501 38.7904 80.3101 39.0204C80.7601 39.3504 81.3101 39.0004 81.7101 38.7604C85.9701 36.1504 90.3301 32.6904 94.5001 29.8204C102.82 24.0904 111.21 18.4404 119.47 12.6104C120.52 11.8704 122.47 10.9304 123.08 9.84041C123.23 9.57041 123.29 9.11041 123.44 8.83041C124.19 7.43041 125.82 4.74041 126 3.26041C126.06 2.79041 125.99 2.29041 126.01 1.81041C125.33 2.24041 124.35 2.28041 123.54 2.32041C117.51 2.63041 111.25 2.18041 105.22 2.18041C78.4301 2.18041 51.7201 2.40042 24.7601 2.05042C18.5301 1.97042 12.2801 2.16041 6.07013 1.93041C5.42013 1.91041 4.67013 2.02041 3.92013 1.92041C3.45013 1.86041 2.74013 1.82041 2.82013 1.17041L127.86 1.29041L127.92 78.6904L1.18013 78.7404V78.7604ZM127.02 8.68041L126.54 8.70041L125.63 10.4904C124.12 12.8004 121.69 14.1404 119.54 15.7404C117 17.6304 114.48 19.6004 111.96 21.5004C111.2 22.0704 109.57 22.9404 109.02 23.5704C108.98 23.6204 108.83 23.8904 108.85 23.9104C109.43 23.8904 109.55 24.3404 109.36 24.8004C108.84 24.8204 108.52 24.5804 108.6 24.0404C108.37 23.8004 106.77 25.2204 106.48 25.4204C105.57 26.0504 104.55 26.6004 103.81 27.3804C102.95 28.2904 103.39 27.7504 102.45 28.2504C101.88 28.5504 101.13 29.2904 100.62 29.6304C99.2701 30.5404 97.8601 31.3704 96.5201 32.3004C96.4101 32.6404 96.7401 32.5404 96.8401 32.6704C97.0801 32.9604 96.3401 33.2604 96.2701 33.1804L96.2101 32.6704C95.9201 33.0604 95.3401 33.1504 95.0101 33.3804C94.4001 33.8004 91.5601 35.7504 91.2301 36.1404C91.0201 36.3804 90.9501 36.8304 90.9201 36.8604C90.9101 36.8704 90.7101 36.7504 90.5501 36.7904C89.5601 37.0204 89.0701 37.5704 88.3001 38.1104C87.2601 38.8404 86.3901 38.7904 87.8101 40.1604C88.5701 40.8904 89.7001 41.6904 90.5501 42.3704C96.1301 46.8204 101.79 51.1104 107.49 55.4204C108.46 56.1504 109.26 56.9204 110.17 57.6804C112.55 59.6704 115.32 61.5604 117.8 63.5204C119.63 64.9704 121.9 66.6104 123.67 68.1404C125 69.2804 125.56 70.4704 126.29 71.9404C126.39 72.1304 126.52 72.9104 126.7 72.9204C127.16 72.7704 127.12 72.2604 127.15 71.8504C127.29 69.7404 127.15 67.4804 127.15 65.3804C127.07 46.8704 127.18 28.3004 127.15 9.76041L127.01 8.69041L127.02 8.68041Z" fill="black"/>
<path d="M2.29984 1.3301C2.60984 1.5301 2.25984 2.17009 2.24984 2.39009C2.24984 2.68009 2.43984 3.11009 2.44984 3.53009C2.47984 4.73009 2.14984 6.36009 2.44984 7.45009C2.47984 7.55009 2.89984 7.5401 2.69984 7.7901C2.68984 7.8101 2.51984 7.7701 2.48984 7.8201C2.38984 7.9601 2.39984 10.9201 2.44984 11.2901C2.47984 11.5301 2.68984 11.4101 2.71984 11.6501C2.82984 12.4901 2.48984 12.7301 2.44984 13.0501C2.39984 13.3801 2.34984 13.8901 2.71984 13.9501L2.45984 14.0901V14.5601L2.71984 14.7701C2.39984 14.7001 2.39984 15.0601 2.46984 15.3201C2.49984 15.4401 2.81984 15.3501 2.71984 15.7201C2.70984 15.7801 2.47984 15.7201 2.44984 15.9701C2.32984 16.9501 2.32984 20.0801 2.44984 21.0701C2.47984 21.3201 2.72984 21.2001 2.71984 21.4401C2.45984 21.9001 2.31984 22.7401 2.45984 23.3301C2.48984 23.4501 2.80984 23.3601 2.70984 23.7301C2.69984 23.7901 2.46984 23.7301 2.43984 23.9801C2.34984 24.7301 2.34984 27.0601 2.43984 27.8101C2.46984 28.0601 2.71984 27.9401 2.70984 28.1801C2.48984 28.6101 2.30984 29.1001 2.44984 29.6801C2.47984 29.7901 2.75984 29.6601 2.70984 30.3501C2.67984 30.7701 2.46984 30.5901 2.43984 30.8401C2.37984 31.2801 2.37984 32.7001 2.43984 33.1401C2.46984 33.4001 2.74984 33.2301 2.71984 33.6401C2.70984 33.8101 2.00984 34.2601 2.71984 34.5301C2.30984 34.6101 2.30984 35.3401 2.71984 35.4201C2.73984 35.5401 2.53984 35.4401 2.49984 35.5101C2.34984 35.7401 2.49984 40.1501 2.46984 40.8901C2.45984 41.3601 2.30984 41.8601 2.33984 42.3401C2.50984 42.4301 2.95984 42.1501 2.84984 42.5901H2.33984C2.50984 44.1301 2.46984 45.6801 2.46984 47.2301C2.50984 54.1501 2.35984 61.2001 2.33984 68.1701C2.33984 70.1901 2.49984 72.2801 2.46984 74.2601C2.45984 74.9301 2.02984 75.7701 2.07984 76.4901H1.57984C1.57984 67.8801 1.57984 59.2601 1.57984 50.6501C1.57984 36.0501 1.64984 21.4001 1.58984 6.7201C1.58984 5.6601 1.43984 4.3501 1.45984 3.3001C1.46984 2.7201 1.73984 2.10009 1.51984 1.46009C1.62984 1.31009 2.20984 1.2701 2.33984 1.3601L2.29984 1.3301Z" fill="black"/>
<path d="M85.5599 75.3501V75.8201C85.4899 75.9201 84.8799 76.0201 84.7299 76.1301C84.3699 76.3901 83.8299 76.9401 83.4699 77.2201C82.9599 77.6101 82.0499 77.7001 82.2999 76.8201C82.4199 76.3901 83.1899 76.2801 83.5699 76.0601C84.1799 75.7201 84.8599 74.9801 85.5599 75.3501Z" fill="black"/>
<path d="M4.40973 5.96035C4.70973 6.42035 4.87973 7.12035 5.11973 7.70035C5.16973 7.82035 5.54973 7.92035 5.35973 8.43035C4.54973 8.52035 4.28973 8.08035 4.01973 7.42035C3.93973 7.22035 4.01973 6.94035 3.92973 6.81035C3.87973 6.72035 3.59973 6.73035 3.43973 6.35035C2.98973 5.30035 3.76973 4.99035 4.39973 5.97035L4.40973 5.96035Z" fill="black"/>
<path d="M72.49 76.2199C72.49 76.2199 72.91 76.27 73.06 76.49C73.09 76.54 73.29 77.5899 73.25 77.6299H72.49C72.78 76.9899 71.93 76.5399 71.4 76.3699C71.18 75.9199 71.63 75.3799 72.06 75.3399C72.87 75.2699 72.44 76.1399 72.5 76.2199H72.49Z" fill="black"/>
<path d="M124.34 77.0103C123.98 76.7803 123.81 77.4203 123.7 77.4603C123.1 77.6803 122.93 76.5803 123.72 76.8603C123.77 76.6503 123.5 76.8003 123.46 76.6503C123.43 76.5503 123.43 76.1703 123.48 76.1103C124.07 75.5903 125.86 76.7903 125.12 77.3103C124.59 77.6803 124.41 77.0603 124.33 77.0103H124.34Z" fill="black"/>
<path d="M14.9598 77.19C15.0098 77.27 15.2898 77.22 15.1198 77.59C15.1198 77.61 14.8298 77.86 14.8098 77.87C14.0198 78.03 12.5298 76.92 13.6398 76.42C14.3398 76.1 14.6798 76.7 14.9598 77.19Z" fill="black"/>
<path d="M29.78 76.48C29.78 76.48 29.78 76.9 29.5 77.03C29.24 77.14 28.63 77.23 28.53 76.91C28.31 76.25 28.79 76.34 29.01 76.15C29.18 76 29.18 75.83 29.46 75.7C29.77 75.56 30.44 75.7 30.54 76.06C30.73 76.8 29.83 76.45 29.79 76.48H29.78Z" fill="black"/>
<path d="M108.37 76.0103C108.3 76.0903 108.39 76.3203 108.26 76.3603H107.57L107.64 75.8503C108.26 75.5203 108.49 74.3803 109.35 74.6403C110.15 75.0303 108.59 75.7603 108.37 76.0203V76.0103Z" fill="black"/>
<path d="M100.82 74.2104C100.82 74.2104 100.96 74.5704 100.96 74.6404C100.93 75.0504 100.55 74.9904 100.35 75.1604C100.1 75.3704 100.08 75.6204 99.6597 75.7504C99.2797 75.8704 98.8897 75.7704 99.1497 75.3404C99.3897 74.9504 100.28 73.8604 100.82 74.2104Z" fill="black"/>
<path d="M18.8101 76.8901C19.2901 76.8601 20.1101 77.1801 19.8001 77.7601C19.6801 77.9301 18.2401 77.9401 18.0701 77.8201C17.5401 77.4601 18.3001 76.9201 18.8101 76.8901Z" fill="black"/>
<path d="M47.6798 76.3303L47.0598 76.3503C47.1598 76.9503 47.1398 77.1303 46.7898 77.6103L46.0498 77.5003C46.0798 76.8703 46.1998 76.3003 46.9398 76.4903L47.0598 75.6503C47.5898 75.4503 47.9898 75.8503 47.6898 76.3403L47.6798 76.3303Z" fill="black"/>
<path d="M48.6799 74.6602C48.7599 74.6002 48.7599 74.3901 48.9299 74.3401C49.7699 74.0601 50.0099 74.8901 49.4899 75.1501C49.1899 75.3001 48.9499 75.1101 48.7099 75.1501C48.3499 75.2001 48.0199 75.7102 47.6399 75.3502C47.3299 74.3102 48.3399 74.9602 48.6899 74.6702L48.6799 74.6602Z" fill="black"/>
<path d="M71.4998 74.1601C71.1698 73.8501 71.5498 72.8301 72.1898 72.8301C73.4198 72.8401 72.2698 74.8901 71.4998 74.1601Z" fill="black"/>
<path d="M105.92 77.6201C105.78 77.0701 106.83 75.7501 107.33 76.4001C107.94 77.2001 106.55 77.6901 105.92 77.6201Z" fill="black"/>
<path d="M116.13 74.7904C116.21 74.8504 116.37 74.8304 116.47 74.8204V75.2004C115.97 75.0904 115.16 76.1704 114.75 75.5904C114.4 75.1104 115.6 74.3504 115.89 74.4504C116.03 74.4904 116.04 74.7204 116.13 74.7904Z" fill="black"/>
<path d="M109.2 69.2103C109.09 69.2703 108.45 69.2803 108.36 69.2203C107.7 68.4103 109.64 67.4103 109.63 68.4103C109.63 68.5703 109.29 69.1603 109.21 69.2103H109.2Z" fill="black"/>
<path d="M80.4701 77.2101C80.3401 77.3301 80.0901 77.29 79.9601 77.37C79.7901 77.47 79.8301 77.71 79.5401 77.76C79.0301 77.85 78.7601 77.45 79.0801 77.04C79.2201 76.86 79.56 76.83 79.77 76.73C79.85 76.69 79.84 76.5 79.95 76.48C80.56 76.35 80.8601 76.8501 80.4701 77.2101Z" fill="black"/>
<path d="M11.2101 63.9103L11.1901 64.4003C10.6501 64.5503 10.0701 65.3103 9.57011 64.7203C9.55011 63.8703 10.5801 63.8803 11.2101 63.9103Z" fill="black"/>
<path d="M121.91 71.0501C122.14 70.9901 122.36 70.9801 122.58 71.0801C122.88 71.2801 122.52 71.9201 122.23 72.0101C121.1 72.3501 120.98 71.2901 121.9 71.0501H121.91Z" fill="black"/>
<path d="M84.3197 77.6104C84.0997 76.8104 85.0097 76.4004 85.6497 76.7204C86.1097 77.3704 84.4697 77.8704 84.3197 77.6104Z" fill="black"/>
<path d="M66.6398 68.6099C66.9998 69.4699 65.4598 69.8199 65.2698 69.1499C65.0498 68.3899 66.1798 68.5099 66.6398 68.6099Z" fill="black"/>
<path d="M57.0097 77.5902C56.7397 77.1202 57.5197 76.7602 57.9097 76.7402C59.0197 77.4902 57.4297 78.3102 57.0097 77.5902Z" fill="black"/>
<path d="M66.7699 74.9603C67.0899 75.4203 65.23 76.3003 65.12 75.7803C65.04 75.4103 66.4599 74.5203 66.7699 74.9603Z" fill="black"/>
<path d="M113.79 76.2404C113.88 76.3004 114 77.0104 113.92 77.1004C113.1 77.4004 112.37 77.2104 112.91 76.2804C113.04 76.2004 113.68 76.1704 113.79 76.2404Z" fill="black"/>
<path d="M85.82 65.96L85.95 66.49C85.77 67.26 83.92 66.61 84.79 66.1C84.97 65.99 85.67 65.86 85.83 65.97L85.82 65.96Z" fill="black"/>
<path d="M122.41 75.36C122.62 75.32 123.02 75.27 123.15 75.45C123.72 76.56 121.47 76.46 121.99 75.58C122.1 75.47 122.25 75.39 122.4 75.36H122.41Z" fill="black"/>
<path d="M62.2898 76.5002C62.9598 76.4202 62.8698 77.5402 62.0098 77.4902C61.0798 77.4402 61.3498 76.6002 62.2898 76.5002Z" fill="black"/>
<path d="M81.41 24.6602C80.98 23.9902 83.12 23.2602 82.6 24.4202C82.41 24.8402 81.58 24.9202 81.41 24.6602Z" fill="black"/>
<path d="M7.38983 66.9701C7.76983 67.4101 6.75983 68.3001 6.26983 67.6401C5.80983 67.0401 7.12983 66.6701 7.38983 66.9701Z" fill="black"/>
<path d="M33.5597 76.6404C33.6997 76.8004 33.7397 77.3704 33.4997 77.5104C32.9597 77.7904 32.1797 76.9004 32.6897 76.5404C32.8597 76.4204 33.4197 76.4904 33.5597 76.6404Z" fill="black"/>
<path d="M66.2298 73.3403C66.2898 73.3603 66.6598 73.7903 66.4898 73.9203C65.1098 74.9003 64.6598 72.8403 66.2298 73.3403Z" fill="black"/>
<path d="M22.1699 55.1302L22.2299 54.5002C22.4799 54.4102 23.0699 54.2602 23.2399 54.5002C23.5399 55.4002 22.8099 55.4002 22.1699 55.1302Z" fill="black"/>
<path d="M67.53 70.6403C67.59 71.2703 67.43 72.0003 66.66 71.7703C66.37 71.1103 66.78 70.4903 67.53 70.6403Z" fill="black"/>
<path d="M18.2899 53.2602C18.4599 53.2002 18.9699 53.2002 19.0999 53.3002L19.1599 54.0102C18.5799 54.5502 17.5699 53.4902 18.2799 53.2602H18.2899Z" fill="black"/>
<path d="M117.1 76.7404V77.3504C116.39 77.7204 115.85 77.3904 115.84 76.6104L117.1 76.7404Z" fill="black"/>
<path d="M40.1701 77.0101C40.4501 77.5001 39.0901 77.8702 38.9301 77.4202C38.6801 76.6802 39.9201 76.5901 40.1701 77.0101Z" fill="black"/>
<path d="M64.4398 76.1403C64.7498 76.5003 64.2198 77.1403 63.8498 76.9003C63.5598 76.7203 63.3598 76.3403 63.4798 75.9803C63.8298 75.8603 64.1898 75.8303 64.4498 76.1303L64.4398 76.1403Z" fill="black"/>
<path d="M78.3201 77.1001L77.3201 76.9901C77.2401 75.9101 78.9401 75.9101 78.3201 77.1001Z" fill="black"/>
<path d="M122.07 73.3003C122.16 73.8003 121.91 74.0003 121.44 74.0603L121.69 74.3103L121.3 74.4003L121.06 74.6903L121.25 73.4203L122.08 73.3003H122.07Z" fill="black"/>
<path d="M24.5801 77.4802V77.0602L24.7801 76.8702C26.5401 76.5902 25.8801 78.0202 24.5801 77.4702V77.4802Z" fill="black"/>
<path d="M3.08989 75.8303C2.72989 75.1203 3.41989 74.7303 4.03989 75.0703C4.30989 75.7103 3.62989 75.9203 3.08989 75.8303Z" fill="black"/>
<path d="M78.3199 71.6703C78.6899 72.2603 77.1399 72.8803 77.1999 71.9703C77.2399 71.4003 78.1899 71.4703 78.3199 71.6703Z" fill="black"/>
<path d="M86.85 73.3L86.83 73.92C86.39 73.94 86.28 74.46 85.71 74.31C85.49 73.61 86.27 73.33 86.85 73.29V73.3Z" fill="black"/>
<path d="M77.46 52.3401V51.8701C78.85 51.1001 79.13 53.0201 77.46 52.3401Z" fill="black"/>
<path d="M48.8097 77.0102C48.9797 76.9702 49.1997 76.9402 49.3597 77.0402L49.4697 77.4102C49.2697 77.6402 48.8497 77.9602 48.5397 77.8602C48.1097 77.5602 48.3297 77.1002 48.8097 77.0102Z" fill="black"/>
<path d="M20.5999 25.33C20.8499 25.49 20.7799 26.13 20.2999 26.2C19.2299 26.37 19.7799 24.8 20.5999 25.33Z" fill="black"/>
<path d="M82.3998 73.3001L81.3998 73.4201C80.9098 72.3601 82.5398 72.2201 82.3998 73.3001Z" fill="black"/>
<path d="M91.3999 51.4301C90.1099 51.9601 90.1499 50.4001 91.4399 50.7601C91.6599 50.9101 91.5199 51.2701 91.3999 51.4301Z" fill="black"/>
<path d="M95.1999 65.4501C95.7199 65.2801 95.8899 65.7701 95.6899 66.2001C94.8699 67.0801 94.5799 65.6501 95.1999 65.4501Z" fill="black"/>
<path d="M39.5401 74.7202V75.2002C39.1201 75.3802 38.8401 75.1402 38.4301 75.0802C38.3101 74.1502 39.0101 74.4602 39.5401 74.7302V74.7202Z" fill="black"/>
<path d="M13.6399 74.4401C13.2499 73.9701 14.3399 73.6301 14.6499 73.5601C15.0999 74.2801 13.9299 74.7801 13.6399 74.4401Z" fill="black"/>
<path d="M95.3599 75.9804C95.6899 76.6404 94.9299 76.9204 94.4099 76.6104C94.1399 75.8604 94.8099 75.9204 95.3599 75.9804Z" fill="black"/>
<path d="M5.16002 69.0701C5.24002 69.1601 5.45002 69.05 5.36002 69.37C3.84002 70.28 4.05002 68.55 4.91002 68.76C5.02002 68.79 5.07002 68.9801 5.16002 69.0701Z" fill="black"/>
<path d="M29.4102 33.5504V33.0704C30.1602 32.8304 30.9302 32.8404 30.2002 33.6804L29.4102 33.5504Z" fill="black"/>
<path d="M22.3798 76.71L21.5098 76.73L21.5298 76.11L22.4098 76.02C22.6398 76.17 22.4698 76.52 22.3798 76.71Z" fill="black"/>
<path d="M31.7901 41.2001L31.8201 41.7601C30.6801 42.7101 30.5201 40.9601 31.7901 41.2001Z" fill="black"/>
<path d="M58.2497 50.7004C58.3397 51.4004 58.0497 51.6804 57.3597 51.5904C57.2697 50.8904 57.5597 50.6104 58.2497 50.7004Z" fill="black"/>
<path d="M111.42 68.3203C111.14 68.0603 111.4 67.5903 111.83 67.5803C112.77 67.5603 112.08 68.9503 111.42 68.3203Z" fill="black"/>
<path d="M123.47 75.0704C123.21 74.6704 124.51 73.9804 124.61 74.5104C124.7 74.9704 123.86 75.3904 123.47 75.0704Z" fill="black"/>
<path d="M52.2601 76.6202C52.7701 77.4302 51.1001 77.7402 51.4001 76.8102C51.5001 76.5102 52.1401 76.4202 52.2601 76.6202Z" fill="black"/>
<path d="M51.5098 71.5301C51.8298 71.9101 50.9598 72.5601 50.5098 72.1401V71.6701C50.6898 71.5201 51.3698 71.3801 51.5098 71.5301Z" fill="black"/>
<path d="M11.4499 75.3501C11.8199 75.9501 11.1499 76.3201 10.6299 75.9801L10.6999 75.3901L11.4499 75.3501Z" fill="black"/>
<path d="M74.3699 76.1204C74.4299 76.1604 74.4599 76.4004 74.5699 76.4804C74.7499 76.6204 75.0199 76.5704 75.1499 76.6704C75.7499 77.0904 74.5699 77.5004 74.4399 76.5904H73.8799V76.0904C74.0299 76.1004 74.2299 76.0404 74.3599 76.1204H74.3699Z" fill="black"/>
<path d="M16.2598 31.1702C17.0498 30.9502 16.8698 31.9902 16.3598 32.0502C15.7298 32.1202 15.8098 31.3002 16.2598 31.1702Z" fill="black"/>
<path d="M19.4401 45.14C20.3301 44.88 20.3001 45.89 19.5401 45.89C18.9101 45.89 19.0001 45.27 19.4401 45.14Z" fill="black"/>
<path d="M77.17 76.8804C77.28 77.1104 77.38 77.3304 77.14 77.5104C76.53 77.8404 76.08 77.5404 76.45 76.8904H77.17V76.8804Z" fill="black"/>
<path d="M68.1197 62.2801C68.3097 62.2201 68.7297 62.2402 68.7997 62.4602C68.5497 63.7602 67.1697 62.6001 68.1197 62.2801Z" fill="black"/>
<path d="M26.3201 41.2004L26.2601 41.7004C24.8501 42.2104 25.1401 40.7104 26.3201 41.2004Z" fill="black"/>
<path d="M109.85 72.9402L109.79 73.4402C108.38 73.9502 108.67 72.4502 109.85 72.9402Z" fill="black"/>
<path d="M114.2 71.7602V71.2902C115.43 70.8002 115.64 72.3602 114.2 71.7602Z" fill="black"/>
<path d="M43.2098 60.6202C43.5998 60.5202 44.1598 61.0302 43.7598 61.3002L42.9198 61.2402C42.7498 61.0102 42.9898 60.6702 43.2098 60.6202Z" fill="black"/>
<path d="M83.2601 68.6503C83.2601 68.6503 83.5801 68.9603 83.5501 68.9903C83.1801 69.0303 83.2901 69.3803 82.8501 69.3903C82.0101 69.4003 82.4701 68.3403 83.2601 68.6603V68.6503Z" fill="black"/>
<path d="M115.58 76.48L115.44 77.09L114.57 77.11V76.48H115.58Z" fill="black"/>
<path d="M35.7398 69.1C35.5298 69.34 34.6298 69.18 34.9198 68.61C35.2798 67.91 36.0998 68.7 35.7398 69.1Z" fill="black"/>
<path d="M88.2397 76.1104C88.7197 77.1904 87.0197 77.3803 87.6797 76.2303L88.2397 76.1104Z" fill="black"/>
<path d="M31.38 47.67C32.01 47.46 32.3 48.11 31.94 48.36C31.33 48.78 30.82 47.85 31.38 47.67Z" fill="black"/>
<path d="M93.0401 59.3502C93.6701 59.1402 93.9601 59.7902 93.6001 60.0402C92.9901 60.4602 92.4801 59.5302 93.0401 59.3502Z" fill="black"/>
<path d="M90.4899 66.4601C91.1199 66.2501 91.4099 66.9001 91.0499 67.1501C90.4399 67.5701 89.9299 66.6401 90.4899 66.4601Z" fill="black"/>
<path d="M50.7199 52.63C51.1099 53.3 49.2699 53.26 49.7499 52.5C49.8999 52.27 50.6099 52.44 50.7199 52.63Z" fill="black"/>
<path d="M70.4399 15.5403L70.3798 16.0503C69.0098 16.5203 69.1899 15.1803 70.4399 15.5403Z" fill="black"/>
<path d="M92.9599 65.6904L92.9399 66.3104C92.7099 66.3304 92.2799 66.5704 92.1199 66.3304C91.8599 65.6304 92.4199 65.6504 92.9499 65.6904H92.9599Z" fill="black"/>
<path d="M32.9398 71.6402L32.0898 71.5102V71.0302C32.5898 70.8302 33.3298 70.9302 32.9398 71.6402Z" fill="black"/>
<path d="M41.4498 76.5V76.98C40.9498 77.1 40.2498 77.21 40.4698 76.5H41.4498Z" fill="black"/>
<path d="M54.6898 76.3501C54.8698 77.0301 54.0898 77.1201 53.5498 77.1101C53.6398 76.5101 54.1198 76.3501 54.6898 76.3501Z" fill="black"/>
<path d="M84.18 69.8804C84.36 70.3404 83.28 70.8204 83.04 70.6404C83.19 70.0004 83.53 69.8104 84.18 69.8804Z" fill="black"/>
<path d="M28.4999 75.0801L28.4099 75.4601C27.9399 75.5601 27.9999 76.0301 27.3599 75.8401L27.3799 75.3501L28.4999 75.0801Z" fill="black"/>
<path d="M14.5101 40.68C14.7101 41 14.1901 41.23 13.9501 41.25C13.2501 41.3 13.3501 40.54 13.9501 40.54C14.0501 40.54 14.5001 40.65 14.5201 40.68H14.5101Z" fill="black"/>
<path d="M27.1898 72.18C27.8498 71.96 28.1198 72.62 27.6198 72.86C26.9498 73.19 26.7598 72.32 27.1898 72.18Z" fill="black"/>
<path d="M60.53 71.5403L60.46 71.9203L59.52 72.0303L59.64 71.4503C59.87 71.2903 60.28 71.4503 60.53 71.5303V71.5403Z" fill="black"/>
<path d="M115.84 68.1001L115.82 68.5901L114.69 68.7301C114.85 68.1901 115.3 67.9801 115.83 68.1001H115.84Z" fill="black"/>
<path d="M83.5499 72.9203C83.6699 73.0503 83.1799 73.4603 83.1399 73.4703C82.1699 73.7703 82.3499 72.3303 83.5499 72.9203Z" fill="black"/>
<path d="M35.0699 76.49C35.9699 76.19 35.9799 77.33 34.9899 77.18L34.8599 76.79C34.8599 76.64 34.9299 76.54 35.0799 76.49H35.0699Z" fill="black"/>
<path d="M65.1201 60.7401C65.3101 61.3401 64.2301 61.4701 64.1101 61.0501C63.9201 60.4401 64.8001 60.6601 65.1201 60.7401Z" fill="black"/>
<path d="M60.5298 60.3603L60.4598 60.7403C59.1198 61.2303 59.2198 59.8003 60.5298 60.3603Z" fill="black"/>
<path d="M54.4399 60.34L54.5099 59.9601C55.8499 59.4701 55.7499 60.9 54.4399 60.34Z" fill="black"/>
<path d="M98.4297 3.84005L98.4997 3.46006C99.8397 2.97006 99.7397 4.40005 98.4297 3.84005Z" fill="black"/>
<path d="M111.53 75.8501C112 75.5701 112.61 76.2201 112.16 76.5401C111.63 76.9101 111.25 76.0101 111.53 75.8501Z" fill="black"/>
<path d="M76.0601 70.6301L76.1301 70.2501C77.4701 69.7601 77.3701 71.1901 76.0601 70.6301Z" fill="black"/>
<path d="M65.1001 57.5802V58.0502C63.8801 58.5602 63.8801 57.0702 65.1001 57.5802Z" fill="black"/>
<path d="M27.7 52.6304C27.86 52.6304 27.91 52.6904 27.98 52.8104C27.85 54.2604 26.28 52.7004 27.7 52.6304Z" fill="black"/>
<path d="M49.6099 76.3501L50.3099 76.4701V76.9901L49.7199 77.0601L49.6099 76.3501Z" fill="black"/>
<path d="M37.28 51.9703C37.06 51.7103 38.16 51.1903 38.3 51.6603L38.09 52.0903C37.73 52.3503 37.62 52.0403 37.28 51.9703Z" fill="black"/>
<path d="M100.33 72.6704L100.21 73.3804L99.6901 73.3704L99.6201 72.7904L100.33 72.6704Z" fill="black"/>
<path d="M75.8799 59.1001H76.3499C77.1699 59.9201 75.0799 59.9701 75.8799 59.1001Z" fill="black"/>
<path d="M46.3 58.0703C46.37 58.6203 46.08 58.9003 45.54 58.8303L45.56 58.2103L46.3 58.0703Z" fill="black"/>
<path d="M71.8498 77.6202L71.2098 77.5702L71.0898 76.8602C71.5998 76.8502 71.9498 77.0802 71.8498 77.6202Z" fill="black"/>
<path d="M37.5199 73.82L37.4499 74.2L36.6299 74.32L36.6499 73.83C36.9399 73.66 37.2099 73.69 37.5099 73.82H37.5199Z" fill="black"/>
<path d="M23.0299 41.4502L23.0399 41.9402H22.1499L22.1599 41.4502H23.0299Z" fill="black"/>
<path d="M77.4497 60.9902L77.3297 61.5702L76.6797 61.6202V60.9902H77.4497Z" fill="black"/>
<path d="M47.4398 72.8103L47.3698 73.1903L46.5498 73.3103L46.5698 72.8203C46.8598 72.6503 47.1298 72.6803 47.4298 72.8103H47.4398Z" fill="black"/>
<path d="M82.2799 34.5801L82.2599 35.0701C81.9199 35.2901 81.1199 35.2301 81.4599 34.7001L82.2799 34.5801Z" fill="black"/>
<path d="M37.5199 69.2502L37.4499 69.6302L36.6299 69.7502L36.6499 69.2602C36.9399 69.0902 37.2099 69.1202 37.5099 69.2502H37.5199Z" fill="black"/>
<path d="M26.3398 49.8201V49.1801C27.3898 49.0401 27.3798 49.9601 26.3398 49.8201Z" fill="black"/>
<path d="M110.24 76.48L110.13 77.06L109.48 77.11L109.6 76.53L110.24 76.48Z" fill="black"/>
<path d="M98.9299 72.9204L98.8099 73.5004L98.1699 73.5604L98.2899 72.9804L98.9299 72.9204Z" fill="black"/>
<path d="M53.4202 72.9204L53.3002 73.5004L52.6602 73.5604L52.7802 72.9804L53.4202 72.9204Z" fill="black"/>
<path d="M43.5 76.22V75.58C44.55 75.44 44.54 76.36 43.5 76.22Z" fill="black"/>
<path d="M65.4999 65.0503L65.3599 65.6803H64.6099L64.7499 65.0703L65.4999 65.0503Z" fill="black"/>
<path d="M23.8 77.1102H23.04L23.09 76.6002L23.24 76.4902L23.68 76.5302L23.8 77.1102Z" fill="black"/>
<path d="M83.7999 64.9203V65.5603C82.7499 65.7003 82.7599 64.7803 83.7999 64.9203Z" fill="black"/>
<path d="M52.0099 75.2202L51.9399 75.6002C51.6399 75.8202 50.8299 75.6602 51.1999 75.2002L52.0099 75.2202Z" fill="black"/>
<path d="M108.34 73.69L108.22 74.2701C107.61 74.7001 107.12 73.48 108.34 73.69Z" fill="black"/>
<path d="M4.1001 73.3C5.3201 73.08 4.8301 74.31 4.2201 73.88L4.1001 73.3Z" fill="black"/>
<path d="M96.9 71.0201L96.78 71.6001C96.17 72.0301 95.68 70.8101 96.9 71.0201Z" fill="black"/>
<path d="M16.55 77.37V78.01C15.49 78.12 15.5 77.3 16.55 77.37Z" fill="black"/>
<path d="M18.2099 66.96V67.59H17.4399L17.4599 67.1L18.2099 66.96Z" fill="black"/>
<path d="M114.43 66.0801L114.36 66.4601C114.06 66.6801 113.25 66.5201 113.62 66.0601L114.43 66.0801Z" fill="black"/>
<path d="M86.3297 43.3501H85.7197V43.9601H86.3297V43.3501Z" fill="black"/>
<path d="M48.07 36.1103L48 36.4903C47.7 36.7103 46.89 36.5503 47.26 36.0903L48.07 36.1103Z" fill="black"/>
<path d="M49.4801 14.1402L49.3601 14.7202C48.7501 15.1502 48.2601 13.9302 49.4801 14.1402Z" fill="black"/>
<path d="M49.47 67.3501H48.73V67.8301H49.47V67.3501Z" fill="black"/>
<path d="M61.4301 65.94C60.3101 66.22 60.6601 64.9 61.3101 65.36L61.4301 65.94Z" fill="black"/>
<path d="M83.1201 62.1403C83.5901 61.9903 83.8901 62.4703 83.5601 62.7003C83.0601 63.0503 82.6301 62.2903 83.1201 62.1403Z" fill="black"/>
<path d="M97.6098 53.8903C98.0798 53.7403 98.3798 54.2203 98.0498 54.4503C97.5498 54.8003 97.1198 54.0403 97.6098 53.8903Z" fill="black"/>
<path d="M10.7798 51.6003C11.2498 51.4503 11.5498 51.9303 11.2198 52.1603C10.7198 52.5103 10.2898 51.7503 10.7798 51.6003Z" fill="black"/>
<path d="M37.3501 43.1003C37.8201 42.9503 38.1201 43.4303 37.7901 43.6603C37.2901 44.0103 36.8601 43.2503 37.3501 43.1003Z" fill="black"/>
<path d="M28.58 15.4201C29.05 15.2701 29.35 15.7501 29.02 15.9801C28.52 16.3301 28.09 15.5701 28.58 15.4201Z" fill="black"/>
<path d="M89.7299 77.0002C90.1999 76.8502 90.4999 77.3302 90.1699 77.5602C89.6699 77.9102 89.2399 77.1502 89.7299 77.0002Z" fill="black"/>
<path d="M62.3999 67.7302C62.8699 67.5802 63.1699 68.0602 62.8399 68.2902C62.3399 68.6402 61.9099 67.8802 62.3999 67.7302Z" fill="black"/>
<path d="M34.3201 73.85C34.4001 73.88 34.7201 74.28 34.6101 74.44L33.9001 74.32L33.8501 73.8C34.0201 73.79 34.1601 73.78 34.3201 73.84V73.85Z" fill="black"/>
<path d="M7.27013 68.86L7.25013 69.35L6.38013 69.5C6.22013 69.37 7.03013 68.62 7.27013 68.87V68.86Z" fill="black"/>
<path d="M83.93 59.9703L83.81 60.5503L83.17 60.4803C83.08 59.9303 83.52 59.9303 83.93 59.9703Z" fill="black"/>
<path d="M127.02 8.68041L127.16 9.75041C127.19 28.2904 127.08 46.8604 127.16 65.3704C127.16 67.4704 127.3 69.7304 127.16 71.8404C127.13 72.2504 127.16 72.7604 126.71 72.9104C126.53 72.9004 126.4 72.1204 126.3 71.9304C125.56 70.4604 125 69.2804 123.68 68.1304C121.91 66.6104 119.64 64.9704 117.81 63.5104C115.34 61.5504 112.56 59.6604 110.18 57.6704C109.26 56.9004 108.46 56.1404 107.5 55.4104C101.79 51.1004 96.1301 46.8204 90.5601 42.3604C89.7101 41.6804 88.5701 40.8804 87.8201 40.1504C86.4001 38.7704 87.2601 38.8304 88.3101 38.1004C89.0801 37.5604 89.5701 37.0104 90.5601 36.7804C90.7301 36.7404 90.9201 36.8604 90.9301 36.8504C90.9601 36.8204 91.0301 36.3804 91.2401 36.1304C91.5701 35.7404 94.4101 33.7804 95.0201 33.3704C95.3501 33.1504 95.9301 33.0504 96.2201 32.6604L96.2801 33.1704C96.3501 33.2504 97.0901 32.9504 96.8501 32.6604C96.7501 32.5304 96.4201 32.6304 96.5301 32.2904C97.8701 31.3704 99.2801 30.5304 100.63 29.6204C101.14 29.2804 101.88 28.5404 102.46 28.2404C103.4 27.7504 102.96 28.2804 103.82 27.3704C104.57 26.5804 105.59 26.0404 106.49 25.4104C106.77 25.2104 108.38 23.8004 108.61 24.0304C108.53 24.5704 108.85 24.8104 109.37 24.7904C109.56 24.3304 109.44 23.8804 108.86 23.9004C108.84 23.8804 108.99 23.6104 109.03 23.5604C109.58 22.9304 111.21 22.0604 111.97 21.4904C114.48 19.5904 117.01 17.6204 119.55 15.7304C121.7 14.1304 124.13 12.8004 125.64 10.4804L126.55 8.69041L127.03 8.67041L127.02 8.68041ZM121.46 21.6004L122.24 21.7404L122.46 21.4304C122.5 20.9804 121.98 20.7704 121.59 20.9404L121.36 21.2204L121.45 21.5904L121.46 21.6004ZM106.13 26.5904C105.64 26.7404 106.07 27.5004 106.57 27.1504C106.9 26.9204 106.61 26.4404 106.13 26.5904ZM109.21 32.9504C107.89 32.3304 107.8 33.9904 109.15 33.4504L109.21 32.9504ZM96.5201 37.1104C97.8301 37.6704 97.9301 36.2404 96.5901 36.7304L96.5201 37.1104ZM99.6601 36.8904C98.9401 37.0904 99.4801 38.0004 100.09 37.5704C100.39 37.3604 100.23 36.7204 99.6601 36.8904ZM113.28 37.7704C112.74 37.6304 112.42 38.1304 112.54 38.6404L113.38 38.2704L113.29 37.7704H113.28ZM95.1201 38.7704C93.9001 38.5504 94.3901 39.7804 95.0001 39.3504L95.1201 38.7704ZM96.9001 39.5304C96.4501 39.4704 96.0801 39.6704 96.1401 40.1604H96.9001V39.5304ZM123.85 40.5504C124.62 40.5804 125.66 40.6504 125.88 39.7304C125.82 39.4104 124.54 39.5204 124.26 39.6204L123.85 40.5504ZM123.72 40.6804C122.88 40.1804 122.47 40.4604 122.58 41.4404C123.21 41.5704 123.26 41.2304 123.65 40.9304L123.73 40.6804H123.72ZM95.8401 42.3404C95.1201 42.5404 95.6601 43.4504 96.2701 43.0204C96.5701 42.8104 96.4101 42.1704 95.8401 42.3404ZM118.89 44.3604C118.45 44.1904 118.39 44.5704 118.29 44.6004C117.91 44.7404 117.25 44.6304 117.37 45.2404C118.13 45.5604 118.09 44.8104 118.88 44.8504V44.3604H118.89ZM103.84 45.5104C103.35 45.6704 103.73 46.5904 104.28 46.2004C104.59 45.9804 104.39 45.3304 103.84 45.5104ZM115.67 47.9404C115.34 48.0404 115.18 48.4804 115.45 48.7504C115.67 48.9004 116.4 48.7904 116.54 48.5604C116.83 47.9204 116.2 47.7904 115.67 47.9504V47.9404ZM121.18 51.7204C121.18 51.5004 121.24 51.0404 120.98 50.9604L120.17 51.2104C120.46 51.5604 120.68 51.8304 121.19 51.7204H121.18ZM115.98 55.5104C116.46 55.8104 117.05 55.1804 116.47 54.8304C115.85 54.4504 115.69 55.3304 115.98 55.5104ZM122.58 54.8904C122.14 54.7004 121.09 55.2504 121.18 55.7104C121.29 56.2504 122.84 55.4604 122.58 54.8904ZM115.82 57.2004C114.91 56.7004 114.83 57.7404 113.92 57.6204L113.8 58.3304C113.98 58.5104 115.43 57.9304 115.75 57.8404L115.81 57.2104L115.82 57.2004ZM125.25 57.6904H123.47L123.34 58.3304C122.49 57.8704 121.96 59.1704 123.02 59.1004C123.61 59.0604 123.32 58.6704 123.62 58.5404C123.87 58.4304 124.12 58.6104 124.38 58.5604C124.68 58.5104 125.58 58.0504 125.24 57.6904H125.25ZM126.01 58.9604C124.88 58.7304 124.75 59.8104 125.89 59.5404L126.01 58.9604ZM120.36 60.6504C120.44 60.7304 120.48 60.8804 120.54 60.9204C121.12 61.2904 121.92 60.1504 121.05 59.9004C120.39 59.7104 120.54 60.2204 120.16 60.4204C120.1 60.6804 120.29 60.5804 120.36 60.6604V60.6504ZM124.36 60.4804C125.58 60.7004 125.09 59.4704 124.48 59.9004L124.36 60.4804ZM119.89 61.7304C120.32 60.9904 119.39 60.9604 118.91 61.1304V61.6104L119.89 61.7404V61.7304ZM123.96 64.0204L123.85 63.4504L123.08 63.5304C123.01 64.0904 123.55 64.2404 123.96 64.0304V64.0204ZM124.82 63.8004L124.49 64.2304C125.24 64.9004 125.91 63.7504 124.82 63.8004ZM122.31 65.6904C122.01 65.5604 121.74 65.5304 121.45 65.7004L121.43 66.1904L122.25 66.0704L122.32 65.6904H122.31Z" fill="white"/>
<path d="M125.25 57.6899C125.59 58.0499 124.69 58.5099 124.39 58.5599C124.13 58.6099 123.87 58.4299 123.63 58.5399C123.33 58.6699 123.63 59.0699 123.03 59.0999C121.97 59.1699 122.5 57.8699 123.35 58.3299L123.48 57.6899H125.26H125.25Z" fill="black"/>
<path d="M123.85 40.5501L124.26 39.6201C124.54 39.5201 125.82 39.4101 125.88 39.7301C125.66 40.6501 124.62 40.5901 123.85 40.5501Z" fill="black"/>
<path d="M115.82 57.2001L115.76 57.8301C115.44 57.9201 113.99 58.5001 113.81 58.3201L113.93 57.6101C114.84 57.7301 114.92 56.6901 115.83 57.1901L115.82 57.2001Z" fill="black"/>
<path d="M120.36 60.6503C120.28 60.5703 120.09 60.6703 120.16 60.4103C120.54 60.2103 120.4 59.7003 121.05 59.8903C121.92 60.1403 121.12 61.2803 120.54 60.9103C120.48 60.8703 120.44 60.7203 120.36 60.6403V60.6503Z" fill="black"/>
<path d="M115.67 47.9402C116.2 47.7802 116.82 47.9202 116.54 48.5502C116.4 48.7902 115.67 48.9002 115.45 48.7402C115.19 48.4802 115.35 48.0302 115.67 47.9302V47.9402Z" fill="black"/>
<path d="M122.58 54.8901C122.84 55.4601 121.29 56.2501 121.18 55.7101C121.09 55.2501 122.14 54.7001 122.58 54.8901Z" fill="black"/>
<path d="M123.72 40.6801L123.64 40.9301C123.25 41.2301 123.2 41.5701 122.57 41.4401C122.47 40.4601 122.87 40.1801 123.71 40.6801H123.72Z" fill="black"/>
<path d="M118.89 44.3603V44.8503C118.08 44.8203 118.12 45.5703 117.36 45.2403C117.24 44.6303 117.9 44.7403 118.28 44.6003C118.38 44.5603 118.45 44.1903 118.88 44.3603H118.89Z" fill="black"/>
<path d="M121.46 21.6001L121.37 21.2301L121.6 20.9501C121.98 20.7801 122.51 20.9801 122.47 21.4401L122.25 21.7501L121.47 21.6101L121.46 21.6001Z" fill="black"/>
<path d="M119.89 61.73L118.91 61.6V61.12C119.39 60.95 120.32 60.99 119.89 61.72V61.73Z" fill="black"/>
<path d="M109.21 32.9501L109.15 33.4501C107.8 33.9801 107.88 32.3201 109.21 32.9501Z" fill="black"/>
<path d="M95.8399 42.3402C96.4099 42.1802 96.5699 42.8102 96.2699 43.0202C95.6699 43.4402 95.1299 42.5402 95.8399 42.3402Z" fill="black"/>
<path d="M99.6597 36.89C100.23 36.73 100.39 37.36 100.09 37.57C99.4897 37.99 98.9497 37.09 99.6597 36.89Z" fill="black"/>
<path d="M113.28 37.77L113.37 38.27L112.53 38.64C112.41 38.13 112.73 37.63 113.27 37.77H113.28Z" fill="black"/>
<path d="M96.52 37.1101L96.59 36.7301C97.93 36.2401 97.83 37.6701 96.52 37.1101Z" fill="black"/>
<path d="M121.18 51.72C120.67 51.83 120.45 51.57 120.16 51.21L120.97 50.96C121.23 51.04 121.18 51.49 121.17 51.72H121.18Z" fill="black"/>
<path d="M115.98 55.5101C115.69 55.3301 115.85 54.4501 116.47 54.8301C117.04 55.1801 116.45 55.8101 115.98 55.5101Z" fill="black"/>
<path d="M123.96 64.0199C123.55 64.2299 123.01 64.0899 123.08 63.5199L123.85 63.4399L123.96 64.0099V64.0199Z" fill="black"/>
<path d="M103.84 45.5102C104.39 45.3302 104.59 45.9902 104.28 46.2002C103.73 46.5902 103.35 45.6602 103.84 45.5102Z" fill="black"/>
<path d="M126.01 58.9601L125.89 59.5401C124.75 59.8101 124.88 58.7301 126.01 58.9601Z" fill="black"/>
<path d="M122.31 65.6901L122.24 66.0702L121.42 66.1901L121.44 65.7001C121.73 65.5301 122 65.5601 122.3 65.6901H122.31Z" fill="black"/>
<path d="M124.82 63.8004C125.9 63.7504 125.24 64.9004 124.49 64.2304L124.82 63.8004Z" fill="black"/>
<path d="M124.36 60.4802L124.48 59.9001C125.09 59.4701 125.58 60.6902 124.36 60.4802Z" fill="black"/>
<path d="M96.8997 39.53V40.17H96.1397C96.0797 39.67 96.4497 39.48 96.8997 39.54V39.53Z" fill="black"/>
<path d="M95.1198 38.7701L94.9998 39.3501C94.3898 39.7801 93.8998 38.5601 95.1198 38.7701Z" fill="black"/>
<path d="M106.13 26.59C106.6 26.44 106.9 26.92 106.57 27.15C106.07 27.5 105.64 26.74 106.13 26.59Z" fill="black"/>
</svg>
