<svg width="129" height="90" viewBox="0 0 129 90" fill="none" xmlns="http://www.w3.org/2000/svg">
<path d="M102.29 3.8398C103.06 4.3898 104.11 5.0098 104.82 5.6298C105.9 6.5698 106.51 7.5498 106.47 9.0298C106.36 12.8098 100.55 16.2598 97.35 17.6398C95.84 18.2898 94.12 18.5498 92.6 19.0698C92.43 19.1298 92.11 19.1098 92.15 19.3398C93 19.4198 98.31 18.8898 98.63 18.4998C98.71 18.3998 98.63 18.0498 98.73 17.8698L98.91 17.7298L128.59 22.6998C128.55 23.0398 128.65 23.4698 128.58 23.7798C128.55 23.9098 128.28 23.8198 128.25 24.1198C127.81 27.4598 128.53 31.8598 128.27 35.3598C128.24 35.7298 128.14 36.0898 128.1 36.4598L125.51 37.0798C125.15 37.4198 125.45 41.3898 125.35 42.1998C125.31 42.5098 125.04 42.3498 125 42.6698C124.45 47.0598 125.42 52.9398 124.86 57.3298C124.82 57.6398 124.52 57.4998 124.51 57.7998L124.37 74.7298L123.98 75.2298C119.5 76.3898 115.02 77.6098 110.54 78.7898C96.17 82.5898 81.75 86.1698 67.36 89.9298C54.38 87.5098 41.43 84.4198 28.53 81.5698C20.94 79.8998 12.53 78.5898 5.13002 76.5098C4.82002 76.4198 4.48002 76.3198 4.24002 76.0998C3.90002 75.5298 4.33002 70.2298 4.17002 69.0098C4.13002 68.6998 3.83002 68.8398 3.82002 68.5398L3.68002 40.5398C3.07002 39.9998 3.43002 39.2898 3.33002 38.5298L0.90002 37.9198C0.47002 36.2298 0.96002 34.2398 0.75002 32.5798C0.71002 32.2698 0.41002 32.4098 0.40002 32.1098L0.27002 23.4098C8.66002 21.8998 17.09 20.5898 25.49 19.1098C27.03 18.8398 27.73 18.4198 29.44 18.5098C32.07 18.6598 35.04 19.3998 37.74 19.6498C39.26 19.7898 41.26 19.6098 42.63 19.8098C43.02 19.8698 43.26 20.1598 43.6 20.1598C43.97 20.1598 44.27 19.8098 44.65 19.7298C46.23 19.3598 48.44 18.7998 49.99 18.5598C50.54 18.4798 51.1 18.5298 51.66 18.5198V19.1698C49.51 19.2098 47.5 20.2498 45.37 20.4598C44.88 20.5098 44.43 20.2898 44.13 20.3398C43.85 20.3898 43.63 20.7198 43.42 20.7598C43.14 20.8098 42.76 20.5398 42.44 20.5298C41.28 20.5198 39.96 21.1398 38.84 21.4098C37.97 21.6198 37.16 21.5398 36.24 21.8898C36.21 21.8998 35.63 22.3298 35.79 22.4198C37.31 22.3398 39.01 22.1298 40.5 22.0898C41.37 22.0598 43.75 21.7398 43.68 22.9098C41.53 23.3598 39.28 23.6098 37.14 24.0898C36.9 24.1398 36.7 24.4398 36.41 24.4998C35.63 24.6698 34.64 24.2298 34.73 25.5098C35.13 25.4898 35.55 25.5498 35.95 25.5098C37.67 25.3398 41.2 24.6798 42.67 24.0598C43.55 23.6898 43.72 24.1398 44.38 24.1498C45.17 24.1698 47.21 23.8198 48.13 23.6998C49.28 23.5498 57.48 22.2798 57.83 21.9298C58.08 21.6798 57.78 21.6498 57.6 21.5898C57.08 21.3998 55.69 21.0598 55.13 20.9698C54.31 20.8298 53.8 21.1798 52.98 20.6698C52.85 20.5898 52.17 19.9798 52.3 19.8198C52.86 19.6298 53.12 19.1298 53.38 18.6698H55.39L55.4 19.3098C56.03 19.2998 56.44 19.7498 56.97 19.9298C57.87 20.2398 58.35 19.8598 59.19 19.9798C59.56 20.0298 59.88 20.2998 60.25 20.3798C61.41 20.6298 62.87 20.2598 63.79 20.7298C64.16 20.9198 64.1 21.3798 64.89 21.3998C66.07 21.4298 65.79 21.1898 66.13 20.5898C66.23 20.4098 66.67 19.9998 66.76 19.8498C66.94 19.5798 66.79 19.0998 67.25 19.1498C67.15 18.8498 66.87 19.0298 66.79 18.5498C66.75 18.2798 66.75 17.8498 66.91 17.6298C66.95 17.5698 68.12 16.9798 68.22 16.9498C69.53 16.5198 69.11 17.3198 69.49 17.5298C70.7 18.1998 75.01 16.8798 76.17 16.1098C76.38 15.9698 77.23 15.1498 77.02 14.9298C76.68 14.9298 75.9 14.7998 75.66 14.6198C75.21 14.2698 75.47 12.6898 74.04 13.0098C73.91 13.0398 72.7 13.7498 72.66 13.8198C72.55 14.0098 72.65 14.7898 72.61 15.1498C72.58 15.4398 72.53 15.9998 72.27 16.1198L71.16 16.2298L71.14 15.1098C69.88 14.2298 69.02 16.0198 68.28 16.1898C67.28 16.4198 66.45 15.8898 65.55 15.8898C62.98 15.8898 62.8 17.2998 65.47 17.3698C65.45 17.5998 65.52 17.8898 65.48 18.0998C65.46 18.2098 64.46 19.2598 64.39 19.2898C64.1 19.3898 63.17 19.4298 63.05 19.0498C63.31 17.8998 62.58 17.9498 62.15 17.3498C62.05 17.2198 61.81 16.3298 61.62 16.2198C61 15.8698 59.32 16.0198 58.6 15.8598C58.19 15.7698 58.04 15.3398 57.86 15.2598C57.46 15.0798 56.98 15.1698 56.65 15.0398C56.05 14.8098 53.86 13.6898 53.38 13.7698L52.52 14.7398C51.91 14.9098 51.67 14.3198 51.45 14.2198C50.53 13.8198 49.94 14.7398 50.41 15.6698C50.6 16.0398 52.8 16.8498 52.29 17.3598C50.95 17.4098 50.13 16.1198 48.79 16.0498C48 16.0098 47.32 16.6398 46.6 16.7898C46.01 16.9198 44.19 16.6198 43.45 16.5198C42.29 16.3598 39.54 15.5798 38.6 16.0598C38 16.3698 36.98 18.0898 36.03 18.0098V18.3298C36.43 18.3298 36.38 18.4798 36.35 18.8198C33.28 18.4598 30.31 17.7698 27.58 16.2798C26.13 15.4898 24.36 14.2098 23.65 12.7698C23.59 12.6498 23.4 12.6398 23.35 12.5098C23.08 11.7198 23.06 9.7098 23.39 8.9498C23.41 8.8998 23.59 8.8698 23.66 8.7798C24.1 8.1298 24.04 8.3998 24.35 8.0998C26.74 5.7398 27.5 3.3898 31.43 2.9298C40.43 1.8798 48.69 8.7698 55.66 13.4198C57.43 13.5998 59.28 12.7998 61.01 12.6698C63.91 12.4498 67.62 13.8198 70.59 13.9698C71.23 14.0898 71.43 13.3998 71.82 13.0798C78.84 7.2498 88.36 -1.2702 98.32 1.5098C100.25 2.0498 100.81 2.7598 102.28 3.8098L102.29 3.8398ZM97.15 2.7998C96.38 2.8198 95.59 2.0398 94.95 1.9898C94.13 1.9198 92.06 2.3398 91.16 2.5198C90.53 2.6398 88.82 2.9898 88.35 3.2498C88.31 3.2698 88 3.8598 87.91 3.9898C88.51 4.6398 89.55 5.7498 90.59 5.6998C91.75 5.6398 94.25 4.6398 95.55 4.2998C96.59 4.0298 97.82 4.4698 97.15 2.7998ZM35.52 3.7598C35.37 3.6598 32.76 3.4498 32.4 3.4698C31.76 3.4998 28.94 4.1698 28.6 4.5898C28.43 4.7998 28.49 5.1098 28.34 5.3098C28.13 5.5798 26.68 6.6398 28.15 6.6298C29.45 6.6298 30.86 6.3998 32.23 6.4898C33.22 6.5498 35.43 7.2198 36.18 6.8798L37.84 4.8798C37.42 5.0098 37.59 4.4298 37.42 4.3798L35.72 4.5498C35.7 4.3698 35.64 3.8398 35.53 3.7598H35.52ZM87.41 5.0598C86.94 5.0398 86.49 4.5598 86.05 4.5698C85.94 4.5698 84.31 4.9998 84.14 5.0798C84.03 5.1298 82.35 6.2598 82.14 6.4198C81.82 6.6598 81.77 7.0598 81.63 7.1598C81.46 7.2798 80.68 7.4598 80.63 7.5098C80.51 7.6598 80.69 8.0898 80.58 8.2798C80.51 8.3998 79.64 8.5198 79.43 8.6298C79.15 8.7798 78.78 9.4398 78.45 9.6398C77.12 10.4198 77.45 9.6698 76.43 11.1998C76.34 11.3398 76.08 11.3698 76.05 11.4998C75.99 11.7098 76.02 13.0898 76.1 13.2898C76.13 13.3598 77.16 14.3198 77.23 14.3498C77.83 14.6298 78.23 14.3498 78.59 13.9098C78.67 13.8198 78.62 13.5798 78.68 13.5298C78.81 13.4298 79.12 13.4998 79.3 13.4198C80.23 12.9598 85.82 9.7398 86.25 9.2198C86.44 8.9898 86.35 8.6598 86.57 8.4398C87 7.9998 87.73 7.8398 88.14 7.6098C88.48 7.4098 88.76 6.7098 89.22 6.6598C88.57 5.7098 88.22 6.6998 87.44 6.6598L87.41 5.0598ZM100.71 4.9398C100.23 4.7298 99.58 4.6998 99.06 4.7098C93.05 4.9098 83.75 11.0198 78.93 14.6298C78.63 14.8598 78.19 15.3498 77.83 15.6098C81.81 15.9098 86.34 15.4498 90.19 14.3898C94.34 13.2598 99.54 10.8498 100.77 6.6198C100.81 6.4798 101.05 6.4998 101.08 6.3898C101.18 5.9598 101.15 5.1398 100.7 4.9398H100.71ZM40.73 5.5398C39.98 5.3798 38.77 5.0298 38.09 5.5098C37.78 5.7298 38.04 6.6098 37.5 6.7698V7.1998C38.13 7.8198 38.81 8.4298 39.77 8.4498C39.93 8.1198 39.86 7.6598 39.99 7.3598C40.04 7.2598 40.72 6.8398 40.75 6.7098C40.79 6.5598 40.78 5.5898 40.73 5.5398ZM103.85 6.6698C103.08 6.5698 102.68 7.2298 103.15 7.8198H104.34C104.4 7.5398 104.11 7.7398 104.02 7.5298C103.93 7.3098 103.96 6.9298 103.85 6.6798V6.6698ZM47.64 15.0598C44.41 11.8898 35.9 7.4598 31.38 7.0098C29.95 6.8698 28.8 7.1898 27.41 7.3198C27.45 7.9698 27.33 8.6798 27.45 9.3198C27.54 9.7998 29.18 11.3698 29.63 11.6798C34.63 15.0898 42.14 15.2898 47.99 15.4498C48.2 15.3198 47.73 15.1498 47.65 15.0598H47.64ZM102.82 8.8498C102.14 8.5198 101.79 8.1098 101.27 8.9098C99.64 11.4298 96.92 12.9498 94.32 14.2698C93.98 14.4398 93.31 14.4198 93.13 14.7898C94.14 15.0098 94.81 15.3798 95.88 15.1398L96.07 16.2498L97.61 16.4298C98.43 15.6798 99.57 15.3398 100.51 14.7598C101.58 14.0998 103.99 12.0798 104.41 11.0098C104.58 10.5898 104.59 10.0098 104.45 9.5698C104.29 9.3398 103.34 9.2298 103.03 9.0798C102.9 9.0198 102.88 8.8498 102.84 8.8298L102.82 8.8498ZM49.43 11.3198C48.87 10.8898 48.75 10.8798 48.18 10.5398C47.45 10.0998 46.91 9.3998 45.96 9.5898C45.66 11.7698 48.2 13.4398 50.17 12.4998C50.41 11.6098 49.96 11.7198 49.44 11.3198H49.43ZM26.18 10.4998C26.03 10.3598 25.97 9.9998 25.71 10.0798C25.25 10.6098 24.96 10.7898 25.15 11.5898C25.18 11.7098 25.41 11.6998 25.46 11.8298C26.11 13.7298 27.24 14.5398 29.07 15.5098C29.62 15.7998 33.2 17.4998 33.54 17.5498C34.05 17.6198 35.12 17.5798 35.59 17.3898C35.74 17.3298 35.75 17.1398 35.84 17.0898C36.31 16.8298 37.21 16.6098 36.76 15.9298C35.41 15.5898 34.13 14.9498 32.8 14.5598C32.13 14.3598 30.53 14.2698 30.06 13.8898C29.78 13.6598 29.9 13.4098 29.85 13.3698C29.73 13.2698 29.29 13.4298 29.04 13.2698C28.91 13.1798 28.93 12.8798 28.82 12.7598C28.21 12.0698 26.98 11.2498 26.18 10.5198V10.4998ZM63.52 14.4698C63.42 14.3798 60.91 13.9498 61.08 14.7898C61.82 14.9398 62.55 15.0798 63.29 14.8098C63.51 14.7298 63.57 14.8598 63.52 14.4698ZM88.95 18.3198C89.23 18.6398 90.13 18.8398 90.56 18.8198L95.4 17.6398C96.27 16.9198 94.24 16.7198 93.85 16.5898C91.18 15.6698 89.86 15.8198 87.05 16.4498C86.8 16.5098 86.55 16.5698 86.29 16.5898V17.0698C86.9 16.9698 87.27 17.4098 87.78 17.6098C88.07 17.7198 88.53 17.6598 88.73 17.7998C88.88 17.9098 88.84 18.1998 88.94 18.3198H88.95ZM80.12 18.2098C83.02 18.9798 83.96 16.9798 80.38 17.2298L80.12 18.2098ZM78.6 18.7498C78.04 18.3698 72.55 18.1398 71.58 18.2098C70.98 18.2498 70.32 18.4898 69.71 18.5298C69.66 18.9198 69.71 18.7898 69.94 18.8698C71.74 19.5098 73.92 18.9298 75.82 19.0098C76.55 19.0398 77.26 19.2898 78.01 19.1798L77.85 20.0698C76.96 20.5998 77.1 20.0198 76.75 19.8298C76.31 19.5798 73.52 19.5898 72.9 19.6798C72.24 19.7698 71.73 20.2998 71.26 20.3298C70.57 20.3698 69.14 19.7698 68.52 20.4598C68.01 21.0398 68.84 21.3198 69.26 21.4998C72.25 22.7598 75.87 23.2098 79.04 23.8798C79.8 23.3498 78.55 22.6298 78.02 22.5698C77.85 21.3798 77.96 21.6998 78.53 21.2898C78.64 21.2098 78.64 21.0398 78.77 20.9698C79.19 20.7798 80.62 20.3498 80.99 20.6198C81.52 21.2498 79.87 21.7198 79.81 21.7998C79.67 22.0098 79.61 23.0798 79.83 23.3498C80.42 24.0498 84.38 24.8598 85.47 25.1098C92.21 26.6398 96.74 27.2698 103.23 30.1198C105.65 31.1798 110.79 34.2898 113.03 34.4698C115.9 34.6998 119.15 34.4298 122.06 34.6298C122.1 34.3498 122.07 34.2698 121.89 34.0698C121.57 33.6998 118.25 31.6698 117.56 31.2498C111.14 27.3498 105.17 24.5398 97.7 23.1298C96.88 22.9698 96.5 22.8098 95.75 22.6498C90.93 21.6098 85.97 20.9998 81.21 19.7798C79.61 19.3698 79.96 19.6898 78.58 18.7498H78.6ZM87.43 18.8598H84.5L84.6 19.3598C84.98 19.6398 86.54 19.4998 87.02 19.3398C87.29 19.2498 87.49 19.2198 87.44 18.8598H87.43ZM34.08 20.6498C32.4 20.1598 30.57 20.1498 28.82 20.1798C23.11 21.2398 17.32 21.9298 11.6 22.9698C11.06 23.0698 9.52002 23.2998 9.15002 23.4498C8.92002 23.5498 8.82002 23.6398 8.87002 23.8998L17.01 25.1298C20.65 24.4798 24.06 22.9898 27.67 22.1298C29.51 21.6898 31.43 21.4898 33.24 21.0298C33.47 20.9698 34.05 20.9298 34.08 20.6498ZM108.25 21.2998C107.5 20.9298 106.74 20.7798 105.9 20.8098C105.12 20.8398 102.72 21.3398 101.97 21.6098C101.12 21.9098 102.79 22.2498 103.14 22.2598C103.63 22.2598 104.15 21.9798 104.6 21.9698C105.79 21.9398 106.14 22.3298 107.51 21.7898C107.71 21.7098 108.2 21.5298 108.24 21.2998H108.25ZM36.03 22.6098C35.33 22.7798 34.81 22.2698 34.16 22.2698C32.24 22.2698 28.55 23.2998 26.59 23.8298C20.34 25.5198 16.47 27.4098 11.52 31.4498C11.38 31.5698 10.59 32.3298 10.82 32.5298C11.11 32.5798 11.33 32.4898 11.59 32.3998C13.89 31.6298 16.21 30.4098 18.55 29.5998C23.6 27.8398 29 26.7598 34.23 25.6898C34.06 24.8698 34.38 24.9098 34.57 24.6098C34.66 24.4598 34.67 24.2398 34.78 24.1298C35.04 23.8598 35.75 23.7398 36.04 23.3398V23.0298L35.71 22.8698L36.04 22.6298L36.03 22.6098ZM96.03 27.9898C93.04 27.5198 90.03 27.1198 87.07 26.4598C82.41 25.4198 77.68 24.4998 73.09 23.5298C72 23.2998 69.32 22.7898 68.32 22.8498C68.01 22.8698 67.74 23.0698 67.43 23.0998C67.36 23.4698 67.45 23.3598 67.64 23.4598C68.15 23.7398 69.38 24.0298 70 24.1898C76.97 25.9898 84.83 26.3898 91.63 28.4198C92.16 28.5798 92.85 29.0698 93.22 29.1098C93.91 29.1998 95.24 28.5898 96.03 28.6098V27.9898ZM60.27 23.7398C58.96 23.1398 58.19 23.7598 57.09 23.8898C49.8 24.7498 42.59 25.4198 35.33 26.5298C33.23 26.8498 31.05 27.1198 29.16 28.1298C28.55 28.7698 28.59 29.2398 28.38 29.9698C28.34 30.1198 28.09 30.0398 28.05 30.3198C27.73 32.7898 28.21 35.9398 27.91 38.3098C27.87 38.6198 27.6 38.4598 27.56 38.7798C27.34 40.5398 27.34 46.4798 27.56 48.2298C27.6 48.5398 27.9 48.3998 27.91 48.6998C27.99 58.4698 27.87 68.2098 28.55 77.8198C28.63 78.9398 28.61 79.0298 28.87 79.9698C29.02 80.4998 28.75 81.4198 29.43 81.6498L36.84 83.2598C36.97 83.1698 36.9 82.0998 36.84 81.9198C35.92 78.9498 36.44 75.8698 36.05 72.7698C36.01 72.4598 35.74 72.6198 35.7 72.2998C35.43 70.1698 35.76 67.0698 35.72 64.7998C35.53 55.1298 35.1 45.0198 35.72 35.3798C35.76 34.7698 35.59 33.8098 35.72 33.2898C35.75 33.1598 36.01 33.2498 36.05 32.9498C36.13 32.3798 35.92 31.5598 36.05 31.0198C36.08 30.8998 36.32 30.8898 36.36 30.7798C36.56 30.2598 36.56 29.8398 37.12 29.4598C39.88 27.6298 45.67 26.7498 49.03 26.0698C52.39 25.3898 56.05 24.9998 59.34 24.1898C59.58 24.1298 60.21 24.0198 60.28 23.7498L60.27 23.7398ZM17 26.3498C16.5 26.0998 15.99 25.9698 15.44 25.8798C12.12 25.3298 8.69002 25.0798 5.38002 24.5498C4.95002 24.4798 4.75002 24.1498 4.39002 24.0798C3.57002 23.9198 2.65002 24.1398 1.88002 24.3998C1.56002 24.7298 2.57002 24.9098 2.72002 24.9398C6.14002 25.7798 9.97002 26.5698 13.34 27.1698C14.26 27.3398 14.92 27.8998 15.92 27.3298L17.01 26.3498H17ZM62.78 24.8098C61.88 23.9798 61.63 24.5298 60.88 25.2498L58.97 26.0298C60.19 26.1298 61.59 25.8998 62.79 26.0298C63.68 26.1298 64.49 26.7398 65.47 26.5198V26.0398C64.38 25.8698 63.56 25.5498 62.77 24.8198L62.78 24.8098ZM74.37 26.2298C73.77 25.8798 72.84 25.6498 72.14 25.6898C71.86 26.3898 73.34 26.3598 72.95 26.9798C72.91 27.0398 71.82 27.2198 71.57 27.3098C71.01 27.5098 70.08 28.0598 69.58 28.0998C69.04 28.1498 68.14 27.3998 67.42 28.0798C67.22 28.6898 67.4 28.8798 67.91 29.1798C67.87 29.6398 67.06 29.7998 66.97 29.9498C66.51 30.7198 68.03 31.0898 68.63 30.8698C68.9 30.7698 68.83 30.4498 68.96 30.2998C69.15 30.0798 69.57 29.8298 69.72 29.6298C69.85 29.4498 69.8 29.1198 69.91 28.9698C70.17 28.6298 71.54 29.0798 71.34 29.6598C71.23 30.0698 69.95 29.6598 70.2 30.5598L71.22 30.2498C71.55 30.3798 72.34 30.9898 72.12 31.3498L71.34 31.6998C72 32.8198 72.71 31.8298 73.23 31.7398C73.55 31.6898 74.25 31.9398 74.82 31.8498C75.17 31.7998 75.45 31.5398 75.76 31.4898C77.9 31.1198 80.42 31.2998 82.43 30.7098C82.68 30.6398 83.71 29.9598 83.79 29.9298C84.25 29.7698 86.34 29.8398 87.15 29.7098C87.8 29.5998 88.84 29.3498 89.38 29.0198C87.4 28.5398 85.34 28.4298 83.33 28.0798C81.32 27.7298 79.42 27.3098 77.47 26.9398C77.02 26.8498 76.53 26.5398 76.1 26.4998C75.62 26.4598 75.18 26.7198 74.82 26.6698C74.46 26.6198 74.47 26.2798 74.36 26.2198L74.37 26.2298ZM11.77 28.3198C10.79 28.0498 5.14002 25.9498 4.64002 26.5098C4.63002 27.4098 5.37002 27.1898 5.90002 27.4398C6.72002 27.8198 6.31002 27.7398 7.45002 27.9798C7.51002 27.9898 8.17002 28.7598 8.46002 28.7798C8.75002 29.2398 7.81002 29.1298 8.05002 29.7598L8.87002 29.8598L9.03002 29.1098C11.31 29.7298 9.20002 29.7898 9.06002 29.9598C8.95002 30.0898 8.87002 31.1298 8.87002 31.3898C9.11002 31.6498 11.04 29.9498 11.25 29.7098C11.5 29.4198 12 28.6898 11.77 28.3298V28.3198ZM66.71 30.6398C65.38 29.8998 64.34 29.6898 62.82 29.6598C62.47 29.6598 61.97 29.8898 61.64 29.8498C61.31 29.8098 61.16 29.4698 60.84 29.4498C60.59 29.4298 59 30.0498 58.68 30.1998C58.5 30.2898 58.49 30.4898 58.35 30.5598C57.9 30.7998 56.98 30.5898 57.6 31.5498C58.78 31.1998 60 32.0198 61 32.0398C61.89 32.0598 62.75 31.4998 63.51 32.5198C62.69 32.6098 62 32.4598 61.23 32.1998L61.13 32.8498C62.29 33.4898 63.78 33.6398 64.96 33.0098C65.3 32.5898 64.06 32.5898 63.99 32.2798L64.25 31.8798C65.16 32.1398 66.23 32.1898 67.12 32.3998C67.61 32.5198 68.16 33.0798 68.87 32.8398C69 32.3398 68.34 32.4398 68.25 32.3198C68.16 32.1998 68.28 31.9198 68.18 31.7498C68.07 31.5498 66.96 30.7798 66.7 30.6298L66.71 30.6398ZM7.85002 30.1198C7.36002 29.6298 5.10002 29.9998 4.64002 30.6498C5.11002 31.7698 5.85002 29.9098 6.80002 30.8798C7.20002 31.2898 6.86002 31.8598 6.98002 32.3598C7.08002 32.7698 7.52002 32.5298 7.40002 32.9998C5.74002 34.1598 4.59002 32.7198 2.85002 32.6798L2.87002 33.9598L3.83002 34.1398C4.01002 34.6398 3.43002 34.3798 3.36002 34.4798C2.94002 34.9998 4.12002 35.6998 4.61002 35.4098C4.71002 35.3498 4.75002 34.9498 5.12002 34.8698L5.78002 35.2098C5.43002 35.5498 4.94002 35.6398 4.52002 35.8798C4.16002 36.0898 4.16002 36.6598 3.34002 36.4298V37.2398C4.01002 37.4398 4.81002 36.8198 5.37002 36.8998C5.55002 36.9298 6.36002 37.7698 7.20002 37.8498C7.80002 37.9098 8.36002 37.2198 8.95002 37.8698L8.86002 38.6898C9.86002 38.8198 12.87 39.3198 11.3 37.7998C11.99 37.0298 12.74 37.9398 13.2 38.0198C13.47 38.0598 14.09 37.7698 14.22 37.8898C14.25 37.9198 14.11 38.1798 14.42 38.4298C14.68 38.6398 15.74 39.0298 16 38.8398C16.15 38.7298 16.01 37.9398 16.5 38.0398V37.8798C15.98 37.9498 16.22 37.2698 15.91 37.0498C15.32 36.6498 14.79 37.2298 14.15 37.2398C13.44 37.2398 12.97 36.7798 12.36 36.7298C11.81 36.6798 11.35 36.9098 10.82 36.8998C11.02 36.3298 10.56 36.2798 10.47 36.0298C10.35 35.7098 10.41 35.1798 10.3 34.9898C10.16 34.7498 8.76002 34.3098 8.39002 34.2998C8.32002 33.6798 9.14002 34.1998 9.05002 33.4098C8.98002 32.8098 8.02002 32.9398 8.06002 32.3498C9.21002 32.3598 9.25002 31.3998 8.08002 31.3498L7.86002 30.1098L7.85002 30.1198ZM66.74 34.4998C65.78 33.8198 65.28 34.5298 64.27 34.4598C62.41 34.3398 60.03 33.5898 58.12 33.2798C53.73 32.5798 49.2 32.0798 44.77 31.3398C43.02 31.0498 40.92 30.2898 39.18 30.0998C38.07 29.9798 37.32 30.0798 37.34 31.3698C37.64 31.3898 37.93 31.5098 38.23 31.5398C42.72 31.9298 47.41 32.7698 51.89 33.4898C53.78 33.7998 55.58 34.5698 57.42 34.9698C58.06 35.1098 58.83 34.8998 59.53 34.9598C60.41 35.0398 61.42 35.4098 62.32 35.5898C63 35.7298 63.81 35.5898 64.5 36.0098C65.17 36.5498 63.9 37.4498 63.69 37.8398C63.54 38.1198 63.59 38.4998 63.46 38.7998C63.16 39.4698 62.08 39.1898 61.66 38.6798C61.55 37.9098 60.82 37.4298 60.48 36.7398C59.91 36.7598 59.35 36.3698 58.82 36.3198C53.77 35.8798 48.94 34.2698 43.93 33.4798C42.74 33.2898 39.39 32.5398 38.43 32.7098C38.31 32.7298 38.1 32.7898 38.03 32.8798C37.88 33.1698 37.92 33.5598 37.81 33.8498C37.32 35.1198 37.58 35.4098 37.33 36.4698C37.3 36.5898 36.84 36.5398 37.01 37.1298C37.04 37.2498 37.3 37.1598 37.35 37.4698C37.48 38.3098 37.02 38.2298 37.01 38.2898C36.89 38.7598 37.3 38.6498 37.34 38.7998C37.39 39.0298 37.39 39.6698 37.35 39.9198C37.31 40.2398 37.05 40.1398 36.96 40.3498C36.72 40.9298 36.81 41.5498 37.42 41.7798L37.48 41.9998C36.98 42.4098 37.05 42.9398 36.84 43.4498C36.76 43.6598 36.46 43.4698 36.52 43.7298C37.86 44.4898 39.42 45.0698 41 44.8798C41.41 44.8298 41.81 44.5098 42.11 44.5398C42.19 44.5398 42.59 45.2298 42.82 45.3198C44.01 45.7998 44.83 45.3198 45.72 45.3698C46.04 45.3898 46.2 45.7398 46.51 45.7698C46.89 45.8098 47.49 45.4998 47.92 45.7598C48.05 45.8298 47.94 46.1198 47.99 46.1798C48.18 46.3898 51.33 47.1198 51.35 46.0298L52.11 46.1898L52.24 46.9898C55.97 47.5698 59.59 48.6498 63.33 49.2098C65.64 49.5598 66.53 49.8498 65.94 46.9898L65.46 46.8898C65.51 45.7998 65.49 44.5498 65.62 43.4698C65.66 43.1298 66.68 42.6098 65.47 42.0198C66.65 41.3698 65.57 41.1198 65.48 40.8598C65.38 40.5698 65.58 40.1898 65.52 39.8498C65.46 39.5098 65.2 39.5298 65.11 39.2798C64.52 37.6798 65.87 37.7598 65.95 37.4398C66.11 36.8598 65.65 36.9098 65.62 36.7898C65.4 35.8998 65.93 35.3498 66.73 35.0898V34.4898L66.74 34.4998ZM55.11 31.1798C55.66 31.7998 56.9 31.9798 56.5 30.8398C56.34 30.3898 54.21 30.1698 55.11 31.1798ZM19.23 32.7398C18.99 32.5698 18.76 32.4898 18.47 32.5198C18.42 32.8098 18.46 32.9198 18.58 33.1598C18.8 33.5998 20.26 34.9398 20.72 35.2198C21.61 35.7798 23.9 36.1898 24.48 35.1498C24.69 34.7698 25.11 33.6698 25.14 33.2398C25.14 33.0798 25.23 32.7398 25.06 32.6798C23.47 33.8798 22.09 34.4498 20.15 33.5198C19.64 33.2698 19.51 32.9298 19.23 32.7298V32.7398ZM97.19 32.6898C95.52 32.8698 96.87 33.3398 96.86 33.4198C96.09 33.7198 96.45 34.2598 96.36 34.9498L95.88 35.0498L95.9 48.0598C95.04 49.9398 95.67 52.8298 95.41 54.8898C95.37 55.1998 95.1 55.0398 95.06 55.3598C94.67 58.4398 95.31 62.5798 94.92 65.6298C94.88 65.9398 94.61 65.7798 94.57 66.0998C94.2 69.0398 94.76 72.2698 94.1 75.0898C93.97 75.6398 94.14 76.6898 94.1 77.3398C94.03 78.5198 93.63 79.8598 94.19 80.9998C95.05 81.2298 95.03 80.6998 95.26 80.6098C95.8 80.3998 97.9 79.6698 98.44 79.5598C98.98 79.4498 99.86 79.7198 100.09 79.0598C100.22 78.6698 100.18 78.1998 100.28 77.8498C100.68 76.5198 100.51 75.9698 100.76 74.9098C101.36 72.3898 100.91 70.0698 101.23 67.5498C101.27 67.2398 101.54 67.3998 101.58 67.0798C101.9 64.5698 101.39 61.1998 101.72 58.5998C101.76 58.2898 102.03 58.4498 102.07 58.1298C102.5 54.7398 101.77 50.1498 102.21 46.7198C102.25 46.4098 102.52 46.5698 102.56 46.2498C102.79 44.4598 102.6 40.9598 102.23 39.3798C102.06 38.6698 102.2 36.8898 102.02 36.4398C102 36.3998 101.43 35.8898 101.34 35.9098L101.11 36.9398L100.28 37.2098C100.53 36.3198 99.49 36.3198 99.23 35.8998C99.01 35.5498 98.8 34.7098 98.59 34.3398C98.25 33.7398 96.91 33.8598 97.19 32.6598V32.6898ZM15.05 33.9898C13.77 33.4598 12.33 33.5598 10.99 33.8298C10.81 34.2998 11.27 34.2798 11.31 34.4298C11.38 34.6798 11.22 35.0198 11.48 35.2098C11.59 35.2998 11.92 35.2898 12.12 35.3898C12.98 35.8198 13.63 36.3998 14.67 36.2698C16.16 36.0798 15.91 34.7698 14.75 34.3098L15.07 33.9898H15.05ZM6.39002 40.6898C6.34002 40.5998 5.71002 40.3698 5.61002 40.5698C5.56002 40.8398 5.76002 41.1298 5.74002 41.3798C5.65002 43.0998 5.55002 46.0598 5.76002 47.7298C5.80002 48.0398 6.07002 47.8798 6.11002 48.1998C6.25002 49.1898 5.73002 49.2998 5.76002 49.6798C6.44002 50.3798 5.96002 51.5798 6.10002 52.5198L7.40002 51.4298V50.9098C6.66002 50.7998 6.23002 50.6698 6.61002 49.8898C6.66002 49.7798 6.84002 49.7698 6.90002 49.6298C6.99002 49.4398 6.94002 49.0998 7.06002 48.8898C7.38002 48.3498 9.16002 48.8698 8.87002 47.5898C8.83002 47.4198 8.35002 47.5698 8.54002 47.1598C9.43002 46.9598 9.64002 47.5698 10.13 47.9698C10.45 48.2398 10.98 48.2698 10.98 48.8598C10.44 49.2898 10 48.4598 9.76002 48.4398C9.51002 48.4198 8.64002 48.4798 8.54002 48.7798C8.90002 49.0498 9.53002 49.0298 9.84002 49.1998C9.97002 49.2698 9.98002 49.5598 10.2 49.6498C10.61 49.8298 11.06 49.6698 11.42 49.7998C11.86 49.9598 11.77 50.9298 12.99 50.7198C15.15 50.3398 12.26 49.2298 12.18 49.1098C11.98 48.8198 12.18 48.2598 12.1 47.9098C12.07 47.7798 11.8 47.7998 11.77 47.7198C11.6 47.0898 12.84 46.9298 13.07 46.5098L10.96 46.0598L10.78 44.9598L11.28 44.2298L10.47 44.0598V43.5798L11.26 43.3898L11.28 42.5898C10.53 42.6698 9.58002 42.4298 8.90002 42.1098C8.63002 41.9898 8.47002 41.6198 8.40002 41.6098C8.02002 41.5498 7.67002 41.8598 7.17002 41.7498C6.35002 41.5598 6.54002 40.9698 6.36002 40.6798L6.39002 40.6898ZM25.91 40.8598C25.32 40.4598 24.52 40.7298 24.16 41.2998C24.86 41.5698 25.27 42.4198 26.11 42.2798L25.91 40.8598ZM12.61 45.5398H15.54C15.54 45.5398 15.48 45.7598 15.66 45.8598C16.03 46.0798 17.23 45.9998 17.45 46.2298C17.52 46.3098 17.5 46.5298 17.59 46.6498C17.76 46.8698 18.15 46.8198 17.98 47.3798L17.56 47.6498C17.59 46.8298 14.67 47.5398 14.57 47.6698C14.49 47.7698 14.6 48.0598 14.54 48.1698C14.45 48.3298 14.25 48.3098 14.23 48.4098C14.16 48.7098 14.26 49.1098 14.23 49.4298L15.44 49.2498C15.6 49.2798 15.51 49.6598 15.69 49.8298C15.97 50.0798 16.69 49.8698 16.67 50.3198C16.49 50.6298 15.98 50.5798 15.8 50.7098C15.62 50.8398 15.71 51.1798 15.54 51.2998C15.36 51.4298 13.83 51.6098 13.74 51.6998L14.06 52.5098C13.47 52.4498 13.07 52.2198 12.47 52.4598C12.31 52.5298 12.3 52.7298 12.15 52.8298C11.98 52.9298 11.66 52.8898 11.5 53.0398C11.38 53.1598 10.82 54.1298 10.98 54.2998L12.02 54.1598C12.32 53.9398 11.73 53.0798 12.83 53.1698C13.15 53.1998 14.7 53.6798 14.23 54.1398C13.79 54.1098 12.55 54.0798 12.32 54.4998C12.02 55.0398 12.62 55.6998 11.34 55.7198C10.44 55.7298 9.73002 55.1198 8.86002 55.1098L8.93002 55.7698C9.67002 55.8598 9.55002 56.6898 10.08 57.2198C10.37 57.2998 10.72 56.3698 10.82 56.2098C11.14 55.6998 11.4 56.4398 11.51 56.5198C12.41 57.1698 12.34 56.9998 13.33 57.2298C14.12 57.4098 14.48 58.1998 13.74 58.6098V58.9298C15.64 59.9398 13.94 59.8098 13.77 60.0198C13.67 60.1398 13.82 60.5198 13.58 60.7298C13.37 60.9098 11.52 61.2898 11.21 61.2798C10.9 61.2698 10.02 60.6598 9.25002 60.6598C8.73002 60.6598 6.64002 61.8798 7.08002 60.2698C7.12002 60.1398 7.37002 60.1598 7.40002 60.0498C7.56002 59.4598 7.11002 59.5198 7.08002 59.3898C6.90002 58.7198 7.45002 58.6098 7.67002 58.0298L8.86002 58.1998L8.54002 58.5198L9.51002 58.7698C9.70002 59.3898 8.89002 59.3098 8.86002 59.3398C8.79002 59.4298 8.85002 59.7898 9.02002 59.9098C9.37002 60.1498 10.27 59.8798 10.7 59.9798C10.88 60.0298 10.81 60.3998 11.22 60.4798C11.92 60.6098 12.86 60.0998 13.56 59.9598C13.77 59.1698 13.48 59.1198 13.08 58.5998L13.25 57.5398C12.75 57.4098 12.16 57.7598 11.72 57.6998C11.31 57.6398 10.17 57.3798 9.70002 57.2598C8.62002 56.9898 7.95002 55.6898 7.29002 57.7098L6.42002 57.6898C6.35002 57.3298 6.63002 57.2598 6.91002 57.1998C7.01002 56.6698 6.24002 56.9198 6.42002 56.2298L7.29002 56.0698L7.40002 55.6698C7.17002 55.4998 6.13002 54.7298 6.42002 54.4498L7.78002 54.7598L8.37002 54.2798L8.05002 53.9598L10.31 53.4598V52.9998L8.37002 52.3298V51.6798H7.39002C7.13002 51.9298 8.06002 52.7798 8.36002 52.8198L8.04002 53.4698C7.55002 53.5198 7.36002 53.0698 6.84002 53.1398C6.73002 53.1498 5.80002 53.7398 5.77002 53.7998C5.56002 54.1598 6.06002 54.0198 6.11002 54.3498C6.25002 55.2898 5.81002 55.2398 5.78002 55.3698C5.56002 56.2298 6.07002 56.1898 6.11002 56.4698C6.14002 56.7098 6.15002 57.3698 6.10002 57.5898C6.07002 57.7198 5.79002 57.7198 5.77002 57.7798C5.65002 58.2598 6.06002 58.1398 6.10002 58.2898C6.15002 58.5098 6.15002 59.1698 6.11002 59.4098C6.07002 59.7098 5.81002 59.6198 5.78002 59.7498C5.72002 59.9898 5.73002 60.9198 5.76002 61.1898C5.79002 61.4098 6.42002 61.9498 6.43002 62.1598C6.43002 62.4998 6.13002 62.2898 6.09002 62.6398C5.99002 63.4598 6.18002 63.6998 6.44002 64.2798C5.96002 65.0698 5.95002 67.3598 6.09002 68.3498C6.12002 68.5998 6.61002 68.6798 6.45002 69.2198H6.92002C7.21002 69.5198 6.04002 70.3598 6.11002 70.6098C6.49002 71.2498 7.38002 70.7298 7.58002 71.4198C6.92002 71.4998 6.56002 71.0998 6.12002 71.7798V72.1998L7.01002 73.2998C7.59002 73.3598 7.47002 72.8598 7.69002 72.7998C8.07002 72.6998 8.51002 72.8998 8.88002 72.9698C8.95002 73.2398 8.60002 73.0398 8.55002 73.2298C8.52002 73.3398 8.52002 73.6698 8.58002 73.7598C8.93002 74.0198 10.01 73.7498 10.02 74.3498C9.25002 74.5498 8.62002 74.8698 7.83002 74.5898C7.14002 74.3498 6.99002 73.0498 6.12002 74.2698C6.64002 74.2098 6.37002 74.8498 6.65002 75.2098C7.10002 75.7798 8.64002 76.2298 9.37002 76.0698L8.56002 75.0998C8.75002 74.8998 10.34 74.8798 10.73 74.7398C10.97 74.6498 10.96 74.3298 11.2 74.2298C11.7 74.0098 12.23 74.2198 12.68 74.1198C12.81 74.0898 12.78 73.7498 13.23 73.6698C13.52 73.6198 14.43 73.6298 14.58 73.7998C14.89 74.1398 14.08 74.1198 14.26 74.2798C14.4 74.4098 14.99 74.6498 15.07 74.9298C14.56 75.3298 14.1 74.7698 13.88 74.7998C13.74 74.8198 13.43 75.1198 13.13 75.1898C12.16 75.4198 11.05 75.5698 10.05 75.5998L9.88002 75.9898C10.73 76.7698 11.96 76.5298 13.02 76.5498L13.31 77.3498C14.95 77.3098 17.89 78.8398 19.35 78.5098C19.48 78.4798 19.47 78.2098 19.66 78.1398C20.38 77.8398 21.01 78.2198 21.74 78.1898C21.72 78.5198 21.2 78.2498 20.92 78.4298C20.69 78.5798 20.71 78.7698 20.92 78.9298C21.59 79.1398 22.42 79.0698 23.08 79.2098C23.74 79.3498 26.08 80.3298 26.47 79.7098C26.83 79.1098 26.49 78.4998 26.49 77.9498C26.49 77.3398 26.7 76.7598 26.45 76.0398C26.38 75.8398 25.65 75.4098 25.57 75.2598C24.95 74.1298 26.4 74.1998 26.47 73.5598L26.44 71.8698L25.49 71.4398C25.39 71.0098 26.78 71.0898 26.46 69.8498C26.43 69.7398 25.94 69.7498 26.14 69.0398C26.18 68.8898 26.43 69.0698 26.47 68.5398C26.54 67.6598 26.16 67.8198 26.13 67.6798C25.64 65.5198 26.51 61.8498 25.96 59.7698C25.92 59.6198 25.66 59.6398 25.64 59.5698C25.52 59.0998 25.93 59.2098 25.97 59.0598C26.31 57.5598 25.22 57.3298 23.94 57.3598C23.11 57.3798 23.3 57.8098 23.09 57.8698C22.58 58.0098 21.09 57.5098 20.53 57.5398C20.43 57.5398 20.45 57.8398 20.33 57.8698C20.21 57.8998 18.44 58.0398 18.26 58.0298C17.69 57.9998 17.69 57.5698 17.56 57.5498C16.93 57.4198 16.02 57.6198 15.33 57.2398C14.9 56.6198 15.68 56.2498 16.21 56.2498L16.31 57.0798C16.91 57.3398 19.73 57.1398 17.69 56.7298L17.61 55.2698L15.83 54.7998L15.73 54.3898C16.31 54.3498 16.67 53.3898 16.81 53.3398C17.27 53.1698 18.39 53.8198 19.07 53.1598C19.41 53.1198 19.28 53.1898 19.32 53.4098C19.52 54.4998 17.69 54.2498 17.69 54.5398C17.96 54.7898 18.59 54.7698 18.83 55.0298C19.09 55.2998 18.79 55.8398 19.69 55.5998C19.92 55.5398 19.74 54.9398 20.66 55.1498C21.35 55.2998 21.23 55.9398 21.76 56.1698C21.89 56.7198 21.49 56.4198 21.43 56.7398L22.16 56.4198C22.65 57.4598 23.46 56.9398 24.28 56.9098C24.91 56.8798 25.34 57.2698 25.94 56.5398L25.99 53.9298L25.18 53.2398C25.19 53.0998 25.42 53.2198 25.5 53.0398C26.08 51.7298 25.43 47.4798 25.65 45.7498C25.69 45.4498 25.95 45.5398 25.98 45.3998C26.07 44.9998 25.98 44.3498 26.15 43.8898C25.59 43.8198 25.34 44.4198 24.78 44.3798C24.5 44.3598 24.25 44.0898 23.95 44.0598C21.9 43.8498 21.48 43.9498 19.62 43.1898C18.37 42.6798 18.04 43.2398 17.1 43.5298C16.77 43.6298 16.33 43.5098 15.95 43.6698C15.65 43.7998 15.57 44.4898 14.78 44.2098C14.59 43.5698 15.26 43.6598 15.49 43.4098C16.11 42.7398 14.4 42.6998 13.9 42.7598C13.17 42.8598 13.04 43.7598 12.19 43.7298V44.1998L13.17 44.6298L12.68 45.5098L12.61 45.5398ZM52.26 48.5098C52.17 48.4198 51.71 48.3398 51.54 48.3198C49.39 48.1598 47.06 47.3398 44.87 47.0198C43.48 46.8098 42.23 46.9898 40.86 47.1698C39.52 48.1798 41 48.4098 40.86 49.1998C40.8 49.5498 40.04 49.4198 39.76 49.4398C39.72 49.9598 40.03 50.4598 39.93 50.9898C39.85 51.3998 39.47 51.3298 39.43 51.5098C39.34 51.8898 39.12 53.6098 39.76 53.5098C39.92 53.9198 39.48 53.7798 39.44 53.9398C39.2 54.7798 39.91 54.6398 39.93 55.0398C39.96 55.5798 39.45 55.6298 39.36 55.7798C38.96 56.3998 39.99 56.2398 39.76 56.9798C39.72 57.0998 39.47 57.0698 39.44 57.1998C39.36 57.5198 39.51 57.9698 39.31 58.3198L40.14 58.5598L40.25 58.9698C40.15 59.2898 38.02 59.2498 38.49 59.9998C38.65 60.2498 39.51 60.4398 38.45 61.0898V61.4098C39.27 61.7398 38.48 61.9998 38.45 62.0898C38.24 62.9498 38.74 62.9598 38.77 63.0698C38.87 63.4498 38.88 63.9398 38.45 64.0198C38.9 64.0998 38.84 64.6098 38.79 64.9998C38.74 65.3898 38.15 65.2298 38.28 65.9698C38.36 66.4598 39 66.3398 38.95 66.9398C38.9 67.4598 38.36 67.3498 37.96 67.3498L37.98 67.9798L39.26 68.1698V68.7298L37.98 69.1598C37.89 69.8198 38.22 70.4098 37.47 70.6898C37.38 71.2198 37.93 71.0098 37.91 71.6298C37.9 72.1898 37.5 72.2498 37.48 72.3398C37.41 72.6598 37.29 74.1098 37.52 74.2998L38.93 74.3198C38.76 73.5398 39.32 73.0298 39.91 73.6198C39.98 74.6298 39.08 74.2798 38.82 74.5398C38.75 74.6198 38.84 74.8898 38.69 74.9998C38.37 75.2398 37.61 75.0198 37.48 75.2498C36.72 76.7498 38.52 77.0698 38.74 77.6298C38.82 77.8398 39.02 79.4098 38.92 79.5198C37.71 79.6198 37.7 80.7598 37.98 81.6998C38.02 81.8298 38.23 81.8098 38.28 81.9498C38.61 82.7498 38.28 82.8698 39.43 83.2098C42.26 84.0698 46.11 84.5498 49.07 85.1098C49.61 85.2098 50.09 85.6398 50.64 85.4798C51.08 85.3498 51.07 84.7998 51.54 84.9098C51.86 85.8798 52.25 86.1698 53.33 86.0498L54.38 85.0698C53.85 84.9698 53.23 84.9698 52.71 84.8598C52.55 84.8298 52.22 84.7998 52.26 84.5798L53.69 84.2098C54.48 82.8398 53.87 82.9198 52.51 83.1098L50.63 82.2198C50.96 81.8098 51.53 81.7298 51.97 81.9798C52.24 82.1298 52.13 82.5398 52.66 82.4698C52.94 82.4298 53.18 81.4298 53.24 81.1698L52.59 80.9198C53.1 80.3898 53.65 80.2598 54.37 80.3498L54.56 81.4598C54.83 81.5298 55.12 81.4398 55.39 81.5198C56.1 81.7298 57.61 82.3298 58.26 82.3798C58.36 82.3798 59.9 81.8798 60.11 81.7998C60.16 81.7798 60.63 80.9198 60.64 81.9798C59.41 82.5098 61.3 83.2998 62.02 83.1098V83.7598L59.42 83.5998C59.25 83.0198 59.71 83.1498 59.74 83.1098C59.89 82.8898 59.76 82.7798 59.5 82.7798C58.77 82.7798 58.54 83.3098 57.93 83.4898C56.6 83.8798 57.07 83.2098 56.71 82.9398C56.41 82.7098 55.46 82.8898 55.36 83.1998C55.18 83.7498 56.83 84.2098 57.25 84.2498C57.63 84.2898 57.94 84.1198 58.3 84.1598C58.89 84.2298 59.69 84.8098 60.17 84.8898C60.97 85.0398 61.89 84.8098 62.68 84.7298C62.53 85.2498 62.98 85.4198 63.1 85.8798C64.18 85.7098 64.9 85.6398 65.93 86.0298C66.36 84.7998 65.04 85.2498 64.34 84.9398C63.99 84.7798 63.69 83.9598 63.01 84.0798V83.5998L63.51 83.5098V82.3098L64.48 82.0198C64.46 81.6898 64.72 81.2198 64.63 80.9398C64.54 80.6598 64.12 80.7898 64.15 80.5198L64.96 80.1898C65.34 79.7298 63.51 79.3598 63.17 79.5398L63.19 78.9098C63.55 78.9398 64.08 78.5598 64.36 78.5998C64.66 78.6498 64.78 79.1098 65.24 78.9298C66.06 78.5998 64.76 78.4498 64.67 78.3598C64.56 78.2498 64.63 77.8398 64.37 77.7598C63.87 77.5998 62.98 78.5598 62.89 78.5698C62.76 78.5798 62.06 78.4098 62.02 78.3198L62.12 77.9098C63.46 78.3098 63.32 76.7798 64.63 77.0998C64.76 76.6998 64.25 76.7198 64.18 76.5798C63.76 75.8298 64.92 75.7298 65.43 75.6198C65.6 74.8998 64.43 74.4798 65.44 73.8998L65.46 73.5998C65.2 73.0998 64.72 72.7398 64.14 72.6998V72.3898C64.63 72.4398 64.49 71.6998 64.65 71.5798C66.13 71.8098 66.85 71.1898 66.37 69.6498C66.31 69.4498 64.04 68.1998 63.65 68.0598L63.75 67.6398C64.46 67.2098 64.74 68.0598 65.44 67.9798C65.36 67.1798 66.88 66.5898 65.61 66.1898L66.42 65.4498C66.49 64.9298 66.11 65.2298 66.08 64.6498C66.04 63.9098 66.4 64.0798 66.42 63.9898C66.54 63.5298 66.11 63.7398 66.08 63.1798C66.04 62.4598 66.38 62.6398 66.42 62.4898C66.65 61.5798 65.95 61.1598 65.12 61.1398L65.16 60.6798L65.44 60.6498C65.58 60.5298 64.33 59.8398 63.98 59.9998L64.72 58.3698L65.86 58.8698C65.99 58.8798 66.41 58.4498 66.42 58.4098C66.52 57.8998 66.51 55.5798 66.44 55.0198C66.4 54.7098 66.13 54.8598 66.09 54.5498C66.04 54.1098 66.06 51.1698 65.92 51.0598C64.98 51.0598 64.35 50.5198 63.4 50.4098C61.15 50.1498 59.13 49.7598 56.92 49.4098C56.01 49.2698 54.85 48.9698 53.98 48.9198C53.52 48.8898 53.16 49.1098 52.73 49.0598C52.12 48.9798 52.37 48.6098 52.25 48.4898L52.26 48.5098ZM8.65002 49.7798C7.28002 50.2098 10.49 51.5398 10.98 50.6498C10.39 50.3498 9.31002 49.5698 8.65002 49.7798ZM38.06 50.1698C37.99 50.0698 37.95 49.7698 37.82 50.0098C37.66 50.9098 37.33 51.8798 37.32 52.9398C37.32 53.2998 37.49 53.6398 37.5 53.9998C37.85 54.0898 37.81 53.8498 37.93 53.6998C38.85 52.5398 37.91 52.7298 37.88 51.9498C37.85 51.1298 38.79 51.1998 38.06 50.1798V50.1698ZM65.62 83.1298C65.36 82.8698 64.46 83.3298 64.12 83.4298L64.01 83.9198L65.96 83.7598C66.03 83.4998 65.77 83.6598 65.69 83.5498C65.6 83.4198 65.66 83.1798 65.62 83.1398V83.1298ZM55.51 84.1298C55.22 84.0098 54.88 84.0998 54.57 84.0798C54.19 84.9398 55.32 85.3498 55.88 84.9798C56.23 84.7498 55.58 84.1498 55.51 84.1298ZM59.22 85.6198C58.97 85.4698 58.06 84.6898 57.83 84.8998V85.6298C56.85 85.5098 56.42 85.5598 55.66 86.2198C55.49 86.3698 55.27 86.3898 55.55 86.6098C56.58 86.7898 57.59 87.0898 58.6 87.2998C59 87.3798 59.42 87.2998 59.82 87.3798C60.55 87.5298 61.32 88.1598 62.22 87.8298L61.73 87.0198C62.5 86.6898 63.26 87.1798 64 87.3498C64.17 87.9098 63.43 87.8698 63.52 88.4798L65.63 88.9698C65.75 86.7098 65.53 87.2398 64 86.6098C63.55 86.4198 61.57 85.3298 61.33 85.3998C61.09 85.4698 61.14 85.9898 60.48 86.0298C59.82 86.0698 59.63 85.8698 59.2 85.6198H59.22Z" fill="black"/>
<path d="M59.9898 17.8396C60.1998 18.0896 60.9498 17.9896 60.7598 18.6996L59.9698 18.6796L59.2998 17.3196C59.9298 16.9396 59.8398 17.6596 59.9998 17.8396H59.9898Z" fill="black"/>
<path d="M52.2599 48.5099C52.3799 48.6299 52.1299 48.9999 52.7399 49.0799C53.1699 49.1399 53.5399 48.9099 53.9899 48.9399C54.8599 48.9999 56.0199 49.2899 56.9299 49.4299C59.1399 49.7799 61.1599 50.1699 63.4099 50.4299C64.3599 50.5399 64.9899 51.0799 65.9299 51.0799C66.0599 51.1899 66.0399 54.1299 66.0999 54.5699C66.1399 54.8799 66.4099 54.7299 66.4499 55.0399C66.5199 55.5999 66.5299 57.9199 66.4299 58.4299C66.4299 58.4699 65.9999 58.8999 65.8699 58.8899L64.7299 58.3899L63.9899 60.0199C64.3399 59.8599 65.5899 60.5499 65.4499 60.6699L65.1699 60.6999L65.1299 61.1599C65.9599 61.1799 66.6599 61.5999 66.4299 62.5099C66.3899 62.6599 66.0599 62.4799 66.0899 63.1999C66.1199 63.7599 66.5499 63.5399 66.4299 64.0099C66.4099 64.0899 66.0499 63.9299 66.0899 64.6699C66.1199 65.2499 66.4999 64.9499 66.4299 65.4699L65.6199 66.2099C66.8899 66.6099 65.3699 67.1999 65.4499 67.9999C64.7499 68.0899 64.4699 67.2299 63.7599 67.6599L63.6599 68.0799C64.0499 68.2199 66.3099 69.4699 66.3799 69.6699C66.8699 71.2099 66.1499 71.8299 64.6599 71.5999C64.4999 71.7099 64.6399 72.4599 64.1699 72.4099V72.7199C64.7299 72.7599 65.2099 73.1199 65.4699 73.6199L65.4499 73.9199C64.4299 74.5099 65.6099 74.9199 65.4399 75.6399C64.9199 75.7499 63.7699 75.8499 64.1899 76.5999C64.2699 76.7299 64.7699 76.7099 64.6399 77.1199C63.3299 76.7999 63.4699 78.3299 62.1299 77.9299L62.0299 78.3399C62.0699 78.4299 62.7699 78.5999 62.8999 78.5899C62.9899 78.5899 63.8699 77.6199 64.3799 77.7799C64.6399 77.8599 64.5699 78.2699 64.6799 78.3799C64.7699 78.4699 66.0599 78.6299 65.2499 78.9499C64.7899 79.1299 64.6699 78.6699 64.3699 78.6199C64.0899 78.5699 63.5499 78.9499 63.1999 78.9299L63.1799 79.5599C63.5199 79.3799 65.3499 79.7499 64.9699 80.2099L64.1599 80.5399C64.1299 80.8199 64.5499 80.6799 64.6399 80.9599C64.7299 81.2399 64.4699 81.7199 64.4899 82.0399L63.5299 82.3299V83.5299L63.0299 83.6199V84.0999C63.7199 83.9799 64.0199 84.7999 64.3699 84.9599C65.0699 85.2799 66.3899 84.8299 65.9599 86.0499C64.9199 85.6599 64.1999 85.7299 63.1299 85.8999C63.0099 85.4399 62.5599 85.2699 62.7099 84.7499C61.9099 84.8199 60.9999 85.0499 60.1999 84.9099C59.7099 84.8199 58.9199 84.2399 58.3299 84.1799C57.9699 84.1399 57.6599 84.2999 57.2799 84.2699C56.8599 84.2299 55.2099 83.7699 55.3899 83.2199C55.4899 82.9099 56.4499 82.7299 56.7399 82.9599C57.0899 83.2399 56.6199 83.8999 57.9599 83.5099C58.5699 83.3299 58.7899 82.7899 59.5299 82.7999C59.7999 82.7999 59.9199 82.9099 59.7699 83.1299C59.7399 83.1699 59.2699 83.0399 59.4499 83.6199L62.0499 83.7799V83.1299C61.3299 83.3099 59.4399 82.5299 60.6699 81.9999C60.6599 80.9399 60.1899 81.7999 60.1399 81.8199C59.9399 81.8999 58.3899 82.4099 58.2899 82.3999C57.6399 82.3499 56.1299 81.7499 55.4199 81.5399C55.1499 81.4599 54.8599 81.5399 54.5899 81.4799L54.3999 80.3699C53.6799 80.2699 53.1199 80.4099 52.6199 80.9399L53.2699 81.1899C53.2099 81.4499 52.9699 82.4599 52.6899 82.4899C52.1599 82.5599 52.2699 82.1499 51.9999 81.9999C51.5599 81.7499 50.9899 81.8399 50.6599 82.2399L52.5399 83.1299C53.8899 82.9399 54.5099 82.8599 53.7199 84.2299L52.2899 84.5999C52.2499 84.8199 52.5799 84.8499 52.7399 84.8799C53.2499 84.9899 53.8799 84.9899 54.4099 85.0899L53.3599 86.0699C52.2699 86.1899 51.8899 85.8999 51.5699 84.9299C51.0999 84.8099 51.0999 85.3699 50.6699 85.4999C50.1199 85.6599 49.6399 85.2399 49.0999 85.1299C46.1399 84.5599 42.2899 84.0899 39.4599 83.2299C38.3199 82.8799 38.6399 82.7699 38.3099 81.9699C38.2599 81.8399 38.0499 81.8499 38.0099 81.7199C37.7299 80.7799 37.7399 79.6399 38.9499 79.5399C39.0399 79.4299 38.8499 77.8599 38.7699 77.6499C38.5499 77.0899 36.7399 76.7699 37.5099 75.2699C37.6499 75.0399 38.3999 75.2599 38.7199 75.0199C38.8699 74.9099 38.7799 74.6399 38.8499 74.5599C39.1099 74.2999 40.0099 74.6499 39.9399 73.6399C39.3499 73.0499 38.7899 73.5699 38.9599 74.3399L37.5499 74.3199C37.3199 74.1299 37.4399 72.6899 37.5099 72.3599C37.5299 72.2599 37.9299 72.2099 37.9399 71.6499C37.9599 71.0299 37.4099 71.2399 37.4999 70.7099C38.2599 70.4199 37.9299 69.8399 38.0099 69.1799L39.2999 68.7499V68.1899L38.0099 67.9999L37.9899 67.3699C38.3799 67.3699 38.9299 67.4799 38.9799 66.9599C39.0299 66.3499 38.3899 66.4699 38.3099 65.9899C38.1799 65.2499 38.7599 65.4199 38.8199 65.0199C38.8799 64.6199 38.9299 64.1199 38.4799 64.0399C38.9199 63.9599 38.8999 63.4699 38.7999 63.0899C38.7699 62.9799 38.2699 62.9699 38.4799 62.1099C38.4999 62.0199 39.2999 61.7599 38.4799 61.4299V61.1099C39.5399 60.4699 38.6799 60.2799 38.5199 60.0199C38.0499 59.2699 40.1699 59.3099 40.2799 58.9899L40.1699 58.5799L39.3399 58.3399C39.5299 57.9899 39.3899 57.5499 39.4699 57.2199C39.4999 57.0899 39.7499 57.1199 39.7899 56.9999C40.0199 56.2599 38.9899 56.4299 39.3899 55.7999C39.4799 55.6499 39.9899 55.6099 39.9599 55.0599C39.9399 54.6599 39.2299 54.7999 39.4699 53.9599C39.5199 53.7999 39.9599 53.9399 39.7899 53.5299C39.1599 53.6299 39.3699 51.9099 39.4599 51.5299C39.4999 51.3499 39.8799 51.4199 39.9599 51.0099C40.0599 50.4899 39.7499 49.9799 39.7899 49.4599C40.0599 49.4499 40.8199 49.5699 40.8899 49.2199C41.0299 48.4299 39.5499 48.1899 40.8899 47.1899C42.2599 47.0099 43.4999 46.8299 44.8999 47.0399C47.0899 47.3699 49.4199 48.1799 51.5699 48.3399C51.7399 48.3499 52.1999 48.4299 52.2899 48.5299L52.2599 48.5099ZM41.0299 63.6099C39.2199 63.6999 41.2299 65.6999 41.3899 63.8399C41.2999 63.6799 41.2299 63.5999 41.0299 63.6099ZM42.5399 65.3799H41.3199C40.9599 66.1499 41.9699 66.1299 42.4399 65.8799L42.5399 65.3799ZM57.9899 67.3299C57.7699 67.2599 55.5599 67.2999 56.0399 67.8099C56.3099 68.0999 58.0099 68.1199 57.9899 67.3299ZM48.7199 74.1599C48.5599 74.1399 47.4099 73.9999 47.4099 74.2499L47.6799 74.8299C47.8399 74.8499 49.0499 74.4399 48.7199 74.1699V74.1599ZM57.9899 78.0599L56.1299 78.1999L56.0299 78.7499C56.2999 79.0399 56.8299 79.2899 57.2199 79.1999C57.2899 79.1799 58.1999 78.2699 57.9899 78.0599ZM41.3999 79.6899C41.6499 78.2799 39.8899 79.0799 40.5199 79.5399L41.3999 79.6899ZM60.2699 80.3399H59.3799C58.8799 80.8199 60.1799 81.2599 60.2699 81.1499V80.3399ZM52.1299 83.9199C51.1899 83.5199 50.3799 84.3099 49.3699 84.0799V84.5699L50.5499 84.5299L52.1299 83.9199Z" fill="white"/>
<path d="M12.6102 45.5398L13.1002 44.6598L12.1202 44.2298V43.7598C12.9702 43.7898 13.1002 42.8898 13.8302 42.7898C14.3402 42.7198 16.0502 42.7598 15.4202 43.4398C15.1902 43.6898 14.5202 43.6098 14.7102 44.2398C15.5002 44.5198 15.5802 43.8198 15.8802 43.6998C16.2602 43.5398 16.6902 43.6598 17.0302 43.5598C17.9702 43.2698 18.3002 42.7098 19.5502 43.2198C21.4102 43.9798 21.8302 43.8898 23.8802 44.0898C24.1802 44.1198 24.4302 44.3798 24.7102 44.4098C25.2702 44.4498 25.5202 43.8498 26.0802 43.9198C25.9202 44.3798 26.0102 45.0298 25.9102 45.4298C25.8802 45.5698 25.6202 45.4698 25.5802 45.7798C25.3502 47.5098 26.0102 51.7698 25.4302 53.0698C25.3502 53.2498 25.1202 53.1198 25.1102 53.2698L25.9202 53.9598L25.8702 56.5698C25.2802 57.2998 24.8402 56.9098 24.2102 56.9398C23.3902 56.9798 22.5902 57.4898 22.0902 56.4498L21.3602 56.7698C21.4202 56.4498 21.8202 56.7598 21.6902 56.1998C21.1602 55.9698 21.2802 55.3398 20.5902 55.1798C19.6802 54.9798 19.8502 55.5698 19.6202 55.6298C18.7202 55.8698 19.0202 55.3298 18.7602 55.0598C18.5102 54.7998 17.8902 54.8198 17.6202 54.5698C17.6202 54.2798 19.4502 54.5298 19.2502 53.4398C19.2102 53.2198 19.3502 53.1498 19.0002 53.1898C18.3202 53.8398 17.2102 53.1998 16.7402 53.3698C16.5902 53.4198 16.2402 54.3798 15.6602 54.4198L15.7602 54.8298L17.5402 55.2998L17.6202 56.7598C19.6702 57.1698 16.8402 57.3698 16.2402 57.1098L16.1402 56.2798C15.6102 56.2798 14.8302 56.6498 15.2602 57.2698C15.9502 57.6498 16.8602 57.4498 17.4902 57.5798C17.6102 57.6098 17.6202 58.0298 18.1902 58.0598C18.3702 58.0698 20.1402 57.9298 20.2602 57.8998C20.3902 57.8698 20.3602 57.5798 20.4602 57.5698C21.0202 57.5398 22.5102 58.0398 23.0202 57.8998C23.2302 57.8398 23.0402 57.4098 23.8702 57.3898C25.1502 57.3598 26.2502 57.5798 25.9002 59.0898C25.8602 59.2498 25.4502 59.1298 25.5702 59.5998C25.5902 59.6598 25.8502 59.6498 25.8902 59.7998C26.4402 61.8698 25.5802 65.5498 26.0602 67.7098C26.0902 67.8398 26.4602 67.6898 26.4002 68.5698C26.3602 69.1098 26.1102 68.9298 26.0702 69.0698C25.8702 69.7898 26.3602 69.7698 26.3902 69.8798C26.7102 71.1198 25.3202 71.0498 25.4202 71.4698L26.3702 71.8998L26.4002 73.5898C26.3302 74.2198 24.8802 74.1498 25.5002 75.2898C25.5802 75.4398 26.3102 75.8698 26.3802 76.0698C26.6402 76.7898 26.4202 77.3698 26.4202 77.9798C26.4202 78.5298 26.7602 79.1398 26.4002 79.7398C26.0102 80.3598 23.6902 79.3898 23.0102 79.2398C22.3302 79.0898 21.5202 79.1698 20.8502 78.9598C20.6402 78.7998 20.6202 78.6098 20.8502 78.4598C21.1202 78.2798 21.6502 78.5598 21.6702 78.2198C20.9402 78.2498 20.3102 77.8698 19.5902 78.1698C19.4002 78.2498 19.4202 78.5098 19.2802 78.5398C17.8202 78.8698 14.8802 77.3398 13.2402 77.3798L12.9502 76.5798C11.8902 76.5698 10.6502 76.8098 9.81017 76.0198L9.98017 75.6298C10.9802 75.5998 12.0902 75.4398 13.0602 75.2198C13.3602 75.1498 13.6702 74.8498 13.8102 74.8298C14.0302 74.7998 14.4902 75.3598 15.0002 74.9598C14.9202 74.6798 14.3302 74.4398 14.1902 74.3098C14.0102 74.1398 14.8202 74.1598 14.5102 73.8298C14.3502 73.6598 13.4402 73.6498 13.1602 73.6998C12.7102 73.7798 12.7402 74.1198 12.6102 74.1498C12.1602 74.2398 11.6302 74.0398 11.1302 74.2598C10.8902 74.3598 10.9002 74.6898 10.6602 74.7698C10.2702 74.9098 8.68017 74.9298 8.49017 75.1298L9.30017 76.0998C8.57017 76.2698 7.03017 75.8098 6.58017 75.2398C6.30017 74.8898 6.57017 74.2498 6.05017 74.2998C6.92017 73.0798 7.07017 74.3798 7.76017 74.6198C8.56018 74.8998 9.19017 74.5798 9.95017 74.3798C9.94017 73.7798 8.85017 74.0598 8.51017 73.7898C8.46017 73.6998 8.45017 73.3798 8.48017 73.2598C8.53017 73.0698 8.88018 73.2598 8.81018 72.9998C8.45018 72.9298 8.00017 72.7298 7.62017 72.8298C7.40017 72.8898 7.52017 73.3898 6.94017 73.3298L6.05017 72.2298V71.8098C6.49017 71.1198 6.85017 71.5298 7.51017 71.4498C7.32017 70.7598 6.43017 71.2798 6.04017 70.6398C5.98017 70.3898 7.15018 69.5398 6.85018 69.2598H6.38017C6.54017 68.6998 6.06018 68.6298 6.02018 68.3798C5.89018 67.3898 5.89017 65.0898 6.37017 64.3098C6.11017 63.7298 5.92018 63.4898 6.02018 62.6698C6.06018 62.3298 6.37017 62.5298 6.36017 62.1898C6.36017 61.9798 5.72017 61.4498 5.69017 61.2198C5.65017 60.9498 5.65017 60.0198 5.71017 59.7798C5.74017 59.6498 6.00017 59.7398 6.04017 59.4398C6.07017 59.1998 6.08017 58.5398 6.03017 58.3198C6.00017 58.1698 5.58017 58.2798 5.70017 57.8098C5.72017 57.7498 6.00017 57.7498 6.03017 57.6198C6.08017 57.3998 6.08017 56.7398 6.04017 56.4998C6.00017 56.2198 5.49017 56.2698 5.71017 55.3998C5.74017 55.2698 6.18017 55.3198 6.04017 54.3798C5.99017 54.0498 5.49017 54.1898 5.70017 53.8298C5.73017 53.7798 6.66018 53.1898 6.77018 53.1698C7.29018 53.0998 7.49018 53.5498 7.97018 53.4998L8.29017 52.8498C7.99017 52.8098 7.06017 51.9598 7.32017 51.7098H8.30017V52.3498L10.2402 53.0198V53.4798L7.97018 53.9798L8.29017 54.2998L7.70017 54.7798L6.34017 54.4698C6.05017 54.7598 7.08017 55.5298 7.32017 55.6898L7.21017 56.0898L6.34017 56.2498C6.16017 56.9398 6.93017 56.6898 6.83017 57.2198C6.55017 57.2798 6.28017 57.3498 6.34017 57.7098L7.21017 57.7298C7.88017 55.7098 8.55017 56.9998 9.62017 57.2798C10.0802 57.3998 11.2302 57.6598 11.6402 57.7198C12.0802 57.7798 12.6702 57.4198 13.1702 57.5598L13.0002 58.6198C13.4002 59.1398 13.6902 59.1898 13.4802 59.9798C12.7802 60.1098 11.8402 60.6298 11.1402 60.4998C10.7402 60.4198 10.8002 60.0498 10.6202 59.9998C10.1902 59.8898 9.29017 60.1698 8.94017 59.9298C8.77017 59.8098 8.71017 59.4498 8.78017 59.3598C8.81017 59.3298 9.62018 59.4098 9.43018 58.7898L8.46017 58.5398L8.78017 58.2198L7.59017 58.0498C7.37017 58.6398 6.82017 58.7498 7.00017 59.4098C7.03017 59.5398 7.48017 59.4798 7.32017 60.0698C7.29017 60.1798 7.04017 60.1598 7.00017 60.2898C6.56017 61.8998 8.65017 60.6798 9.17017 60.6798C9.94017 60.6798 10.8402 61.2898 11.1302 61.2998C11.4202 61.3098 13.3002 60.9398 13.5002 60.7498C13.7402 60.5398 13.5902 60.1598 13.6902 60.0398C13.8602 59.8298 15.5502 59.9598 13.6602 58.9498V58.6298C14.4002 58.2198 14.0402 57.4298 13.2502 57.2498C12.2602 57.0298 12.3302 57.1998 11.4302 56.5398C11.3202 56.4598 11.0602 55.7198 10.7402 56.2298C10.6402 56.3898 10.2902 57.3198 10.0002 57.2398C9.47017 56.7098 9.59018 55.8798 8.85018 55.7898L8.78017 55.1298C9.65017 55.1298 10.3602 55.7498 11.2602 55.7398C12.5302 55.7198 11.9402 55.0598 12.2402 54.5198C12.4702 54.0998 13.7102 54.1298 14.1502 54.1598C14.6202 53.6998 13.0702 53.2198 12.7502 53.1898C11.6502 53.0998 12.2402 53.9598 11.9402 54.1798L10.9002 54.3198C10.7402 54.1498 11.3002 53.1698 11.4202 53.0598C11.5802 52.9098 11.9002 52.9598 12.0702 52.8498C12.2202 52.7598 12.2302 52.5498 12.3902 52.4798C12.9902 52.2398 13.3902 52.4598 13.9802 52.5298L13.6602 51.7198C13.7502 51.6298 15.2802 51.4398 15.4602 51.3198C15.6302 51.1998 15.5502 50.8598 15.7202 50.7298C15.8902 50.5998 16.4102 50.6398 16.5902 50.3398C16.6102 49.8898 15.8902 50.0998 15.6102 49.8498C15.4202 49.6798 15.5102 49.2998 15.3602 49.2698L14.1502 49.4498C14.1902 49.1298 14.0802 48.7298 14.1502 48.4298C14.1802 48.3298 14.3702 48.3498 14.4602 48.1898C14.5202 48.0798 14.4102 47.7998 14.4902 47.6898C14.5902 47.5598 17.5102 46.8498 17.4802 47.6698L17.9002 47.3998C18.0702 46.8398 17.6702 46.8998 17.5102 46.6698C17.4202 46.5498 17.4402 46.3298 17.3702 46.2498C17.1502 46.0098 15.9402 46.0898 15.5802 45.8798C15.4102 45.7798 15.4802 45.5598 15.4602 45.5598H12.5302L12.6102 45.5398ZM19.2702 45.2198L18.3002 45.0498L18.3202 45.5998L18.5602 45.8598L19.1802 45.7198L19.2702 45.2298V45.2198ZM19.4402 49.1198C18.9102 49.1798 17.5502 49.0298 17.4902 49.7698C18.2402 49.8298 18.9902 49.8198 19.4402 49.1198ZM18.2902 51.2398L16.7802 50.8998C16.0502 51.7598 17.6402 51.7698 18.3002 51.7198V51.2398H18.2902ZM21.3902 50.8998L20.0202 51.5398L19.9202 52.0398C20.8102 52.1098 21.5702 51.9898 21.3802 50.8998H21.3902ZM15.5102 54.6698C15.3202 54.4798 14.2302 54.7798 13.9502 54.9298C13.8502 54.9798 13.1102 55.6098 13.2602 55.7798C13.4502 55.9898 14.4202 55.6898 14.7502 55.7098C15.3402 55.7398 15.6502 56.0498 16.1902 56.0998C16.3302 55.3398 15.5502 55.3098 15.5202 54.6598L15.5102 54.6698ZM23.3402 55.2898L22.3902 55.4798L22.3702 56.2698C23.0102 56.1898 23.4902 56.0398 23.3402 55.2998V55.2898ZM20.7402 59.0398C20.1902 58.8598 19.8102 59.3498 19.3602 59.3798C18.7702 59.4198 18.2002 58.9198 17.6002 59.0398C17.4902 59.0598 17.4802 59.2898 17.3602 59.3498C16.8602 59.6098 16.3702 59.4398 16.5102 60.3398C17.1002 60.4198 17.5202 59.8998 18.0502 59.8398C18.7802 59.7598 19.3902 60.2398 19.9302 60.1098L20.2102 59.9698L20.7302 59.0298L20.7402 59.0398ZM16.1902 60.3398C15.4402 60.2798 14.7702 60.2098 14.0802 60.5798C14.5102 60.8598 15.7302 61.7298 16.1202 61.1598L16.1902 60.3398ZM18.9202 60.8598C17.9002 60.9098 17.1802 61.2598 16.6802 62.1198C17.2102 62.4198 17.6602 62.0398 18.1802 62.1598C18.6102 62.2498 19.8702 63.3298 20.2402 62.7498C20.6102 62.1698 19.1202 61.4098 18.9302 60.8598H18.9202ZM13.5802 68.7898C13.6502 68.7898 13.9202 68.9598 14.1502 68.9598C15.7102 68.9598 16.1202 67.1798 15.3002 67.1698C14.5502 67.1498 13.5002 68.2898 12.7602 67.5498C12.7102 66.6598 12.6102 66.2398 13.5802 66.0298L13.2602 65.3898C15.2102 64.6098 13.6002 64.2598 13.5702 64.1498C13.2902 63.1898 14.6002 63.2898 14.0702 62.5698C13.9502 62.4098 13.6902 62.5398 13.7502 62.2998L14.9502 61.9898L15.0502 61.4898C14.5102 61.4298 13.6302 61.6698 13.2602 62.0698C13.0902 62.2598 13.1702 62.5698 12.8902 62.6798C12.3502 62.8998 11.1202 62.1898 10.5102 62.6498L10.4902 63.4398L12.6102 63.7698C12.7402 64.3398 11.9102 63.9898 11.5702 64.2398C11.0202 65.2298 13.3102 64.5698 13.1002 65.7198C12.2502 65.9698 11.7302 65.1298 10.9902 65.3998C10.6902 65.7198 11.9202 66.1698 12.1302 66.0498V66.5398C11.5202 66.6898 10.8202 66.2898 10.2702 66.3798C10.1602 66.3998 8.44018 67.3398 8.39018 67.4398C8.20018 67.7898 9.59017 67.9098 9.76017 67.8598C9.84017 67.8398 9.92017 66.8998 10.8802 67.0598C11.4502 67.1598 11.8002 67.8298 12.2002 68.0198C12.6002 68.2098 13.1102 68.1798 13.5002 68.4898C13.6602 68.5698 13.5902 68.7098 13.6102 68.8298C13.1902 68.8398 12.3802 68.9398 12.0202 69.1098C11.7402 69.2398 11.6502 69.6998 11.0802 69.7998C10.3702 69.9198 9.75018 69.6298 9.06018 69.6498C9.14018 70.5198 8.27017 72.4498 9.85017 71.7398L10.0302 70.7398C10.5302 70.3098 11.2602 70.4498 11.8302 70.6398V71.1198L10.8602 71.2898L11.0302 71.7698L12.6102 71.2498C12.7702 71.1198 12.7402 70.7198 12.6802 70.5398C12.5702 70.2198 12.2102 70.4198 12.3302 69.9898C12.8002 69.6798 13.0002 69.5598 13.6302 69.6598C13.6102 69.3998 13.6702 69.0998 13.6302 68.8498L13.5802 68.7898ZM9.59017 63.0298C9.37017 62.6898 9.48017 62.3298 8.87017 62.4498L8.85018 63.5698C7.15018 63.9198 8.49017 64.2898 8.55017 64.4898C8.67017 64.8998 7.92017 64.8698 7.90017 64.8998C7.42017 65.4698 9.35017 66.0298 9.86017 65.2698C10.0302 65.0198 9.88017 64.6098 10.3402 64.4798C10.4602 63.9998 10.0802 64.1098 10.0102 63.9698C9.82017 63.5698 9.87018 63.4698 9.60018 63.0298H9.59017ZM24.1602 64.3998C23.9302 64.1598 22.4002 64.0198 22.7002 64.8798C22.8802 64.9798 24.5802 64.8298 24.1602 64.3998ZM17.0002 64.8898C16.7002 65.7798 18.8502 65.9298 18.9502 65.4598C19.0602 64.9098 17.3702 65.0098 17.0002 64.8898ZM20.7002 65.7498C20.4402 65.5398 19.3202 65.4198 19.4402 66.0298L20.9002 66.3598C20.9702 66.2898 20.7902 65.8298 20.6902 65.7498H20.7002ZM22.6302 66.2898C22.7302 66.1498 23.0202 65.8498 22.7802 65.6998L21.3402 66.1898C20.8202 66.4198 21.7702 67.4998 22.6302 66.2898ZM14.2802 70.5398C14.1802 70.3198 14.2602 69.9698 14.0802 69.8398L13.2502 69.7698L13.2702 70.7198L14.5502 70.8998C14.7002 70.4898 14.3102 70.6098 14.2802 70.5298V70.5398ZM16.4702 70.1298C15.9902 69.8498 15.1802 70.4398 14.7202 70.5798C14.6402 71.2198 15.6002 70.9498 16.0202 71.1598C16.1402 71.2198 16.5702 71.8798 16.7702 72.0198C17.1402 72.2798 18.1602 72.2798 17.4402 73.1298C16.6002 74.1198 16.1502 73.0398 15.2102 73.1798C15.1302 73.3898 15.6302 74.4998 15.7302 74.6098C16.1202 75.0298 17.9702 74.8698 17.6502 76.2698C18.4102 76.3898 18.5302 75.6398 19.3002 75.9598C19.3302 75.9698 19.7402 76.2498 19.7602 76.2798C20.0102 76.7098 19.2702 76.4498 19.4402 76.9298L21.3902 76.5998L21.2302 75.6298L22.6902 74.8098C21.4402 74.8298 19.8102 76.0098 18.9502 74.6498L19.9202 74.1498V73.6698L19.4402 73.5098C19.9202 73.3298 20.4002 72.9298 20.2502 72.3698C19.9702 72.3698 19.6702 72.3998 19.3902 72.3298C18.8302 72.1898 17.7502 71.4298 17.2602 71.0398C17.0502 70.8698 16.5702 70.1898 16.4702 70.1298ZM19.5002 71.0098C19.4102 70.9498 19.0802 70.2698 18.7902 70.5798C18.3702 71.0498 19.5002 71.2898 19.6702 71.4098C19.9102 71.5698 20.0102 71.9998 20.4102 72.0398L20.3802 71.4098C20.0302 71.3598 19.7702 71.1998 19.4902 70.9998L19.5002 71.0098ZM15.4702 72.6298C16.0502 71.6498 14.8402 71.7398 14.6302 72.0298C14.4302 72.2998 14.6702 72.7198 14.7302 73.0098C14.9702 73.1598 15.3502 72.8298 15.4702 72.6298ZM20.4202 73.8298C21.3102 74.1798 22.0602 73.9198 21.8802 72.8598L20.4202 73.8298Z" fill="white"/>
<path d="M60.2703 23.7399C60.2003 24.0099 59.5803 24.1199 59.3303 24.1799C56.0403 24.9999 52.3803 25.3899 49.0203 26.0599C45.6603 26.7299 39.8803 27.6199 37.1103 29.4499C36.5403 29.8299 36.5503 30.2399 36.3503 30.7699C36.3103 30.8799 36.0703 30.8899 36.0403 31.0099C35.9203 31.5499 36.1203 32.3699 36.0403 32.9399C36.0003 33.2399 35.7403 33.1499 35.7103 33.2799C35.5903 33.7999 35.7503 34.7599 35.7103 35.3699C35.0903 45.0099 35.5203 55.1299 35.7103 64.7899C35.7503 67.0599 35.4203 70.1599 35.6903 72.2899C35.7303 72.5999 36.0003 72.4399 36.0403 72.7599C36.4303 75.8599 35.9103 78.9499 36.8303 81.9099C36.8903 82.0899 36.9503 83.1599 36.8303 83.2499L29.4203 81.6399C28.7403 81.4199 29.0103 80.4999 28.8603 79.9599C28.6003 79.0199 28.6203 78.9299 28.5403 77.8099C27.8603 68.1999 27.9803 58.4599 27.9003 48.6899C27.9003 48.3899 27.5903 48.5399 27.5503 48.2199C27.3303 46.4599 27.3303 40.5199 27.5503 38.7699C27.5903 38.4599 27.8603 38.6199 27.9003 38.2999C28.2003 35.9299 27.7203 32.7799 28.0403 30.3099C28.0803 30.0199 28.3303 30.0999 28.3703 29.9599C28.5803 29.2299 28.5403 28.7599 29.1503 28.1199C31.0403 27.1199 33.2203 26.8399 35.3203 26.5199C42.5803 25.4199 49.8003 24.7499 57.0803 23.8799C58.1803 23.7499 58.9603 23.1399 60.2603 23.7299L60.2703 23.7399ZM38.9603 27.1599C38.2303 27.1399 37.4803 27.1599 36.7603 27.3199C36.5103 27.3799 36.4703 27.2099 36.5203 27.6399C36.7203 27.8299 39.0103 27.9499 38.9603 27.1499V27.1599ZM34.4903 28.4599C33.6803 28.3099 32.5003 28.5699 31.6403 28.4599L31.9103 28.9199L35.4603 29.2699L35.5403 28.9499C35.1803 28.9199 34.7903 28.5099 34.4803 28.4599H34.4903ZM34.7303 31.2199L34.4603 30.5999L29.8503 29.9199C29.7403 30.6999 29.9503 30.5799 30.5603 30.7499C31.9003 31.1399 33.3403 31.2599 34.7303 31.2199Z" fill="white"/>
<path d="M66.7398 34.4996V35.0996C65.9398 35.3596 65.4198 35.9096 65.6298 36.7996C65.6598 36.9196 66.1098 36.8796 65.9598 37.4496C65.8698 37.7696 64.5299 37.6896 65.1199 39.2896C65.2099 39.5296 65.4698 39.5096 65.5298 39.8596C65.5898 40.2096 65.3898 40.5896 65.4898 40.8696C65.5798 41.1296 66.6599 41.3796 65.4799 42.0296C66.6899 42.6196 65.6698 43.1396 65.6298 43.4796C65.4998 44.5596 65.5099 45.7996 65.4699 46.8996L65.9498 46.9996C66.5398 49.8596 65.6498 49.5596 63.3398 49.2196C59.6098 48.6596 55.9798 47.5796 52.2498 46.9996L52.1198 46.1996L51.3598 46.0396C51.3398 47.1196 48.1898 46.3996 47.9998 46.1896C47.9498 46.1296 48.0598 45.8396 47.9298 45.7696C47.4998 45.5096 46.8998 45.8196 46.5198 45.7796C46.2098 45.7496 46.0398 45.3996 45.7298 45.3796C44.8398 45.3296 44.0199 45.8096 42.8299 45.3296C42.5999 45.2396 42.1998 44.5596 42.1198 44.5496C41.8298 44.5196 41.4198 44.8396 41.0098 44.8896C39.4298 45.0796 37.8698 44.4996 36.5298 43.7396C36.4698 43.4796 36.7698 43.6696 36.8498 43.4596C37.0598 42.9396 36.9899 42.4196 37.4899 42.0096L37.4298 41.7896C36.8198 41.5596 36.7298 40.9396 36.9698 40.3596C37.0498 40.1496 37.3198 40.2496 37.3598 39.9296C37.3898 39.6796 37.3998 39.0396 37.3498 38.8096C37.3198 38.6596 36.8998 38.7696 37.0198 38.2996C37.0298 38.2396 37.4898 38.3196 37.3598 37.4796C37.3098 37.1696 37.0598 37.2596 37.0198 37.1396C36.8498 36.5496 37.3098 36.6096 37.3398 36.4796C37.5898 35.4196 37.3298 35.1296 37.8198 33.8596C37.9298 33.5696 37.8798 33.1796 38.0398 32.8896C38.1098 32.7996 38.3198 32.7496 38.4398 32.7196C39.3998 32.5596 42.7398 33.3096 43.9398 33.4896C48.9498 34.2796 53.7799 35.8896 58.8299 36.3296C59.3599 36.3796 59.9198 36.7596 60.4898 36.7496C60.8398 37.4396 61.5598 37.9196 61.6698 38.6896C62.0898 39.1996 63.1799 39.4796 63.4699 38.8096C63.5999 38.5096 63.5598 38.1296 63.6998 37.8496C63.8998 37.4596 65.1799 36.5596 64.5099 36.0196C63.8199 35.5996 63.0099 35.7296 62.3299 35.5996C61.4299 35.4196 60.4199 35.0496 59.5399 34.9696C58.8399 34.9096 58.0698 35.1196 57.4298 34.9796C55.5798 34.5796 53.7898 33.8096 51.8998 33.4996C47.4198 32.7696 42.7299 31.9296 38.2399 31.5496C37.9399 31.5196 37.6498 31.3996 37.3498 31.3796C37.3298 30.0796 38.0798 29.9896 39.1898 30.1096C40.9398 30.2996 43.0298 31.0496 44.7798 31.3496C49.2098 32.0896 53.7399 32.5896 58.1299 33.2896C60.0399 33.5896 62.4198 34.3396 64.2798 34.4696C65.2898 34.5396 65.7898 33.8296 66.7498 34.5096L66.7398 34.4996ZM46.1198 35.4496C46.1498 35.1596 46.1498 34.9396 45.8498 34.8296L44.4899 34.7996C44.7199 35.5596 44.3198 35.6296 44.1798 35.8996C44.0898 36.0796 44.0699 36.5096 43.9899 36.5696C43.7999 36.7096 43.1898 36.3896 43.1998 36.7496C43.9998 36.9296 44.9298 36.9796 45.4198 36.2096C45.6098 35.9096 45.3298 35.3596 46.1298 35.4496H46.1198ZM48.0698 36.2696C47.3898 36.1796 46.8298 36.3496 46.2298 36.6296L45.1398 37.7296H46.0198C46.1998 36.7696 47.2698 36.9396 48.0598 36.7496V36.2696H48.0698ZM44.9798 37.7296C44.6598 37.7196 42.9198 37.7696 43.0298 38.2996C43.4598 38.8396 44.1898 38.3796 44.6498 38.1296C44.8598 38.0096 45.0698 38.1796 44.9798 37.7396V37.7296ZM47.5598 40.7996L47.4198 39.7496L45.9498 39.6796C46.0498 40.5496 46.6898 41.0896 47.5598 40.7996ZM46.4398 40.9796C45.7198 41.1396 43.8898 40.4896 43.9998 41.6296C44.9198 41.2396 45.6098 41.7996 46.4198 41.6096L46.4398 40.9796Z" fill="white"/>
<path d="M97.1903 32.6899C96.9103 33.8899 98.2502 33.7799 98.5902 34.3699C98.8002 34.7299 99.0103 35.5699 99.2303 35.9299C99.4903 36.3499 100.53 36.3499 100.28 37.2399L101.11 36.9699L101.34 35.9399C101.43 35.9199 102.01 36.4299 102.02 36.4699C102.21 36.9099 102.07 38.6999 102.23 39.4099C102.6 40.9899 102.79 44.4999 102.56 46.2799C102.52 46.5899 102.25 46.4299 102.21 46.7499C101.78 50.1799 102.5 54.7599 102.07 58.1599C102.03 58.4699 101.76 58.3099 101.72 58.6299C101.39 61.2299 101.9 64.5999 101.58 67.1099C101.54 67.4199 101.27 67.2599 101.23 67.5799C100.91 70.0999 101.35 72.4199 100.76 74.9399C100.51 75.9999 100.69 76.5499 100.28 77.8799C100.17 78.2299 100.22 78.6999 100.09 79.0899C99.8602 79.7499 98.9702 79.4799 98.4402 79.5899C97.9102 79.6999 95.8102 80.4199 95.2602 80.6399C95.0302 80.7299 95.0503 81.2599 94.1903 81.0299C93.6303 79.8899 94.0302 78.5499 94.1002 77.3699C94.1402 76.7199 93.9702 75.6699 94.1002 75.1199C94.7602 72.2999 94.2002 69.0699 94.5702 66.1299C94.6102 65.8199 94.8802 65.9799 94.9202 65.6599C95.3102 62.6099 94.6702 58.4699 95.0602 55.3899C95.1002 55.0799 95.3703 55.2399 95.4103 54.9199C95.6703 52.8599 95.0302 49.9699 95.9002 48.0899L95.8802 35.0799L96.3602 34.9799C96.4602 34.2899 96.0902 33.7499 96.8602 33.4499C96.8602 33.3699 95.5203 32.8999 97.1903 32.7199V32.6899Z" fill="white"/>
<path d="M78.6001 18.7497C79.9801 19.6897 79.6301 19.3697 81.2301 19.7797C85.9901 20.9897 90.9501 21.6097 95.7701 22.6497C96.5201 22.8097 96.9001 22.9797 97.7201 23.1297C105.19 24.5397 111.16 27.3497 117.58 31.2497C118.27 31.6697 121.59 33.6997 121.91 34.0697C122.09 34.2697 122.12 34.3497 122.08 34.6297C119.17 34.4297 115.92 34.6997 113.05 34.4697C110.8 34.2897 105.67 31.1897 103.25 30.1197C96.7601 27.2697 92.2301 26.6397 85.4901 25.1097C84.4001 24.8597 80.4401 24.0597 79.8501 23.3497C79.6201 23.0797 79.6801 22.0097 79.8301 21.7997C79.8801 21.7197 81.5401 21.2497 81.0101 20.6197C80.6501 20.3497 79.2201 20.7797 78.7901 20.9697C78.6601 21.0297 78.6501 21.2097 78.5501 21.2897C77.9801 21.6997 77.8701 21.3797 78.0401 22.5697C78.5601 22.6297 79.8201 23.3497 79.0601 23.8797C75.8801 23.2097 72.2701 22.7697 69.2801 21.4997C68.8601 21.3197 68.0301 21.0397 68.5401 20.4597C69.1601 19.7597 70.5901 20.3697 71.2801 20.3297C71.7501 20.2997 72.2601 19.7697 72.9201 19.6797C73.5401 19.5897 76.3201 19.5897 76.7701 19.8297C77.1201 20.0197 76.9801 20.6097 77.8701 20.0697L78.0301 19.1797C77.2801 19.2897 76.5701 19.0397 75.8401 19.0097C73.9401 18.9397 71.7601 19.5197 69.9601 18.8697C69.7301 18.7897 69.6901 18.9197 69.7301 18.5297C70.3401 18.4797 71.0001 18.2497 71.6001 18.2097C72.5801 18.1397 78.0601 18.3597 78.6201 18.7497H78.6001ZM74.3801 21.2697C75.1301 20.5797 73.3801 20.5797 72.9501 20.6597V21.1497C73.4401 21.0297 73.9901 21.6297 74.3801 21.2797V21.2697ZM84.5001 21.9497L82.8001 22.1297C82.3701 22.3797 82.6601 23.2197 83.2001 23.2497L83.0401 22.4397C83.4001 22.4297 83.7601 22.3697 84.1101 22.2797C84.3801 22.2097 84.5801 22.4397 84.5001 21.9497ZM97.8401 27.6397C98.9601 27.7297 100.2 27.9397 101.32 27.7897C102.51 27.6297 103.84 26.8797 105.21 27.1297L105.49 26.7497C104.89 25.8397 102.89 25.0497 101.83 25.2197C101.55 25.2597 100.47 25.8997 100.18 26.0897C100 26.2097 99.6801 26.7397 99.5801 26.7897C99.3401 26.9197 97.9501 26.9997 97.8401 27.1697V27.6497V27.6397Z" fill="white"/>
<path d="M100.71 4.93978C101.16 5.13978 101.19 5.95978 101.09 6.38978C101.06 6.50978 100.82 6.48978 100.78 6.61978C99.5498 10.8498 94.3498 13.2598 90.1998 14.3898C86.3398 15.4398 81.8098 15.8998 77.8398 15.6098C78.1998 15.3598 78.6398 14.8598 78.9398 14.6298C83.7599 11.0198 93.0598 4.90978 99.0698 4.70978C99.5898 4.68978 100.24 4.71978 100.72 4.93978H100.71Z" fill="white"/>
<path d="M47.6402 15.0598C47.7202 15.1398 48.2002 15.3198 47.9802 15.4498C42.1302 15.2898 34.6202 15.0898 29.6202 11.6798C29.1702 11.3698 27.5302 9.79982 27.4402 9.31982C27.3202 8.67982 27.4402 7.96982 27.4002 7.31982C28.7902 7.18982 29.9402 6.86982 31.3702 7.00982C35.8902 7.46982 44.4002 11.8998 47.6302 15.0598H47.6402Z" fill="white"/>
<path d="M36.0298 22.61L35.6998 22.85L36.0298 23.01V23.32C35.7398 23.72 35.0298 23.84 34.7698 24.11C34.6598 24.22 34.6498 24.45 34.5598 24.59C34.3698 24.9 34.0498 24.86 34.2198 25.67C28.9798 26.74 23.5898 27.83 18.5398 29.58C16.2098 30.39 13.8798 31.61 11.5798 32.38C11.3198 32.47 11.0998 32.56 10.8098 32.51C10.5898 32.31 11.3698 31.55 11.5098 31.43C16.4598 27.39 20.3298 25.49 26.5798 23.81C28.5398 23.28 32.2298 22.25 34.1498 22.25C34.7998 22.25 35.3198 22.77 36.0198 22.59L36.0298 22.61Z" fill="white"/>
<path d="M74.37 26.2298C74.47 26.2898 74.45 26.6198 74.83 26.6798C75.21 26.7398 75.63 26.4698 76.11 26.5098C76.54 26.5498 77.02 26.8598 77.48 26.9498C79.43 27.3198 81.39 27.7498 83.34 28.0898C85.29 28.4298 87.42 28.5498 89.39 29.0298C88.85 29.3698 87.81 29.6198 87.16 29.7198C86.35 29.8498 84.26 29.7798 83.8 29.9398C83.72 29.9698 82.68 30.6498 82.44 30.7198C80.42 31.2998 77.9 31.1198 75.77 31.4998C75.46 31.5498 75.18 31.8098 74.83 31.8598C74.26 31.9498 73.56 31.6998 73.24 31.7498C72.72 31.8398 72.01 32.8298 71.35 31.7098L72.13 31.3598C72.35 30.9998 71.55 30.3998 71.23 30.2598L70.21 30.5698C69.96 29.6698 71.24 30.0798 71.35 29.6698C71.55 29.0898 70.18 28.6398 69.92 28.9798C69.81 29.1298 69.86 29.4598 69.73 29.6398C69.58 29.8398 69.17 30.0898 68.97 30.3098C68.85 30.4498 68.91 30.7798 68.64 30.8798C68.05 31.0998 66.53 30.7198 66.98 29.9598C67.07 29.8098 67.88 29.6598 67.92 29.1898C67.4 28.8898 67.23 28.6998 67.43 28.0898C68.15 27.4098 69.05 28.1498 69.59 28.1098C70.09 28.0698 71.01 27.5198 71.58 27.3198C71.84 27.2298 72.93 27.0498 72.96 26.9898C73.35 26.3698 71.87 26.3998 72.15 25.6998C72.85 25.6598 73.77 25.8898 74.38 26.2398L74.37 26.2298Z" fill="white"/>
<path d="M87.4102 5.05998L87.4402 6.65998C88.2202 6.69998 88.5702 5.70998 89.2202 6.65998C88.7602 6.69998 88.4802 7.40998 88.1402 7.60998C87.7302 7.84998 87.0002 7.99998 86.5702 8.43998C86.3502 8.65998 86.4402 8.98998 86.2502 9.21998C85.8302 9.73998 80.2302 12.96 79.3002 13.42C79.1202 13.51 78.8102 13.43 78.6802 13.53C78.6202 13.58 78.6602 13.82 78.5902 13.91C78.2302 14.36 77.8302 14.62 77.2302 14.35C77.1602 14.32 76.1302 13.36 76.1002 13.29C76.0202 13.09 75.9902 11.71 76.0502 11.5C76.0902 11.36 76.3402 11.34 76.4302 11.2C77.4502 9.65998 77.1202 10.42 78.4502 9.63998C78.7902 9.43998 79.1502 8.77998 79.4302 8.62998C79.6402 8.51998 80.5102 8.38998 80.5802 8.27998C80.6902 8.09998 80.5102 7.65998 80.6302 7.50998C80.6802 7.44998 81.4602 7.27998 81.6302 7.15998C81.7702 7.05998 81.8202 6.65998 82.1402 6.41998C82.3502 6.25998 84.0302 5.12998 84.1402 5.07998C84.3202 5.00998 85.9502 4.57998 86.0502 4.56998C86.5002 4.55998 86.9502 5.03998 87.4102 5.05998ZM84.5002 6.98998C84.0902 6.93998 83.7002 6.77998 83.3102 7.01998C82.1602 7.73998 84.6502 8.22998 84.5002 6.98998Z" fill="white"/>
<path d="M34.08 20.6497C34.05 20.9297 33.47 20.9697 33.24 21.0297C31.43 21.4897 29.51 21.6897 27.67 22.1297C24.06 22.9897 20.65 24.4797 17.01 25.1297L8.87002 23.8997C8.82002 23.6397 8.92002 23.5497 9.15002 23.4497C9.51002 23.2897 11.06 23.0697 11.6 22.9697C17.32 21.9297 23.11 21.2497 28.82 20.1797C30.57 20.1497 32.41 20.1597 34.08 20.6497Z" fill="white"/>
<path d="M6.39 40.6899C6.57 40.9799 6.39 41.5699 7.2 41.7599C7.69 41.8699 8.05 41.5699 8.43 41.6199C8.49 41.6199 8.66 41.9999 8.93 42.1199C9.61 42.4399 10.56 42.6699 11.31 42.5999L11.29 43.3999L10.5 43.5899V44.0699L11.31 44.2399L10.81 44.9699L10.99 46.0699L13.1 46.5199C12.87 46.9399 11.62 47.1099 11.8 47.7299C11.82 47.8099 12.1 47.7999 12.13 47.9199C12.21 48.2699 12.01 48.8299 12.21 49.1199C12.29 49.2399 15.18 50.3499 13.02 50.7299C11.8 50.9399 11.88 49.9799 11.45 49.8099C11.08 49.6699 10.63 49.8299 10.23 49.6599C10.01 49.5599 10 49.2799 9.87 49.2099C9.57 49.0399 8.94 49.0599 8.57 48.7899C8.67 48.4899 9.54 48.4299 9.79 48.4499C10.04 48.4699 10.46 49.2999 11.01 48.8699C11.01 48.2799 10.48 48.2399 10.16 47.9799C9.67 47.5799 9.46 46.9699 8.57 47.1699C8.38 47.5799 8.86 47.4299 8.9 47.5999C9.19 48.8799 7.42 48.3599 7.09 48.8999C6.96 49.1099 7.02 49.4499 6.93 49.6399C6.86 49.7799 6.69 49.7899 6.64 49.8999C6.26 50.6799 6.69 50.8099 7.42 50.9199V51.4399L6.14 52.5299C6 51.5899 6.48 50.3899 5.8 49.6899C5.77 49.3099 6.29 49.1999 6.15 48.2099C6.11 47.8999 5.84 48.0599 5.8 47.7399C5.59 46.0599 5.69 43.0999 5.78 41.3899C5.79 41.1399 5.6 40.8499 5.65 40.5799C5.75 40.3699 6.38 40.6099 6.43 40.6999L6.39 40.6899ZM9.3 45.2599C9.22 45.1599 8.62 44.7899 8.54 44.8799C8.54 45.2499 8.41 45.5999 8.86 45.5299L8.05 46.3399C8.66 46.5899 9.82 45.9399 9.3 45.2499V45.2599Z" fill="white"/>
<path d="M7.84984 30.12L8.06984 31.36C9.23984 31.41 9.19984 32.37 8.04984 32.36C7.99984 32.95 8.96984 32.82 9.03984 33.42C9.12984 34.21 8.30984 33.7 8.37984 34.31C8.74984 34.31 10.1598 34.76 10.2898 35C10.3998 35.19 10.3498 35.72 10.4598 36.04C10.5498 36.3 11.0098 36.34 10.8098 36.91C11.3398 36.91 11.7998 36.69 12.3498 36.74C12.9598 36.79 13.4298 37.26 14.1398 37.25C14.7798 37.25 15.3098 36.66 15.8998 37.06C16.2198 37.28 15.9798 37.95 16.4898 37.89V38.05C15.9998 37.95 16.1398 38.74 15.9898 38.85C15.7298 39.03 14.6698 38.65 14.4098 38.44C14.0998 38.19 14.2498 37.93 14.2098 37.9C14.0798 37.78 13.4598 38.07 13.1898 38.03C12.7298 37.96 11.9798 37.04 11.2898 37.81C12.8598 39.34 9.84984 38.84 8.84984 38.7L8.93984 37.88C8.34984 37.23 7.77984 37.91 7.18984 37.86C6.34984 37.78 5.53984 36.93 5.35984 36.91C4.78984 36.83 3.99984 37.45 3.32984 37.25V36.44C4.14984 36.67 4.14984 36.1 4.50984 35.89C4.92984 35.64 5.41984 35.56 5.76984 35.22L5.10984 34.88C4.73984 34.96 4.69984 35.36 4.59984 35.42C4.10984 35.71 2.92984 35.02 3.34984 34.49C3.41984 34.4 3.99984 34.66 3.81984 34.15L2.85984 33.97L2.83984 32.69C4.57984 32.73 5.72984 34.17 7.38984 33.01C7.49984 32.54 7.05984 32.79 6.96984 32.37C6.84984 31.87 7.18984 31.3 6.78984 30.89C5.83984 29.92 5.09984 31.78 4.62984 30.66C5.09984 30.01 7.34984 29.64 7.83984 30.13L7.84984 30.12ZM8.04984 34.31C7.93984 33.34 6.66984 34.09 6.09984 34.15C5.85984 34.39 6.11984 34.44 6.33984 34.47C6.91984 34.55 7.48984 34.39 8.04984 34.31ZM10.8198 37.24C10.7598 37.19 9.33984 37.42 9.51984 37.89L10.7198 37.87C11.0698 37.84 10.8498 37.26 10.8198 37.24Z" fill="white"/>
<path d="M102.82 8.84969C102.82 8.84969 102.89 9.03969 103.01 9.09969C103.33 9.24969 104.28 9.35969 104.43 9.58969C104.57 10.0297 104.56 10.5997 104.39 11.0297C103.97 12.0897 101.56 14.1097 100.49 14.7797C99.5499 15.3597 98.4199 15.7097 97.5899 16.4497L96.0499 16.2697L95.8599 15.1597C94.7899 15.3997 94.1299 15.0297 93.1099 14.8097C93.2899 14.4397 93.9599 14.4597 94.2999 14.2897C96.8999 12.9697 99.6199 11.4497 101.25 8.92969C101.77 8.12969 102.12 8.53969 102.8 8.86969L102.82 8.84969Z" fill="white"/>
<path d="M96.0302 27.9896V28.6096C95.2402 28.5996 93.9102 29.2096 93.2202 29.1096C92.8502 29.0596 92.1602 28.5696 91.6302 28.4196C84.8302 26.3896 76.9602 25.9896 70.0002 24.1896C69.3802 24.0296 68.1502 23.7396 67.6402 23.4596C67.4502 23.3596 67.3702 23.4596 67.4302 23.0996C67.7402 23.0696 68.0102 22.8696 68.3202 22.8496C69.3302 22.7896 72.0102 23.2996 73.0902 23.5296C77.6902 24.4996 82.4102 25.4296 87.0702 26.4596C90.0302 27.1196 93.0402 27.5196 96.0302 27.9896Z" fill="white"/>
<path d="M26.1799 10.4997C26.9699 11.2297 28.2099 12.0497 28.8199 12.7397C28.9299 12.8597 28.9099 13.1697 29.0399 13.2497C29.2799 13.4097 29.7299 13.2497 29.8499 13.3497C29.8999 13.3897 29.7699 13.6497 30.0599 13.8697C30.5299 14.2397 32.1299 14.3397 32.7999 14.5397C34.1299 14.9297 35.4099 15.5697 36.7599 15.9097C37.2099 16.5997 36.3199 16.8097 35.8399 17.0697C35.7399 17.1197 35.7399 17.3097 35.5899 17.3697C35.1199 17.5597 34.0499 17.5997 33.5399 17.5297C33.1999 17.4797 29.6199 15.7797 29.0699 15.4897C27.2399 14.5197 26.1099 13.7097 25.4599 11.8097C25.4199 11.6797 25.1799 11.6897 25.1499 11.5697C24.9599 10.7697 25.2499 10.5797 25.7099 10.0597C25.9799 9.98972 26.0299 10.3497 26.1799 10.4797V10.4997Z" fill="white"/>
<path d="M35.5199 3.7596C35.6299 3.8396 35.6899 4.3596 35.7099 4.5496L37.4099 4.3796C37.5799 4.4296 37.4099 5.0096 37.8299 4.8796L36.1699 6.8796C35.4199 7.2196 33.2099 6.5596 32.2199 6.4896C30.8499 6.3996 29.4399 6.6296 28.1399 6.6296C26.6699 6.6296 28.1299 5.5696 28.3299 5.3096C28.4799 5.1096 28.4299 4.7996 28.5899 4.5896C28.9299 4.1696 31.7499 3.4996 32.3899 3.4696C32.7499 3.4496 35.3499 3.6596 35.5099 3.7596H35.5199Z" fill="white"/>
<path d="M66.7098 30.6399C66.9698 30.7899 68.0798 31.5599 68.1898 31.7599C68.2898 31.9299 68.1798 32.2299 68.2598 32.3299C68.3498 32.4399 69.0098 32.3499 68.8798 32.8499C68.1698 33.0799 67.6198 32.5199 67.1298 32.4099C66.2398 32.1999 65.1698 32.1499 64.2598 31.8899L63.9998 32.2899C64.0698 32.6099 65.3198 32.5999 64.9698 33.0199C63.7898 33.6499 62.2898 33.4999 61.1398 32.8599L61.2398 32.2099C62.0098 32.4699 62.6898 32.6299 63.5198 32.5299C62.7498 31.5099 61.8898 32.0699 61.0098 32.0499C60.0198 32.0299 58.7898 31.2099 57.6098 31.5599C56.9898 30.5899 57.8998 30.8099 58.3598 30.5699C58.4998 30.4999 58.4998 30.2899 58.6898 30.2099C59.0198 30.0599 60.5998 29.4399 60.8498 29.4599C61.1698 29.4799 61.3298 29.8299 61.6498 29.8599C61.9698 29.8899 62.4798 29.6599 62.8298 29.6699C64.3498 29.6999 65.3898 29.9099 66.7198 30.6499L66.7098 30.6399ZM64.0098 30.8999L60.2698 30.5699C60.2298 30.9899 60.2498 30.8399 60.5098 30.8899C61.0998 30.9999 62.8598 31.3899 63.2798 31.3599C63.4198 31.3599 63.9898 31.1099 63.9998 30.8899L64.0098 30.8999Z" fill="white"/>
<path d="M97.1502 2.79972C97.8302 4.46972 96.5902 4.02972 95.5502 4.29972C94.2402 4.62972 91.7401 5.63972 90.5901 5.69972C89.5501 5.74972 88.5102 4.63972 87.9102 3.98972C87.9902 3.85972 88.3102 3.27972 88.3502 3.24972C88.8302 2.98972 90.5402 2.63972 91.1602 2.51972C92.0702 2.33972 94.1301 1.91972 94.9501 1.98972C95.5901 2.03972 96.3702 2.82972 97.1502 2.79972Z" fill="white"/>
<path d="M16.9999 26.3496L15.9099 27.3296C14.9099 27.8996 14.2499 27.3296 13.3299 27.1696C9.95989 26.5696 6.13989 25.7696 2.70989 24.9396C2.55989 24.8996 1.54989 24.7296 1.86989 24.3996C2.63989 24.1396 3.56989 23.9196 4.37989 24.0796C4.73989 24.1496 4.93989 24.4796 5.36989 24.5496C8.67989 25.0796 12.0999 25.3296 15.4299 25.8796C15.9899 25.9696 16.4899 26.0996 16.9899 26.3496H16.9999Z" fill="white"/>
<path d="M88.9498 18.3197C88.8498 18.2097 88.8898 17.9097 88.7398 17.7997C88.5398 17.6597 88.0698 17.7297 87.7898 17.6097C87.2698 17.3997 86.9098 16.9697 86.2998 17.0697V16.5897C86.5598 16.5797 86.8098 16.5097 87.0598 16.4497C89.8698 15.8197 91.1898 15.6697 93.8598 16.5897C94.2398 16.7197 96.2798 16.9197 95.4098 17.6397L90.5698 18.8197C90.1398 18.8397 89.2398 18.6497 88.9598 18.3197H88.9498Z" fill="white"/>
<path d="M59.2198 85.6199C59.6398 85.8699 59.8498 86.0699 60.4998 86.0299C61.1498 85.9899 61.1198 85.4599 61.3498 85.3999C61.5898 85.3299 63.5598 86.4199 64.0198 86.6099C65.5398 87.2299 65.7698 86.7099 65.6498 88.9699L63.5398 88.4799C63.4598 87.8699 64.1898 87.9099 64.0198 87.3499C63.2798 87.1799 62.5198 86.6899 61.7498 87.0199L62.2398 87.8299C61.3498 88.1599 60.5698 87.5299 59.8398 87.3799C59.4398 87.2999 59.0198 87.3799 58.6198 87.2999C57.6098 87.0899 56.5898 86.7899 55.5698 86.6099C55.2898 86.3899 55.4998 86.3799 55.6798 86.2199C56.4398 85.5599 56.8798 85.5099 57.8498 85.6299V84.8999C58.0798 84.6899 58.9898 85.4699 59.2398 85.6199H59.2198Z" fill="white"/>
<path d="M11.77 28.3198C12 28.6798 11.49 29.4198 11.25 29.6998C11.04 29.9498 9.11004 31.6398 8.87004 31.3798C8.87004 31.1098 8.95005 30.0798 9.06005 29.9498C9.20005 29.7898 11.31 29.7298 9.03004 29.0998L8.87004 29.8498L8.05005 29.7498C7.81005 29.1298 8.75005 29.2398 8.46005 28.7698C8.17005 28.7498 7.51004 27.9798 7.45004 27.9698C6.31004 27.7298 6.72004 27.8098 5.90004 27.4298C5.36004 27.1798 4.62005 27.3998 4.64005 26.4998C5.15005 25.9398 10.79 28.0398 11.77 28.3098V28.3198Z" fill="white"/>
<path d="M19.2298 32.7396C19.5098 32.9396 19.6398 33.2796 20.1498 33.5296C22.0898 34.4596 23.4698 33.8896 25.0598 32.6896C25.2198 32.7496 25.1498 33.0996 25.1398 33.2496C25.1098 33.6796 24.6898 34.7796 24.4798 35.1596C23.8998 36.1996 21.6098 35.7896 20.7198 35.2296C20.2698 34.9396 18.8098 33.6096 18.5798 33.1696C18.4598 32.9196 18.4198 32.8196 18.4698 32.5296C18.7598 32.4996 18.9898 32.5796 19.2298 32.7496V32.7396Z" fill="white"/>
<path d="M15.0498 33.9898L14.7298 34.3098C15.8998 34.7698 16.1498 36.0898 14.6498 36.2698C13.6198 36.3998 12.9698 35.8198 12.0998 35.3898C11.8998 35.2898 11.5798 35.2998 11.4598 35.2098C11.2098 35.0198 11.3598 34.6698 11.2898 34.4298C11.2498 34.2798 10.7898 34.3098 10.9698 33.8298C12.3098 33.5598 13.7498 33.4598 15.0298 33.9898H15.0498Z" fill="white"/>
<path d="M49.4301 11.3196C49.9501 11.7196 50.4001 11.6096 50.1601 12.4996C48.1901 13.4396 45.6501 11.7796 45.9501 9.58961C46.9001 9.39961 47.4401 10.0996 48.1701 10.5396C48.7401 10.8796 48.8601 10.8896 49.4201 11.3196H49.4301Z" fill="white"/>
<path d="M40.73 5.53975C40.77 5.58975 40.79 6.55975 40.75 6.70975C40.71 6.83975 40.03 7.25975 39.99 7.35975C39.86 7.64975 39.93 8.11975 39.77 8.44975C38.82 8.42975 38.13 7.81975 37.5 7.19975V6.76975C38.04 6.59975 37.78 5.72975 38.09 5.50975C38.77 5.02975 39.99 5.37975 40.73 5.53975Z" fill="white"/>
<path d="M108.25 21.2999C108.22 21.5299 107.72 21.7099 107.52 21.7899C106.15 22.3299 105.8 21.9399 104.61 21.9699C104.16 21.9799 103.63 22.2699 103.15 22.2599C102.8 22.2599 101.13 21.9099 101.98 21.6099C102.73 21.3399 105.12 20.8399 105.91 20.8099C106.75 20.7799 107.52 20.9299 108.26 21.2999H108.25Z" fill="white"/>
<path d="M62.7802 24.8096C63.5702 25.5396 64.3902 25.8496 65.4702 26.0296V26.5096C64.4802 26.7396 63.6802 26.1196 62.7902 26.0196C61.5902 25.8896 60.1902 26.1196 58.9702 26.0196L60.8802 25.2396C61.6302 24.5296 61.8802 23.9696 62.7802 24.7996V24.8096Z" fill="white"/>
<path d="M80.1201 18.21L80.3801 17.23C83.9601 16.97 83.0201 18.97 80.1201 18.21Z" fill="white"/>
<path d="M38.0598 50.1698C38.7898 51.1898 37.8398 51.1198 37.8798 51.9398C37.9198 52.7598 38.8498 52.5298 37.9298 53.6898C37.8098 53.8498 37.8598 54.0798 37.4998 53.9898C37.4998 53.6298 37.3198 53.2998 37.3198 52.9298C37.3298 51.8798 37.6598 50.8998 37.8198 49.9998C37.9498 49.7598 37.9898 50.0498 38.0598 50.1598V50.1698Z" fill="white"/>
<path d="M25.9102 40.8598L26.1102 42.2798C25.2702 42.4198 24.8602 41.5698 24.1602 41.2998C24.5102 40.7298 25.3202 40.4598 25.9102 40.8598Z" fill="white"/>
<path d="M8.65011 49.7799C9.31011 49.5799 10.3901 50.3599 10.9801 50.6499C10.4901 51.5299 7.28011 50.1999 8.65011 49.7799Z" fill="white"/>
<path d="M87.4302 18.8599C87.4902 19.2199 87.2802 19.2499 87.0102 19.3399C86.5302 19.4999 84.9802 19.6499 84.5902 19.3599L84.4902 18.8599H87.4202H87.4302Z" fill="white"/>
<path d="M55.1102 31.1799C54.2202 30.1699 56.3502 30.3899 56.5002 30.8399C56.9002 31.9799 55.6502 31.7999 55.1102 31.1799Z" fill="white"/>
<path d="M63.52 14.4699C63.57 14.8599 63.52 14.7299 63.29 14.8099C62.55 15.0899 61.82 14.9399 61.08 14.7899C60.91 13.9399 63.42 14.3699 63.52 14.4699Z" fill="white"/>
<path d="M103.85 6.66993C103.96 6.91993 103.93 7.29993 104.02 7.51993C104.11 7.72993 104.4 7.53993 104.34 7.79993H103.15C102.69 7.21993 103.08 6.56993 103.85 6.66993Z" fill="white"/>
<path d="M55.5102 84.1297C55.5802 84.1597 56.2302 84.7597 55.8802 84.9797C55.3202 85.3497 54.1902 84.9397 54.5702 84.0797C54.8702 84.0997 55.2102 84.0097 55.5102 84.1297Z" fill="white"/>
<path d="M65.6203 83.1296C65.6203 83.1296 65.6003 83.4096 65.6903 83.5396C65.7703 83.6596 66.0303 83.4996 65.9603 83.7496L64.0103 83.9096L64.1203 83.4196C64.4503 83.3196 65.3503 82.8596 65.6203 83.1196V83.1296Z" fill="white"/>
<path d="M57.9898 78.0596C58.1998 78.2696 57.2898 79.1896 57.2198 79.1996C56.8298 79.2996 56.2998 79.0396 56.0298 78.7496L56.1298 78.1996L57.9898 78.0596Z" fill="black"/>
<path d="M52.1301 83.9197L50.5501 84.5297L49.3701 84.5697V84.0797C50.3901 84.3097 51.2001 83.5197 52.1301 83.9197Z" fill="black"/>
<path d="M57.9902 67.3297C58.0102 68.1197 56.3102 68.1097 56.0402 67.8097C55.5602 67.2897 57.7702 67.2497 57.9902 67.3297Z" fill="black"/>
<path d="M41.0298 63.6099C41.2298 63.6099 41.2998 63.6799 41.3898 63.8399C41.2298 65.6899 39.2198 63.6999 41.0298 63.6099Z" fill="black"/>
<path d="M42.5402 65.3799L42.4402 65.8799C41.9702 66.1299 40.9602 66.1499 41.3202 65.3799H42.5402Z" fill="black"/>
<path d="M48.7202 74.1597C49.0502 74.4297 47.8502 74.8497 47.6802 74.8197L47.4102 74.2397C47.4102 73.9997 48.5502 74.1397 48.7202 74.1497V74.1597Z" fill="black"/>
<path d="M41.3999 79.69L40.5199 79.54C39.8899 79.07 41.6499 78.27 41.3999 79.69Z" fill="black"/>
<path d="M60.2699 80.3398V81.1498C60.1699 81.2598 58.8799 80.8098 59.3799 80.3398H60.2699Z" fill="black"/>
<path d="M16.47 70.1296C16.57 70.1896 17.05 70.8696 17.26 71.0396C17.75 71.4296 18.83 72.1896 19.39 72.3296C19.67 72.3996 19.96 72.3596 20.25 72.3696C20.4 72.9196 19.92 73.3296 19.44 73.5096L19.93 73.6696V74.1496L18.95 74.6496C19.81 76.0196 21.44 74.8296 22.69 74.8096L21.23 75.6296L21.39 76.5996L19.44 76.9296C19.28 76.4496 20.01 76.7096 19.76 76.2796C19.75 76.2596 19.33 75.9696 19.3 75.9596C18.53 75.6396 18.41 76.3996 17.65 76.2696C17.98 74.8696 16.13 75.0296 15.73 74.6096C15.63 74.4996 15.13 73.3996 15.21 73.1796C16.15 73.0396 16.59 74.1196 17.44 73.1296C18.17 72.2696 17.15 72.2696 16.77 72.0196C16.56 71.8796 16.14 71.2196 16.02 71.1596C15.61 70.9496 14.64 71.2196 14.72 70.5796C15.19 70.4396 15.99 69.8496 16.47 70.1296Z" fill="black"/>
<path d="M13.5799 68.7896C13.5599 68.6696 13.6399 68.5296 13.4699 68.4496C13.0799 68.1496 12.5899 68.1796 12.1699 67.9796C11.7499 67.7796 11.4299 67.1196 10.8499 67.0196C9.88991 66.8596 9.8099 67.7896 9.7299 67.8196C9.5599 67.8696 8.1799 67.7596 8.3599 67.3996C8.4099 67.2996 10.1399 66.3596 10.2399 66.3396C10.7899 66.2596 11.4899 66.6496 12.0999 66.4996V66.0096C11.8899 66.1296 10.6699 65.6796 10.9599 65.3596C11.7099 65.0896 12.2299 65.9296 13.0699 65.6796C13.2699 64.5296 10.9899 65.1996 11.5399 64.1996C11.8799 63.9496 12.7199 64.2996 12.5799 63.7296L10.4599 63.3996L10.4799 62.6096C11.0799 62.1496 12.3199 62.8596 12.8599 62.6396C13.1399 62.5296 13.0599 62.2096 13.2299 62.0296C13.5999 61.6296 14.4699 61.3896 15.0199 61.4496L14.9199 61.9496L13.7199 62.2596C13.6599 62.4996 13.9299 62.3696 14.0399 62.5296C14.5699 63.2596 13.2599 63.1496 13.5399 64.1096C13.5699 64.2096 15.1799 64.5696 13.2299 65.3496L13.5499 65.9896C12.5799 66.1996 12.6799 66.6196 12.7299 67.5096C13.4699 68.2496 14.5199 67.1196 15.2699 67.1296C16.0899 67.1496 15.6799 68.9196 14.1199 68.9196C13.8899 68.9196 13.6299 68.7496 13.5499 68.7496C13.5899 68.9996 13.5299 69.2996 13.5499 69.5596C12.9199 69.4596 12.7199 69.5796 12.2499 69.8896C12.1299 70.3196 12.4899 70.1196 12.5999 70.4396C12.6599 70.6196 12.6899 71.0196 12.5299 71.1496L10.9499 71.6696L10.7799 71.1896L11.7599 71.0196V70.5396C11.1799 70.3396 10.4599 70.1996 9.9599 70.6396L9.7799 71.6396C8.1999 72.3496 9.0699 70.4296 8.9899 69.5496C9.6799 69.5296 10.2999 69.8196 11.0099 69.6996C11.5899 69.5996 11.6699 69.1396 11.9499 69.0096C12.3099 68.8396 13.1199 68.7396 13.5399 68.7296L13.5799 68.7896Z" fill="black"/>
<path d="M9.58999 63.0299C9.86999 63.4599 9.80998 63.5599 9.99998 63.9699C10.06 64.1099 10.45 63.9999 10.33 64.4799C9.86998 64.6099 10.02 65.0199 9.84999 65.2699C9.33999 66.0299 7.40999 65.4699 7.88999 64.8999C7.90999 64.8699 8.65998 64.8999 8.53998 64.4899C8.47998 64.2899 7.13998 63.9199 8.83999 63.5699L8.85998 62.4499C9.46998 62.3299 9.36998 62.6999 9.57998 63.0299H9.58999Z" fill="black"/>
<path d="M18.9199 60.8599C19.1099 61.4099 20.6099 62.1599 20.2299 62.7499C19.8499 63.3399 18.5999 62.2499 18.1699 62.1599C17.6499 62.0499 17.1999 62.4199 16.6699 62.1199C17.1699 61.2599 17.8899 60.9099 18.9099 60.8599H18.9199Z" fill="black"/>
<path d="M20.7402 59.0399L20.2202 59.9799L19.9402 60.1199C19.3902 60.2499 18.7902 59.7699 18.0602 59.8499C17.5302 59.9099 17.1102 60.4199 16.5202 60.3499C16.3802 59.4499 16.8602 59.6199 17.3702 59.3599C17.4902 59.2999 17.5002 59.0699 17.6102 59.0499C18.2102 58.9299 18.7802 59.4299 19.3702 59.3899C19.8202 59.3599 20.2002 58.8699 20.7502 59.0499L20.7402 59.0399Z" fill="black"/>
<path d="M15.5102 54.6698C15.5402 55.3198 16.3302 55.3498 16.1802 56.1098C15.6402 56.0598 15.3302 55.7498 14.7402 55.7198C14.4102 55.6998 13.4402 55.9998 13.2502 55.7898C13.1002 55.6198 13.8502 54.9898 13.9402 54.9398C14.2202 54.7898 15.3102 54.4898 15.5002 54.6798L15.5102 54.6698Z" fill="black"/>
<path d="M16.1901 60.3399L16.1201 61.1599C15.7201 61.7299 14.5001 60.8599 14.0801 60.5799C14.7701 60.1999 15.4401 60.2799 16.1901 60.3399Z" fill="black"/>
<path d="M16.9999 64.8896C17.3699 64.9996 19.0599 64.9096 18.9499 65.4596C18.8499 65.9296 16.6999 65.7796 16.9999 64.8896Z" fill="black"/>
<path d="M14.28 70.5398C14.32 70.6198 14.71 70.4998 14.55 70.9098L13.27 70.7298L13.25 69.7798L14.08 69.8498C14.26 69.9798 14.18 70.3298 14.28 70.5498V70.5398Z" fill="black"/>
<path d="M18.2898 51.2399V51.7199C17.6298 51.7799 16.0498 51.7599 16.7798 50.8999L18.2898 51.2399Z" fill="black"/>
<path d="M21.3902 50.8999C21.5802 51.9899 20.8202 52.0999 19.9302 52.0399L20.0302 51.5399L21.4002 50.8999H21.3902Z" fill="black"/>
<path d="M22.6299 66.2897C21.7699 67.4997 20.8099 66.4297 21.3399 66.1897L22.7799 65.6997C23.0199 65.8397 22.7299 66.1397 22.6299 66.2897Z" fill="black"/>
<path d="M15.4699 72.6299C15.3499 72.8299 14.9699 73.1599 14.7299 73.0099C14.6699 72.7199 14.4299 72.2999 14.6299 72.0299C14.8399 71.7399 16.0499 71.6499 15.4699 72.6299Z" fill="black"/>
<path d="M20.4199 73.8299L21.8799 72.8599C22.0599 73.9199 21.2999 74.1899 20.4199 73.8299Z" fill="black"/>
<path d="M19.4402 49.1196C18.9902 49.8196 18.2402 49.8296 17.4902 49.7696C17.5602 49.0296 18.9102 49.1796 19.4402 49.1196Z" fill="black"/>
<path d="M24.16 64.4C24.58 64.84 22.88 64.98 22.7 64.88C22.4 64.02 23.93 64.15 24.16 64.4Z" fill="black"/>
<path d="M20.6999 65.7496C20.7999 65.8296 20.9799 66.2896 20.9099 66.3596L19.4499 66.0296C19.3199 65.4196 20.4399 65.5396 20.7099 65.7496H20.6999Z" fill="black"/>
<path d="M19.5 71.0097C19.78 71.2097 20.04 71.3697 20.39 71.4197L20.42 72.0497C20.01 72.0097 19.91 71.5897 19.68 71.4197C19.51 71.2997 18.38 71.0597 18.8 70.5897C19.09 70.2697 19.42 70.9597 19.51 71.0197L19.5 71.0097Z" fill="black"/>
<path d="M23.3401 55.2898C23.4801 56.0298 23.0001 56.1798 22.3701 56.2598L22.3901 55.4698L23.3401 55.2798V55.2898Z" fill="black"/>
<path d="M19.2698 45.2198L19.1798 45.7098L18.5698 45.8498L18.3198 45.5998L18.2998 45.0498L19.2698 45.2198Z" fill="black"/>
<path d="M34.7302 31.2199C33.3402 31.2599 31.9002 31.1399 30.5602 30.7499C29.9502 30.5699 29.7402 30.6999 29.8502 29.9199L34.4602 30.5999L34.7302 31.2199Z" fill="black"/>
<path d="M34.4899 28.4596C34.7999 28.5196 35.1899 28.9196 35.5499 28.9496L35.4699 29.2696L31.9199 28.9196L31.6499 28.4596C32.5099 28.5696 33.6899 28.3096 34.4999 28.4596H34.4899Z" fill="black"/>
<path d="M38.9599 27.1598C39.0099 27.9498 36.7299 27.8398 36.5199 27.6498C36.4799 27.2098 36.5199 27.3898 36.7599 27.3298C37.4699 27.1598 38.2199 27.1398 38.9599 27.1698V27.1598Z" fill="black"/>
<path d="M46.1199 35.4498C45.3199 35.3598 45.6099 35.9098 45.4099 36.2098C44.9199 36.9698 43.9799 36.9298 43.1899 36.7498C43.1899 36.3898 43.7899 36.7098 43.9799 36.5698C44.0699 36.5098 44.0799 36.0798 44.1699 35.8998C44.3099 35.6298 44.7099 35.5598 44.4799 34.7998L45.8399 34.8298C46.1399 34.9398 46.1399 35.1598 46.1099 35.4498H46.1199Z" fill="black"/>
<path d="M48.0701 36.2698V36.7498C47.2701 36.9398 46.2101 36.7698 46.0201 37.7398H45.1401L46.2301 36.6298C46.8301 36.3498 47.3901 36.1798 48.0701 36.2698Z" fill="black"/>
<path d="M47.5602 40.7997C46.6902 41.0897 46.0502 40.5497 45.9502 39.6797L47.4202 39.7497L47.5602 40.7997Z" fill="black"/>
<path d="M46.4399 40.98L46.4199 41.61C45.6099 41.8 44.9199 41.23 43.9999 41.63C43.8899 40.49 45.7199 41.14 46.4399 40.98Z" fill="black"/>
<path d="M44.9799 37.7298C45.0699 38.1798 44.8599 38.0098 44.6499 38.1198C44.1899 38.3698 43.4599 38.8298 43.0299 38.2898C42.9199 37.7598 44.6599 37.7098 44.9799 37.7198V37.7298Z" fill="black"/>
<path d="M97.8398 27.6397V27.1597C97.9598 26.9897 99.3398 26.9097 99.5898 26.7797C99.6898 26.7297 100.01 26.1997 100.19 26.0797C100.48 25.8897 101.57 25.2497 101.84 25.2097C102.9 25.0397 104.89 25.8297 105.5 26.7397L105.22 27.1197C103.85 26.8697 102.52 27.6197 101.33 27.7797C100.2 27.9297 98.9698 27.7197 97.8498 27.6297L97.8398 27.6397Z" fill="black"/>
<path d="M84.5002 21.9497C84.5802 22.4397 84.3802 22.2097 84.1102 22.2797C83.7702 22.3697 83.4002 22.4297 83.0402 22.4397L83.2002 23.2497C82.6602 23.2197 82.3702 22.3797 82.8002 22.1297L84.5002 21.9497Z" fill="black"/>
<path d="M74.3802 21.2697C73.9902 21.6297 73.4402 21.0197 72.9502 21.1397V20.6497C73.3802 20.5697 75.1302 20.5697 74.3802 21.2597V21.2697Z" fill="black"/>
<path d="M84.4999 6.98976C84.6599 8.22976 82.1599 7.72976 83.3099 7.01976C83.6999 6.77976 84.0799 6.93976 84.4999 6.98976Z" fill="black"/>
<path d="M9.2998 45.26C9.8198 45.94 8.6598 46.6 8.0498 46.35L8.8598 45.54C8.4098 45.6 8.5298 45.26 8.5398 44.89C8.6198 44.79 9.2198 45.16 9.2998 45.27V45.26Z" fill="black"/>
<path d="M8.05026 34.3099C7.49026 34.3999 6.92026 34.5499 6.34026 34.4699C6.12026 34.4399 5.86026 34.3799 6.10026 34.1499C6.68026 34.0899 7.94026 33.3399 8.05026 34.3099Z" fill="black"/>
<path d="M10.8202 37.2396C10.8202 37.2396 11.0702 37.8396 10.7202 37.8696L9.52015 37.8896C9.34015 37.4196 10.7602 37.1896 10.8202 37.2396Z" fill="black"/>
<path d="M64.0101 30.8996C64.0101 31.1196 63.4301 31.3596 63.2901 31.3696C62.8701 31.3996 61.1001 30.9996 60.5201 30.8996C60.2501 30.8496 60.2401 30.9996 60.2801 30.5796L64.0201 30.9096L64.0101 30.8996Z" fill="black"/>
</svg>
