<svg width="221" height="78" viewBox="0 0 221 78" fill="none" xmlns="http://www.w3.org/2000/svg">
<path d="M47.9993 4.96689L33.063 18.596L20.1568 23.6821L26.3924 25.3907L0 43.2715L4.06037 45.8146L14.3563 46.8079V41.8411L36.1083 26.6623L38.9239 31.351L39.7336 41.8411L52.7848 50.5033L42.9239 57.7351L26.3924 72.596H4.06037L0 73.7483L33.063 78L67.7211 57.7351L95.7087 70.2119L84.2526 74.5828L90.0531 76.0132L113.835 70.2119L74.9718 52.053L90.0531 41.8411L80.5 30.4768L84.2526 24.3974L110.645 39.4172L105.57 43.2715L113.835 45.8146L122.536 43.2715L117.461 39.4172L135.587 28.9272L139.648 41.8411L152.554 48.1987L139.648 55.0331L142.258 58.8477L122.536 72.596L101.364 73.7483V76.0132L135.587 76.7285L161.98 57.1391L169.665 55.0331L199.683 71.0464L185.182 74.5828L188.372 76.0132L221 71.0464L176.481 46.8079L188.372 40.5695L185.182 31.351L187.372 26.0474L199.683 31.3698V41.8411L193.012 45.8146L199.683 48.1987L208.964 45.8146V41.8411V28.9272L187.372 15.298L169.665 13.6291L161.98 9.21854L164.59 2.54305L148.493 0L130.947 2.54305L135.587 11.2053H144.868V14.4636L130.947 15.298L125.726 24.3974L110.645 34.3311L90.0531 18.596L69.7513 14.4636L74.9718 9.93377L66.126 4.96689H47.9993Z" fill="#C4C4C4"/>
</svg>
