<svg width="86" height="36" viewBox="0 0 86 36" fill="none" xmlns="http://www.w3.org/2000/svg">
<path d="M85.9882 10.1126C85.9882 10.0237 86 9.93007 86 9.84115H85.9471C85.2063 4.34733 75.8872 0 64.4985 0C53.1099 0 43.7467 5.25942 43 8.88312C42.2651 5.25942 32.8901 0 21.5015 0C10.1128 0 0.793738 4.34733 0.0529158 9.84115H0C0 9.93007 0.0117591 10.0237 0.0117591 10.1126H0C0 10.1921 0.00587954 10.2623 0.0117591 10.3419C0.0117591 10.4121 0 10.4776 0 10.5478H0.0176386C0.0176386 25.0825 35.3713 21.863 43.0029 36C50.6287 21.863 85.9824 25.0825 85.9824 10.5478H86C86 10.4776 85.9941 10.4074 85.9882 10.3419C85.9882 10.267 86 10.1921 86 10.1126H85.9882Z" fill="black"/>
</svg>
