<svg width="136" height="84" viewBox="0 0 136 84" fill="none" xmlns="http://www.w3.org/2000/svg">
<path d="M61.9164 2.5729L46.7317 0L35.3627 3.95197L34.4283 8.23328L35.207 11.6913L18.6985 17.2899L11.0575 30.8027V51.2213L19.7887 55.5026L0 72.8027L6.34641 78.9983L32.8709 80.7067L61.5368 82.518L76.1764 79.3894L90.6699 80.048L112.639 84L136 77.9074L133.352 70.1681L119.803 67.8628L113.106 55.9966L119.492 50.2333L124.164 53.8559L132.729 51.3859L133.975 43.6467L120.893 20.4185L117.778 18.2779L109.514 4.44598L90.8256 5.10464L85.3747 10.8679L84.7518 16.1372L78.0452 17.2899L69.6353 29.4751L62.7827 17.1252L65.2064 11.9588L61.9164 2.5729Z" fill="black"/>
</svg>
