<svg width="353" height="222" viewBox="0 0 353 222" fill="none" xmlns="http://www.w3.org/2000/svg">
<path d="M0 196.404L43.8093 113.215V22.1508L60.0532 0L106.816 7.87583L118.137 14.2749V66.4523L153.579 70.3902L152.102 31.9956L165.885 19.6896L201.818 26.5809L216.093 31.9956L217.078 74.8204L222 76.7894L225.446 92.541L322.909 167.854L349.982 170.807L352.936 191.481L344.075 195.911L338.661 201.818L305.681 202.803L302.727 189.512L219.047 120.106L220.523 175.237L244.643 178.191L248.581 204.772L239.228 209.694L232.337 219.539L191.973 222L173.761 191.973L155.548 192.958V187.543L120.106 190.004V202.31L75.8049 207.725L43.3171 203.295V196.404H0Z" fill="#D9D9D9"/>
</svg>
