<svg width="376" height="415" viewBox="0 0 376 415" fill="none" xmlns="http://www.w3.org/2000/svg">
<path d="M290.4 294.921L370.285 346.671L375.811 353.705L366.265 366.768L348.68 388.372H322.554V381.338L339.134 372.294V351.695L300.448 388.372L230.109 415L151.731 402.439V390.381L133.644 377.821L137.663 362.246L123.596 351.695L158.263 254.728L179.867 230.611L187.906 203.481L170.823 153.741L151.731 142.185L153.741 113.045L102.494 122.591L37.6816 108.021H29.1404L8.03874 87.4213L0 70.339L8.03874 68.3293L36.1743 95.9625L107.016 103.499L153.741 77.3729L146.205 65.3148L138.668 63.3051L126.61 43.7107L124.6 13.5654L155.751 0L173.335 23.1114V49.2373L178.862 55.7688L209.007 61.7978L257.742 96.9673L265.781 84.4068L280.854 96.9673L275.829 109.528L265.781 120.079L226.09 102.996L230.109 120.079L275.829 203.983L290.4 294.921Z" fill="#D9D9D9"/>
</svg>
