<svg width="339" height="401" viewBox="0 0 339 401" fill="none" xmlns="http://www.w3.org/2000/svg">
<path d="M117.612 270.626L96.8571 304.958H59.3383L51.8878 333.434L102.179 358.451L85.6813 400.5H191.053L201.963 386.129L311.327 358.185L339 349.136L313.721 316.402L224.049 333.434L215.002 327.579L219.791 294.845L238.151 275.683V261.844L249.859 275.683L252.786 270.626L189.457 125.051L159.655 88.8566L151.406 44.146L107.235 0.5H71.8446L35.3901 22.8553L3.99137 24.9844L55.3469 40.154L0 61.1786L31.3987 57.985L39.9137 102.163L31.3987 118.93L45.2355 195.843L117.612 270.626Z" fill="#D9D9D9"/>
</svg>
