<svg width="132" height="47" viewBox="0 0 132 47" fill="none" xmlns="http://www.w3.org/2000/svg">
<path d="M108.261 46.9936C108.587 46.9936 108.93 47 109.256 47L109.256 46.9711C120.273 46.5662 132 42.8975 132 35.2492C132 27.6009 122.819 25.3323 115.149 23.5C122.819 21.6741 132 19.3991 132 11.7508C132 4.10252 120.273 0.433786 109.256 0.0289175L109.256 -1.58559e-06C108.93 -1.59984e-06 108.587 0.00642486 108.261 0.00642484L108.261 -1.62909e-06C107.969 -1.64184e-06 107.712 0.00321158 107.42 0.00642481C107.163 0.00642479 106.923 -1.68759e-06 106.665 -1.69884e-06L106.665 0.00963801C64.6051 0.00963578 37.091 17.9066 3.50267e-06 23.5016C37.091 29.0934 64.6051 46.9904 106.665 46.9904L106.665 47C106.923 47 107.18 46.9968 107.42 46.9936C107.695 46.9936 107.969 47 108.261 47L108.261 46.9936Z" fill="#FF0000"/>
</svg>
