<svg width="564" height="166" viewBox="0 0 564 166" fill="none" xmlns="http://www.w3.org/2000/svg">
<path d="M39.6844 96.4838L0 141.43V166H564V141.43L522.211 93.4874H500.264L503.271 84.1986L488.239 76.1083L500.264 59.9278V40.4513L480.723 25.769L466.593 24.2708V9.28881L397.446 0L335.815 8.09025L350.846 71.0144L316.273 74.9097L299.437 84.7978L304.247 94.6859H258.249L264.864 83.2996L251.335 74.9097L208.945 69.2166L222.473 5.99278L153.928 0L92.2964 8.09025V18.278L76.3625 19.7762L61.0299 30.5632L58.0235 53.0361L78.1663 74.3105L58.9254 85.0975L65.5394 96.4838H39.6844Z" fill="#D9D9D9"/>
</svg>
