<svg width="246" height="246" viewBox="0 0 246 246" fill="none" xmlns="http://www.w3.org/2000/svg">
<path d="M224.206 4.09766L237.573 19.1338L242.567 45.4922L230.686 63.8301L216.752 71.3389L245.438 209.415L236.299 211.146L208.02 72.9932L203.112 71.8164L204.567 79.4922L192.686 97.8301L178.752 105.339L207.438 243.415L198.299 245.146L170.02 106.993L149.305 102.028L136.943 87.8604L133.621 70.3311L131.752 71.3389L160.438 209.415L151.299 211.146L123.02 72.9932L118.112 71.8164L119.567 79.4922L107.686 97.8301L93.752 105.339L122.438 243.415L113.299 245.146L85.0195 106.993L64.3047 102.028L51.9434 87.8604L48.6211 70.3311L46.752 71.3389L75.4375 209.415L66.2988 211.146L38.0195 72.9932L17.3047 68.0283L4.94336 53.8604L0.335938 29.5449L6.88965 13.0625L28.6953 0.464844L54.2061 4.09766L67.5732 19.1338L70.9922 37.1807L75.6953 34.4648L86.5605 36.0117L85.3359 29.5449L91.8896 13.0625L113.695 0.464844L139.206 4.09766L152.573 19.1338L155.992 37.1807L160.695 34.4648L171.561 36.0117L170.336 29.5449L176.89 13.0625L198.695 0.464844L224.206 4.09766Z" fill="#D9D9D9"/>
</svg>
