<svg width="479" height="212" viewBox="0 0 479 212" fill="none" xmlns="http://www.w3.org/2000/svg">
<path d="M0 118.146V81.7935L22.9368 78.7641L33.3233 66.6466V57.1256L51.4996 44.5753L61.8861 42.4114L66.7109 30.2939L80.2109 32L85.6884 41.1131H90.8817L102.999 30.2939H112.953L122.907 25.9662L131.129 34.1888L137.188 25.9662L148.44 27.6973L150.604 35.4871L154.499 41.1131H167.482L191.284 27.6973L225.906 41.1131L234.561 67.5121L261.393 27.6973L302.506 0L363.094 8.22263L396.85 46.3064L410.699 32.025H434.934L447.917 54.0962L443.589 67.5121L461.765 81.7935L473.883 103.865L478.211 181.331L45.4408 211.624L0 118.146Z" fill="#D9D9D9"/>
</svg>
