<svg width="191" height="194" viewBox="0 0 191 194" fill="none" xmlns="http://www.w3.org/2000/svg">
<path d="M180.223 194H35.9248L4.19122 73.0494L0 39.2191L6.43652 31.1358H12.873V23.0525L26.9436 18.5617L35.0266 25.4475L36.5235 14.9691L48.1991 5.98765L58.0784 13.4722L66.7602 7.18519L78.7351 11.9753L98.4937 86.5216L102.386 73.0494L104.781 10.4784L114.959 4.79012L122.444 10.4784L126.335 0H136.813L144.897 7.18519L143.699 55.9846L150.285 17.3642L157.77 7.18519L165.853 9.28086L171.541 15.2685L170.044 26.9444L176.331 21.8549H183.815L191 29.3395L185.312 92.2099L175.433 134.123L180.223 194Z" fill="#D9D9D9"/>
</svg>
