<svg width="435" height="402" viewBox="0 0 435 402" fill="none" xmlns="http://www.w3.org/2000/svg">
<path d="M0 306.775L16.8293 401.5H157.715L170.698 376.496L163.485 278.405L167.813 227.917L241.381 197.144L224.551 173.583L157.715 133.192L224.551 127.903L322.642 112.035L336.106 104.342L331.778 129.826L336.106 148.579L348.127 154.83L342.838 199.067L354.378 323.123L345.723 349.569L348.127 355.82L377.458 358.705L388.036 349.569L389.96 325.528L402.462 284.175V262.538L413.521 208.684L419.772 154.83L434.197 87.0317L415.925 74.5299V11.5401L404.385 0H378.42L366.399 21.6377V38.9479L369.284 62.509L356.782 74.5299L342.838 78.8575L336.106 101.938L322.642 109.631L224.551 125.499L155.792 131.269L153.868 120.69L141.847 117.325H139.924L124.056 112.516L96.1677 78.8575H44.718L11.5401 112.516L22.5994 153.868L37.5054 172.621H44.718L52.8922 178.872L44.718 186.565V206.76L7.21257 240.419L0 306.775Z" fill="#D9D9D9"/>
</svg>
