<svg width="917" height="288" viewBox="0 0 917 288" fill="none" xmlns="http://www.w3.org/2000/svg">
<path d="M162 80H186V0H324V80H348V0H486V80H510V0H648V80H672V0H810V80H917V244H867.067L755 287.734L797.585 244H779V164H760.067L755 165.978V244H705.067L593 287.734L635.585 244H617V164H598.067L593 165.978V244H543.067L431 287.734L473.585 244H455V164H436.067L431 165.978V244H381.067L269 287.734L311.585 244H293V164H274.067L269 165.978V244H219.067L107 287.734L149.585 244H131V164H112.067L0 207.734L42.585 164H24V0H162V80Z" fill="#D9D9D9"/>
</svg>
