<svg width="186" height="374" viewBox="0 0 186 374" fill="none" xmlns="http://www.w3.org/2000/svg">
<path d="M93.139 374L70.0372 351.462L63.0334 268.167L52.7892 256.95L48.2919 236.537L50.7134 223.091L60.6292 217.691H83.731V210.628L79.4451 206.058L81.4313 197.022L74.0094 189.648L57.1796 197.022V184.248L95.1251 173.342L87.7032 162.853L63.0334 157.452L52.7892 162.853L45.7855 155.063L63.0334 148.52L0 0L140.492 66.782L162.026 46.2177L154.918 81.9456L183.56 53.2182L143.045 114.661L183.56 81.9456L162.026 114.661L173.734 110.118L135.886 151.947H173.734L137.886 173.342L159.308 223.091L186 232.961L179.929 265.975L170.103 273.453L175.956 301.807L170.103 339.924L152.2 371.611L93.139 374Z" fill="#D9D9D9"/>
</svg>
