<svg width="229" height="381" viewBox="0 0 229 381" fill="none" xmlns="http://www.w3.org/2000/svg">
<path d="M51.1596 381H188.914L211.282 326.857L229 267.166L214.604 185.063L194.229 163.096L201.759 147.785L197.551 107.177L177.84 84.7653L182.491 71.0076L177.84 34.8381L143.734 1.99709L87.4807 0L49.6093 37.5009V84.7653L54.7031 91.6441L58.2466 101.851L54.7031 124.041L67.1054 126.926V137.133L71.9778 150.669L84.3801 142.237L108.742 134.692L130.446 150.669L137.09 190.389L91.4671 264.725V284.252L75.5213 316.427L31.8917 241.87L27.2408 219.236L45.6228 201.706L69.9845 158.436L65.5551 150.669L31.8917 173.303L0 212.579L18.382 305.554L51.1596 381Z" fill="#D9D9D9"/>
</svg>
