<svg width="132" height="46" viewBox="0 0 132 46" fill="none" xmlns="http://www.w3.org/2000/svg">
<path d="M23.739 0.00629127C23.413 0.00629129 23.0698 6.0719e-06 22.7438 6.08615e-06L22.7438 0.0283109C11.7274 0.424564 -1.89659e-06 4.01524 -1.50801e-06 11.5008C-1.11942e-06 18.9863 9.1812 21.2067 16.8511 23C9.1812 24.7871 -8.91301e-07 27.0137 -5.02715e-07 34.4992C-1.14129e-07 41.9848 11.7274 45.5754 22.7438 45.9717L22.7438 46C23.0698 46 23.413 45.9937 23.739 45.9937L23.739 46C24.0307 46 24.2881 45.9969 24.5798 45.9937C24.8371 45.9937 25.0774 46 25.3347 46L25.3347 45.9906C67.3949 45.9906 94.909 28.4744 132 22.9984C94.909 17.5256 67.3948 0.00943768 25.3347 0.00943914L25.3347 5.97289e-06C25.0774 5.98414e-06 24.82 0.00314636 24.5798 0.00629124C24.3052 0.00629125 24.0307 6.0299e-06 23.739 6.04265e-06L23.739 0.00629127Z" fill="#FF0000"/>
</svg>
