<svg width="128" height="54" viewBox="0 0 128 54" fill="none" xmlns="http://www.w3.org/2000/svg">
<path d="M127.982 15.1689C127.982 15.0355 128 14.8951 128 14.7617H127.921C126.819 6.52099 112.948 0 95.9978 0C79.0472 0 65.1114 7.88913 64 13.3247C62.9061 7.88913 48.9528 0 32.0022 0C15.0516 0 1.18138 6.52099 0.0787585 14.7617H0C0 14.8951 0.0175019 15.0355 0.0175019 15.1689H0C0 15.2882 0.00875094 15.3935 0.0175019 15.5128C0.0175019 15.6181 0 15.7164 0 15.8217H0.0262528C0.0262528 37.6238 52.6456 32.7945 64.0044 54C75.3543 32.7945 127.974 37.6238 127.974 15.8217H128C128 15.7164 127.991 15.6111 127.982 15.5128C127.982 15.4005 128 15.2882 128 15.1689H127.982Z" fill="#FF0000"/>
</svg>
